<svg width="50" height="50" viewBox="0 0 50 50" fill="none" xmlns="http://www.w3.org/2000/svg">
<path fill-rule="evenodd" clip-rule="evenodd" d="M24.9511 42.4494C34.5886 42.4494 42.449 34.5889 42.449 24.9514C42.449 15.3139 34.5886 7.45337 24.9511 7.45337C15.3135 7.45337 7.45312 15.3139 7.45312 24.9513C7.45312 34.5887 15.3135 42.4494 24.9511 42.4494Z" fill="#FF554D"/>
<path d="M13.342 39.32C16.613 41.9665 20.7361 43.4239 24.9517 43.4239C35.1375 43.4239 43.4242 35.1371 43.4242 24.9513C43.4242 14.7654 35.1375 6.47864 24.9517 6.47864C20.7361 6.47864 16.6131 7.93605 13.342 10.5824C10.1191 13.1898 7.84343 16.8404 6.93436 20.8616C6.81565 21.3866 7.14508 21.9085 7.67013 22.0272C8.19518 22.1457 8.71702 21.8165 8.83573 21.2914C10.5479 13.7175 17.1751 8.42796 24.9517 8.42796C34.0626 8.42796 41.4749 15.8403 41.4749 24.9513C41.4749 34.0622 34.0626 41.4746 24.9517 41.4746C17.1751 41.4746 10.548 36.1851 8.83573 28.6112C8.71702 28.0861 8.19489 27.7566 7.67013 27.8754C7.14508 27.9941 6.81565 28.516 6.93436 29.041C7.84353 33.0621 10.1191 36.7126 13.342 39.32Z" fill="white"/>
<path d="M47.9141 15.1764C47.7031 14.6812 47.1306 14.451 46.6354 14.6619C46.1402 14.873 45.9098 15.4455 46.1209 15.9407C47.3368 18.7938 47.9533 21.8255 47.9533 24.9514C47.9533 37.6347 37.6347 47.9534 24.9514 47.9534C12.268 47.9534 1.94932 37.6347 1.94932 24.9514C1.94932 12.2681 12.268 1.94946 24.9514 1.94946C28.0779 1.94946 31.1096 2.56594 33.9621 3.78192C34.4573 3.99284 35.0297 3.76282 35.2408 3.2675C35.4519 2.77237 35.2215 2.19985 34.7264 1.98874C31.6309 0.66925 28.3421 0.000244141 24.9514 0.000244141C18.2866 0.000244141 12.0208 2.59566 7.30809 7.30824C2.59542 12.021 0 18.2868 0 24.9514C0 31.616 2.59542 37.8819 7.30809 42.5947C12.0209 47.3074 18.2866 49.9027 24.9514 49.9027C31.6161 49.9027 37.8819 47.3073 42.5945 42.5947C47.3072 37.882 49.9026 31.6161 49.9026 24.9514C49.9026 21.5614 49.2336 18.2726 47.9141 15.1764Z" fill="white"/>
<path d="M36.6817 8.41714H40.9924V12.9423C40.9924 13.4806 41.4288 13.9169 41.9671 13.9169C42.5054 13.9169 42.9417 13.4806 42.9417 12.9423V8.41714H47.2524C47.7908 8.41714 48.2271 7.98069 48.2271 7.44248C48.2271 6.90428 47.7908 6.46782 47.2524 6.46782H42.9417V1.94268C42.9417 1.40447 42.5054 0.968018 41.9671 0.968018C41.4288 0.968018 40.9924 1.40447 40.9924 1.94268V6.46782H36.6817C36.1434 6.46782 35.707 6.90428 35.707 7.44248C35.707 7.98069 36.1434 8.41714 36.6817 8.41714Z" fill="white"/>
<path d="M23.4453 30.2359C23.4453 33.4828 26.0869 36.1244 29.3338 36.1244C32.5808 36.1244 35.2224 33.4828 35.2224 30.2359C35.2224 28.1851 34.168 26.3768 32.5735 25.3221C34.168 24.2674 35.2224 22.459 35.2224 20.4083C35.2224 17.1613 32.5808 14.5197 29.3338 14.5197C26.0869 14.5197 23.4453 17.1612 23.4453 20.4083C23.4453 22.459 24.4997 24.2674 26.0942 25.3221C24.4998 26.3768 23.4453 28.1851 23.4453 30.2359ZM25.3946 20.4083C25.3946 18.2361 27.1617 16.469 29.3338 16.469C31.5059 16.469 33.2731 18.2361 33.2731 20.4083C33.2731 22.5803 31.5059 24.3474 29.3338 24.3474C27.1618 24.3474 25.3946 22.5803 25.3946 20.4083ZM29.3338 26.2967C31.5059 26.2967 33.2731 28.0639 33.2731 30.2359C33.2731 32.408 31.5059 34.1751 29.3338 34.1751C27.1617 34.1751 25.3946 32.408 25.3946 30.2359C25.3946 28.0639 27.1618 26.2967 29.3338 26.2967Z" fill="white"/>
<path d="M19.1568 15.7931C19.1562 15.7849 19.1562 15.7765 19.1554 15.7683C19.1523 15.7382 19.1476 15.7081 19.1416 15.6781C19.1402 15.671 19.1383 15.664 19.1367 15.657C19.131 15.6314 19.1249 15.606 19.1171 15.5809C19.112 15.5645 19.1055 15.5487 19.0995 15.5326C19.0945 15.5188 19.0902 15.5048 19.0844 15.4912C19.0724 15.4628 19.0591 15.4352 19.0446 15.4082C19.044 15.4072 19.0436 15.4062 19.043 15.4051C19.0276 15.3768 19.0108 15.3495 18.9928 15.3229C18.9885 15.3166 18.9834 15.3107 18.979 15.3044C18.9647 15.2845 18.9501 15.2646 18.9344 15.2456C18.9334 15.2444 18.9327 15.2432 18.9317 15.2421C18.9249 15.2339 18.9173 15.2269 18.9101 15.219C18.8968 15.2042 18.8835 15.1891 18.8693 15.1752C18.8583 15.1643 18.8466 15.1544 18.8351 15.1441C18.823 15.1334 18.8111 15.1223 18.7985 15.1121C18.7856 15.1016 18.7719 15.092 18.7585 15.0821C18.7464 15.0733 18.7344 15.0642 18.7218 15.0559C18.7082 15.0469 18.6942 15.0389 18.6802 15.0306C18.6667 15.0226 18.6533 15.0145 18.6394 15.0072C18.6262 15.0003 18.6128 14.9941 18.5993 14.9879C18.5837 14.9807 18.5682 14.9733 18.5522 14.9667C18.5399 14.9618 18.5273 14.9575 18.5148 14.953C18.4973 14.9467 18.4798 14.9404 18.4619 14.9352C18.4498 14.9315 18.4374 14.9287 18.4253 14.9257C18.4068 14.921 18.3886 14.9163 18.3699 14.9127C18.3562 14.9101 18.3424 14.9084 18.3287 14.9065C18.3113 14.904 18.2941 14.901 18.2763 14.8995C18.2587 14.8978 18.2409 14.8975 18.2233 14.8968C18.2108 14.8964 18.1986 14.8949 18.1861 14.8949C18.1843 14.8949 18.1827 14.8952 18.1809 14.8952C18.1591 14.8953 18.1374 14.8969 18.1156 14.8984C18.1052 14.8992 18.0946 14.8992 18.0842 14.9003C18.059 14.9029 18.0339 14.9072 18.0089 14.9118C17.9889 14.9155 17.9694 14.92 17.9499 14.9249C17.9324 14.9293 17.9148 14.9331 17.8975 14.9385C17.8794 14.9441 17.8621 14.9511 17.8445 14.9577C17.8322 14.9623 17.8198 14.966 17.8076 14.9712C17.7812 14.9823 17.7557 14.9949 17.7304 15.0083C17.7268 15.0102 17.7231 15.0119 17.7195 15.0138C17.692 15.0288 17.6652 15.0451 17.6395 15.0626C17.6323 15.0676 17.6254 15.0734 17.6183 15.0785C17.5992 15.0923 17.5803 15.106 17.5623 15.121C17.561 15.1221 17.5598 15.123 17.5585 15.1239L13.6908 18.3787C13.279 18.7254 13.2261 19.3401 13.5727 19.752C13.7656 19.9812 14.0412 20.0991 14.3189 20.0991C14.5405 20.0991 14.7633 20.024 14.946 19.8701L17.2114 17.9637V34.7744C17.2114 35.3126 17.6478 35.7491 18.1861 35.7491C18.7244 35.7491 19.1607 35.3126 19.1607 34.7744V15.8697C19.1607 15.8681 19.1605 15.8666 19.1605 15.8651C19.1603 15.8411 19.1587 15.8171 19.1568 15.7931Z" fill="white"/>
<path d="M8.42979 24.9513C8.42979 24.4145 7.99197 23.9767 7.45513 23.9767C6.91829 23.9767 6.48047 24.4145 6.48047 24.9513C6.48047 25.4882 6.91829 25.926 7.45513 25.926C7.99187 25.926 8.42979 25.4882 8.42979 24.9513Z" fill="white"/>
</svg>
