<svg width="50" height="50" viewBox="0 0 50 50" fill="none" xmlns="http://www.w3.org/2000/svg">
<path d="M0 0H50V30C50 41.0457 41.0457 50 30 50H20C8.9543 50 0 41.0457 0 30V0Z" fill="#ED9CEF"/>
<path d="M24.9495 13.8121C25.2754 13.8121 25.5396 13.5479 25.5396 13.222V10.5901C25.5396 10.2642 25.2754 10 24.9495 10C24.6236 10 24.3594 10.2642 24.3594 10.5901V13.222C24.3594 13.5479 24.6236 13.8121 24.9495 13.8121Z" fill="white"/>
<path d="M39.3703 30.2726L38.3278 29.2331C37.957 28.8627 37.4627 28.6587 36.9361 28.6587C36.5994 28.6587 36.2761 28.7425 35.9896 28.8995L34.0252 26.9374L34.1209 26.8418C34.9178 26.0433 34.9176 24.7457 34.1209 23.9499C33.8361 23.6647 33.4809 23.4745 33.0936 23.3945C33.147 23.2104 33.175 23.0176 33.175 22.8204C33.175 22.2722 32.9621 21.7582 32.5767 21.3744C32.2919 21.0891 31.9367 20.899 31.5495 20.8189C31.6028 20.6349 31.6309 20.4422 31.6309 20.2448C31.6309 19.6966 31.4179 19.1827 31.0319 18.7982C30.7403 18.507 30.3819 18.3227 30.0055 18.2442C30.2069 17.5501 30.0348 16.7691 29.4887 16.2221C29.0342 15.7694 28.4173 15.5749 27.8229 15.6379L23.9302 14.9011C23.3366 14.7885 22.5952 14.714 22.1272 15.1409C22.0977 15.1678 22.0675 15.1988 22.0379 15.2333C21.3123 14.9689 20.4659 15.1264 19.8849 15.7068C19.4994 16.0918 19.287 16.6056 19.287 17.1534C19.287 17.3507 19.315 17.5435 19.3682 17.7276C18.9814 17.8075 18.6266 17.9975 18.3429 18.2818C17.9566 18.6665 17.7436 19.1796 17.7432 19.7268C17.743 19.9247 17.7711 20.118 17.8246 20.3026C17.4376 20.3824 17.0826 20.572 16.798 20.8563C16.4117 21.2421 16.199 21.7562 16.199 22.3037C16.199 22.7232 16.3242 23.1227 16.5563 23.4602C16.2633 23.5595 15.9949 23.7248 15.7702 23.9493C14.9728 24.7457 14.9725 26.0434 15.7708 26.8431L15.8661 26.938L13.9014 28.899C13.1713 28.5553 12.2717 28.6841 11.6692 29.2858L10.6261 30.326C10.2551 30.6965 10.0508 31.1908 10.0508 31.7178C10.0508 32.2448 10.2551 32.7391 10.6261 33.1097L11.9279 34.4099C12.1585 34.6402 12.5321 34.64 12.7624 34.4094C12.9927 34.1789 12.9925 33.8052 12.7619 33.5749L11.4601 32.2748C11.3124 32.1272 11.231 31.9293 11.231 31.7178C11.231 31.5064 11.3124 31.3086 11.4598 31.1614L12.5029 30.1211C12.7636 29.8608 13.1625 29.822 13.4654 30.0031C13.4867 30.0352 13.5114 30.0657 13.5396 30.094C13.5902 30.1446 13.6479 30.1835 13.7092 30.2119L19.6912 36.1851C19.7196 36.2471 19.7587 36.3054 19.8096 36.3563C19.8591 36.406 19.9157 36.4443 19.9757 36.4726C20.1022 36.6156 20.1721 36.7983 20.1721 36.9932C20.1721 37.2047 20.0907 37.4025 19.9429 37.5501L18.9008 38.5909C18.5929 38.8975 18.0921 38.8974 17.7851 38.5919L16.4833 37.29C16.2529 37.0595 15.8793 37.0595 15.6488 37.29C15.4184 37.5204 15.4184 37.894 15.6488 38.1245L16.9515 39.4273C17.335 39.8091 17.8385 40 18.3423 40C18.8462 40 19.3504 39.8089 19.7343 39.4266L20.777 38.3851C21.148 38.0145 21.3523 37.5202 21.3523 36.9932C21.3523 36.6171 21.2478 36.2579 21.0533 35.9482L23.2644 33.7398C23.2667 33.7374 23.2691 33.735 23.2715 33.7326C23.5246 33.4708 24.2297 33.5198 24.9116 33.5672C25.396 33.6008 25.9361 33.6383 26.4638 33.5775L28.8852 35.9959C28.7283 36.2819 28.6446 36.6048 28.6446 36.941C28.6446 37.4674 28.8489 37.9615 29.2199 38.3321L30.2627 39.3736C30.6335 39.7439 31.1277 39.948 31.6544 39.948C32.1809 39.948 32.6752 39.744 33.046 39.3736L39.3707 33.0566C39.7417 32.686 39.946 32.1917 39.946 31.6647C39.946 31.1378 39.7416 30.6435 39.3703 30.2726ZM23.7105 16.0607L26.2703 16.5452L24.7381 18.0768C24.5011 17.9629 24.1763 17.7504 23.8199 17.4095C23.3321 16.9429 22.9832 16.4041 22.9514 16.0681C22.9514 16.0679 22.9514 16.0677 22.9514 16.0675C22.9514 16.0675 22.9513 16.0674 22.9513 16.0674C22.949 16.0432 22.9484 16.024 22.9487 16.0092C23.0259 15.9905 23.2309 15.9697 23.7105 16.0607ZM20.7188 16.5418C21.0178 16.2432 21.4822 16.2087 21.82 16.4374C22.0114 17.2401 22.6961 17.9675 23.0041 18.2622C23.2324 18.4807 23.9649 19.1356 24.7042 19.3156C24.8042 19.459 24.8587 19.6299 24.8587 19.8102C24.8587 20.0425 24.7693 20.2598 24.6065 20.4224C24.4441 20.5851 24.2265 20.6746 23.9938 20.6746C23.761 20.6746 23.5435 20.5851 23.3803 20.4216L23.3803 20.4216L23.38 20.4213L20.7188 17.7649C20.5565 17.6029 20.4672 17.3857 20.4672 17.1534C20.4672 16.9211 20.5566 16.7039 20.7188 16.5418ZM19.1769 19.1168C19.3392 18.9542 19.5566 18.8646 19.7889 18.8646C20.0216 18.8646 20.2396 18.9544 20.4031 19.1176L22.546 21.2563C22.8834 21.5942 22.8834 22.1442 22.5471 22.481C22.3839 22.6436 22.1656 22.7331 21.9324 22.7331C21.6993 22.7331 21.481 22.6436 21.3184 22.4817L21.3184 22.4816L19.6927 20.8563C19.6902 20.8538 19.6874 20.8514 19.6848 20.8489L19.1762 20.3405C19.013 20.1775 18.9232 19.9599 18.9234 19.7277C18.9236 19.4963 19.0132 19.2798 19.1769 19.1168ZM17.632 21.6913C17.7945 21.5291 18.0123 21.4397 18.2454 21.4397C18.4765 21.4397 18.6924 21.5278 18.8542 21.6872L20.4849 23.3171C20.6475 23.4791 20.737 23.696 20.737 23.9281C20.737 24.16 20.6475 24.377 20.4842 24.5396C20.3218 24.7018 20.1042 24.7912 19.8716 24.7912C19.6385 24.7912 19.4203 24.7016 19.2576 24.5396L18.6665 23.9492C18.6663 23.949 18.6662 23.9489 18.6661 23.9488L17.6321 22.916C17.469 22.7532 17.3793 22.5357 17.3793 22.3036C17.3793 22.0716 17.469 21.8541 17.632 21.6913ZM16.6043 24.7842C16.7674 24.6212 16.9855 24.5315 17.2183 24.5315C17.4511 24.5315 17.6691 24.6212 17.8322 24.7841L18.4242 25.3753C18.5868 25.5373 18.6764 25.7543 18.6764 25.9863C18.6764 26.2183 18.5868 26.4352 18.4229 26.5985C18.2606 26.7611 18.043 26.8507 17.8103 26.8507C17.5775 26.8507 17.3599 26.7611 17.1964 26.5973L17.1223 26.5235C17.1213 26.5225 17.1205 26.5214 17.1196 26.5205C17.1185 26.5194 17.1173 26.5185 17.1162 26.5174L16.6048 26.0081C16.2674 25.6699 16.2671 25.121 16.6043 24.7842ZM28.6297 31.4908C28.3994 31.2601 28.0257 31.26 27.7952 31.4902L27.2702 32.0146C26.7713 32.5135 25.8674 32.4507 24.9932 32.39C24.044 32.324 23.0623 32.2559 22.4271 32.9081L20.2536 35.079L14.8183 29.6516L16.7418 27.7316C17.0597 27.9265 17.4266 28.0309 17.8104 28.0309C18.3588 28.0309 18.873 27.8183 19.2571 27.4336C19.6437 27.0485 19.8567 26.5346 19.8567 25.9864C19.8567 25.9813 19.8564 25.9762 19.8564 25.9711C19.8615 25.9712 19.8666 25.9715 19.8717 25.9715C20.4193 25.9715 20.9331 25.7595 21.3177 25.3754C21.7044 24.9903 21.9174 24.4763 21.9174 23.9282C21.9174 23.9231 21.917 23.9181 21.917 23.913C21.9222 23.913 21.9273 23.9133 21.9325 23.9133C22.48 23.9133 22.9941 23.7016 23.3813 23.316C23.7832 22.9134 23.982 22.3834 23.9782 21.8544C23.9835 21.8545 23.9888 21.8548 23.994 21.8548C24.5424 21.8547 25.0566 21.6422 25.4412 21.2568C25.8267 20.8718 26.0391 20.3581 26.0391 19.8102C26.0391 19.4271 25.9349 19.0608 25.7407 18.7435L27.4266 17.0583C27.5522 16.9332 27.7071 16.8547 27.8695 16.8223C27.8871 16.8204 27.9044 16.8176 27.9216 16.8142C28.1821 16.7783 28.4557 16.8587 28.6549 17.0571C28.9923 17.3951 28.9923 17.9451 28.6561 18.2819L28.1427 18.7932C28.141 18.7949 28.1391 18.7964 28.1374 18.7981L27.5461 19.3885C27.3154 19.6188 27.3152 19.9924 27.5455 20.223C27.7759 20.4536 28.1495 20.4538 28.38 20.2235L28.8955 19.7087C28.8956 19.7086 28.8958 19.7085 28.8959 19.7084L28.9738 19.6307C29.3122 19.2955 29.8604 19.2962 30.1984 19.6337C30.3611 19.7957 30.4507 20.0127 30.4507 20.2447C30.4507 20.4767 30.3611 20.6936 30.1971 20.8569L29.6807 21.3743C29.6807 21.3744 29.6806 21.3744 29.6806 21.3746L29.0892 21.9635C28.8583 22.1935 28.8576 22.5671 29.0875 22.798C29.3175 23.0289 29.6911 23.0296 29.922 22.7997L30.5161 22.2081C30.6784 22.0454 30.896 21.9559 31.1287 21.9559C31.3615 21.9559 31.5791 22.0454 31.7427 22.2092C31.9053 22.3712 31.9948 22.5882 31.9948 22.8202C31.9948 23.0522 31.9053 23.2692 31.7417 23.4321L30.7122 24.462C30.4818 24.6925 30.4819 25.0661 30.7123 25.2965C30.8276 25.4117 30.9785 25.4692 31.1295 25.4692C31.2806 25.4692 31.4316 25.4115 31.5468 25.2963L32.0514 24.7916C32.0543 24.7888 32.0574 24.7864 32.0602 24.7835C32.2226 24.6209 32.4402 24.5314 32.6729 24.5314C32.9057 24.5314 33.1232 24.6209 33.2862 24.7841C33.6233 25.1209 33.623 25.6699 33.2862 26.0073L32.7732 26.5197C32.773 26.5199 32.7728 26.52 32.7726 26.5202C32.7724 26.5204 32.7723 26.5206 32.7721 26.5208L31.9579 27.334C31.7273 27.5643 31.7271 27.938 31.9573 28.1686C32.0726 28.2839 32.2238 28.3416 32.3749 28.3416C32.5258 28.3416 32.6767 28.2841 32.7919 28.1691L33.1902 27.7713L35.099 29.6779L29.6641 35.1061L27.7168 33.1612C27.8526 33.0739 27.9825 32.9712 28.1044 32.8493L28.6291 32.3252C28.8598 32.095 28.86 31.7213 28.6297 31.4908ZM38.5366 32.2215L32.2119 38.5385C32.064 38.6863 31.8659 38.7677 31.6543 38.7677C31.4427 38.7677 31.2446 38.6863 31.0966 38.5385L30.0538 37.497C29.906 37.3494 29.8246 37.152 29.8246 36.941C29.8246 36.73 29.906 36.5326 30.0538 36.385L36.3785 30.068C36.5265 29.9202 36.7245 29.8388 36.9362 29.8388C37.1478 29.8388 37.3459 29.9202 37.4942 30.0683L38.5367 31.1079C38.6844 31.2555 38.7658 31.4532 38.7658 31.6647C38.7658 31.8763 38.6844 32.074 38.5366 32.2215Z" fill="white"/>
<path d="M17.1126 13.3147C17.2278 13.4297 17.3786 13.4871 17.5294 13.4871C17.6806 13.4871 17.8318 13.4293 17.9471 13.3138C18.1773 13.0831 18.1769 12.7095 17.9463 12.4793L15.796 10.3333C15.5654 10.1031 15.1917 10.1034 14.9615 10.3342C14.7313 10.5648 14.7316 10.9384 14.9623 11.1687L17.1126 13.3147Z" fill="white"/>
<path d="M32.3674 13.4871C32.5183 13.4871 32.6692 13.4295 32.7844 13.3145L34.9331 11.1685C35.1637 10.9382 35.1639 10.5645 34.9336 10.334C34.7033 10.1034 34.3297 10.1032 34.0991 10.3335L31.9504 12.4795C31.7198 12.7098 31.7196 13.0835 31.9499 13.314C32.0652 13.4294 32.2163 13.4871 32.3674 13.4871Z" fill="white"/>
<path d="M13.681 35.383C13.4525 35.6153 13.4557 35.989 13.6882 36.2175L13.6899 36.2191C13.8045 36.3318 13.9534 36.388 14.1022 36.388C14.255 36.388 14.4077 36.3288 14.5235 36.2111C14.7519 35.9787 14.7479 35.6043 14.5155 35.3758C14.2832 35.1473 13.9096 35.1506 13.681 35.383Z" fill="white"/>
<path d="M30.076 30.6406C30.1657 30.6406 30.2568 30.6201 30.3423 30.5771C30.6332 30.4303 30.7501 30.0754 30.6034 29.7845C30.4566 29.4935 30.1017 29.3765 29.8108 29.5233L29.8076 29.525C29.5166 29.6717 29.4013 30.0258 29.548 30.3167C29.6516 30.5223 29.86 30.6406 30.076 30.6406Z" fill="white"/>
</svg>
