<svg width="50" height="50" viewBox="0 0 50 50" fill="none" xmlns="http://www.w3.org/2000/svg">
<path d="M0 0H50V30C50 41.0457 41.0457 50 30 50H20C8.9543 50 0 41.0457 0 30V0Z" fill="#87C259"/>
<g clip-path="url(#clip0)">
<path d="M29.2164 12.9797H20.0879C19.8451 12.9797 19.6484 13.1764 19.6484 13.4192C19.6484 13.6619 19.8451 13.8586 20.0879 13.8586H29.2164C29.4592 13.8586 29.6559 13.6619 29.6559 13.4192C29.6559 13.1764 29.4592 12.9797 29.2164 12.9797Z" fill="white"/>
<path d="M29.2164 15.552H20.0879C19.8451 15.552 19.6484 15.7487 19.6484 15.9915C19.6484 16.2342 19.8451 16.4309 20.0879 16.4309H29.2164C29.4592 16.4309 29.6559 16.2342 29.6559 15.9915C29.6559 15.7487 29.4592 15.552 29.2164 15.552Z" fill="white"/>
<path d="M37.6292 25.198H35.0203V23.9712C35.0203 22.3542 33.7049 21.0388 32.0879 21.0388H27.1473C25.5303 21.0388 24.2148 22.3542 24.2148 23.9712V25.198H21.606C20.2938 25.198 19.2344 26.2619 19.2344 27.5696V37.6198C19.2344 38.9274 20.2983 39.9914 21.606 39.9914H37.6293C38.9369 39.9914 40.0009 38.9275 40.0009 37.6198V35.7155C40.0009 35.4727 39.8042 35.276 39.5614 35.276C39.3187 35.276 39.122 35.4727 39.122 35.7155V37.6198C39.122 38.4429 38.4524 39.1125 37.6293 39.1125H21.606C20.7829 39.1125 20.1133 38.4429 20.1133 37.6198V31.3914C20.8058 32.2453 21.8476 32.805 23.0191 32.8507V33.5217C23.0191 34.4072 23.7396 35.1277 24.6251 35.1277C25.5106 35.1277 26.2311 34.4072 26.2311 33.5217V32.8538H33.0041V33.5217C33.0041 34.4072 33.7245 35.1277 34.6101 35.1277C35.4956 35.1277 36.2161 34.4072 36.2161 33.5217V32.8507C37.3876 32.805 38.4294 32.2453 39.1219 31.3914V33.661C39.1219 33.9038 39.3186 34.1005 39.5614 34.1005C39.8041 34.1005 40.0008 33.9038 40.0008 33.661V27.5695C40.0008 26.2623 38.9419 25.198 37.6292 25.198ZM25.0937 23.9712C25.0937 22.8389 26.015 21.9177 27.1473 21.9177H32.0879C33.2202 21.9177 34.1414 22.8389 34.1414 23.9712V25.198H33.2263V23.9712C33.2263 23.3436 32.7156 22.833 32.0879 22.833H27.1473C26.5196 22.833 26.009 23.3436 26.009 23.9712V25.198H25.0937V23.9712ZM26.8879 25.198V23.9712C26.8879 23.8282 27.0042 23.7119 27.1473 23.7119H32.0879C32.2309 23.7119 32.3474 23.8282 32.3474 23.9712V25.198H26.8879ZM25.3522 33.5217C25.3522 33.9226 25.0261 34.2488 24.6251 34.2488C24.2242 34.2488 23.898 33.9226 23.898 33.5217V31.9507C23.898 31.5498 24.2242 31.2236 24.6251 31.2236C25.0261 31.2236 25.3522 31.5498 25.3522 31.9507V33.5217ZM35.3372 33.5217C35.3372 33.9226 35.011 34.2488 34.6101 34.2488C34.2091 34.2488 33.883 33.9226 33.883 33.5217V32.4188C33.883 32.4173 33.883 32.4158 33.883 32.4143C33.883 32.4129 33.883 32.4113 33.883 32.4098V31.9508C33.883 31.5498 34.2091 31.2237 34.6101 31.2237C35.011 31.2237 35.3372 31.5498 35.3372 31.9508V33.5217ZM36.2161 31.971V31.9508C36.2161 31.0653 35.4956 30.3448 34.6101 30.3448C33.7245 30.3448 33.0041 31.0653 33.0041 31.9508V31.9749H26.2311V31.9508C26.2311 31.0653 25.5106 30.3448 24.6251 30.3448C23.7396 30.3448 23.0191 31.0653 23.0191 31.9508V31.971C21.403 31.8896 20.1133 30.5492 20.1133 28.9133V27.5695C20.1133 26.7453 20.7813 26.0769 21.606 26.0769H37.6293C38.4518 26.0769 39.122 26.7432 39.122 27.5696V28.9133C39.1219 30.5492 37.8321 31.8896 36.2161 31.971Z" fill="white"/>
<path d="M18.667 39.1125H12.1732C11.4595 39.1125 10.8789 38.5319 10.8789 37.8183V16.7097C10.8789 16.6148 10.889 16.5215 10.9088 16.431H14.9082C15.7432 16.431 16.4225 15.7517 16.4225 14.9167V10.9174C16.513 10.8976 16.6063 10.8875 16.7012 10.8875H31.6009C32.3146 10.8875 32.8952 11.4681 32.8952 12.1817V19.7217C32.8952 19.9644 33.0919 20.1611 33.3346 20.1611C33.5774 20.1611 33.7741 19.9644 33.7741 19.7217V12.1817C33.7741 10.9834 32.7992 10.0085 31.6009 10.0085H16.7011C16.1206 10.0085 15.5748 10.2345 15.1644 10.645L10.6364 15.173C10.226 15.5834 10 16.1292 10 16.7097V37.8183C10 39.0166 10.9749 39.9914 12.1732 39.9914H18.667C18.9098 39.9914 19.1065 39.7947 19.1065 39.552C19.1065 39.3092 18.9098 39.1125 18.667 39.1125ZM15.5436 11.509V14.9167C15.5436 15.267 15.2585 15.5521 14.9081 15.5521H11.5004L15.5436 11.509Z" fill="white"/>
</g>
<defs>
<clipPath id="clip0">
<rect width="30" height="30" fill="white" transform="translate(10 10)"/>
</clipPath>
</defs>
</svg>
