<svg width="50" height="50" viewBox="0 0 50 50" fill="none" xmlns="http://www.w3.org/2000/svg">
<path d="M0 0H50V30C50 41.0457 41.0457 50 30 50H20C8.9543 50 0 41.0457 0 30V0Z" fill="#FF915A"/>
<path d="M36.0516 15.7626C35.4132 15.1238 34.6551 14.6171 33.8208 14.2714C32.9865 13.9257 32.0922 13.7478 31.1891 13.7478C30.286 13.7478 29.3917 13.9257 28.5574 14.2714C27.7231 14.6171 26.9651 15.1238 26.3266 15.7626L25.0016 17.0876L23.6766 15.7626C22.387 14.473 20.6379 13.7485 18.8141 13.7485C16.9903 13.7485 15.2412 14.473 13.9516 15.7626C12.662 17.0522 11.9375 18.8013 11.9375 20.6251C11.9375 22.4489 12.662 24.198 13.9516 25.4876L15.2766 26.8126L25.0016 36.5376L34.7266 26.8126L36.0516 25.4876C36.6904 24.8491 37.1971 24.0911 37.5428 23.2568C37.8885 22.4225 38.0664 21.5282 38.0664 20.6251C38.0664 19.722 37.8885 18.8277 37.5428 17.9934C37.1971 17.1591 36.6904 16.401 36.0516 15.7626V15.7626Z" stroke="white" stroke-width="2" stroke-linecap="round" stroke-linejoin="round"/>
</svg>
