<svg width="50" height="50" viewBox="0 0 50 50" fill="none" xmlns="http://www.w3.org/2000/svg">
<path d="M0 0H50V30C50 41.0457 41.0457 50 30 50H20C8.9543 50 0 41.0457 0 30V0Z" fill="#FF554D"/>
<path d="M25.0002 17.7891C24.1216 16.8147 22.2653 15.0001 20.6252 15.0001C19.5091 15.0001 16.7314 16.5255 12.2893 19.0377C10.1127 20.2687 7.40562 21.7998 6.86031 21.8752C6.7411 21.878 6.62519 21.9149 6.52624 21.9814C6.42729 22.048 6.34944 22.1414 6.30187 22.2508C6.25431 22.3601 6.23902 22.4808 6.2578 22.5985C6.27659 22.7163 6.32867 22.8262 6.40789 22.9153C6.46312 22.9774 7.78727 24.4466 10.169 25.3501C10.4231 25.4465 10.6962 25.538 10.9859 25.6213C12.5032 27.2234 14.4354 29.6552 15.73 31.5968C18.3852 35.5793 24.7314 35.625 25.0002 35.625C26.211 35.5964 27.4148 35.4329 28.5893 35.1377C31.1959 34.4859 33.1604 33.2616 34.2702 31.5967C35.5648 29.6553 37.4968 27.2237 39.0139 25.6217C39.304 25.5384 39.5764 25.4466 39.8313 25.35C42.213 24.4466 43.5371 22.9773 43.5923 22.9152C43.6716 22.8261 43.7236 22.7162 43.7424 22.5984C43.7612 22.4807 43.7459 22.36 43.6984 22.2507C43.6508 22.1413 43.5729 22.0479 43.474 21.9813C43.3751 21.9148 43.2591 21.878 43.1399 21.8752C42.5946 21.7997 39.8876 20.2686 37.7109 19.0377C33.2691 16.5254 30.4914 15 29.375 15C27.7352 15 25.8788 16.8147 25.0002 17.7891ZM33.2302 30.9034C30.9482 34.3264 25.059 34.375 25.0007 34.375C24.9424 34.375 19.0523 34.3264 16.7702 30.9033C15.6137 29.194 14.357 27.5547 13.0066 25.994C14.491 26.1131 15.9845 25.9488 17.4075 25.5096C20.4934 26.8565 24.0671 29.1381 24.3815 31.3381C24.4027 31.4871 24.477 31.6234 24.5907 31.722C24.7043 31.8207 24.8498 31.875 25.0002 31.875C25.1507 31.875 25.2962 31.8207 25.4098 31.722C25.5235 31.6234 25.5978 31.4871 25.619 31.3381C25.9329 29.1417 29.5241 26.8502 32.592 25.51C33.7144 25.8527 34.8809 26.0294 36.0545 26.0347C36.3788 26.0347 36.6916 26.0198 36.9938 25.9937C35.6434 27.5545 34.3867 29.1939 33.2302 30.9034ZM19.0618 24.9021C19.3874 24.7599 19.7185 24.6013 20.0552 24.4263C21.419 25.2186 23.1616 25.6527 25.0002 25.6527C26.8389 25.6527 28.5803 25.2189 29.9439 24.4271C30.2806 24.6016 30.6118 24.7598 30.9377 24.9015C29.8973 25.4144 28.6153 26.1274 27.448 27.0045C26.3335 27.8419 25.5159 28.6859 25.0002 29.5277C23.7477 27.4808 20.9656 25.8412 19.0618 24.9021ZM41.928 22.7442C41.1593 23.3496 40.3028 23.8342 39.388 24.1813C36.802 25.1623 34.0242 24.9704 31.1202 23.6133C31.364 23.3684 31.5847 23.1017 31.7796 22.8164C32.2416 22.189 32.4938 21.4318 32.5002 20.6527C32.5002 20.6492 32.4998 20.6459 32.4997 20.6425C32.4997 20.6366 32.5002 20.6309 32.5002 20.625H32.4988C32.4921 20.4641 32.4234 20.3121 32.3072 20.2006C32.191 20.0892 32.0362 20.027 31.8752 20.027C31.7142 20.027 31.5594 20.0892 31.4432 20.2006C31.327 20.3121 31.2584 20.4641 31.2516 20.625H31.2502C31.2502 20.6719 31.2487 20.7184 31.2457 20.7647V20.7654C31.2058 21.224 31.0492 21.6647 30.7909 22.0456C30.4526 22.5179 30.0224 22.917 29.5261 23.219C28.3265 23.9823 26.719 24.4027 25.0002 24.4027C23.2815 24.4027 21.674 23.9823 20.4744 23.219C19.9781 22.917 19.5479 22.5179 19.2096 22.0456C18.9512 21.6647 18.7946 21.224 18.7548 20.7654V20.7647C18.7518 20.7185 18.7503 20.6719 18.7502 20.625H18.7488C18.7421 20.4641 18.6734 20.3121 18.5572 20.2006C18.441 20.0892 18.2862 20.027 18.1252 20.027C17.9642 20.027 17.8094 20.0892 17.6932 20.2006C17.577 20.3121 17.5084 20.4641 17.5016 20.625H17.5002C17.5002 20.6309 17.5007 20.6366 17.5008 20.6425C17.5008 20.6459 17.5002 20.6492 17.5002 20.6527C17.5067 21.4317 17.7589 22.1888 18.2209 22.8161C18.4158 23.1014 18.6365 23.3681 18.8803 23.613C15.9975 24.9598 13.238 25.1588 10.6665 24.2013C9.73235 23.852 8.85803 23.3601 8.07469 22.7429C9.02 22.3088 10.5122 21.4788 12.9049 20.1253C15.6337 18.582 19.7576 16.2497 20.6252 16.2497C21.7693 16.2497 23.6166 18.0231 24.5122 19.1403C24.5707 19.2134 24.645 19.2725 24.7294 19.313C24.8138 19.3536 24.9063 19.3747 25 19.3747C25.0937 19.3747 25.1862 19.3536 25.2706 19.313C25.355 19.2725 25.4293 19.2134 25.4878 19.1403C26.3835 18.0227 28.2309 16.2497 29.3749 16.2497C30.2426 16.2497 34.3665 18.582 37.0952 20.1253C39.4906 21.4802 40.9825 22.3103 41.928 22.7442Z" fill="white"/>
</svg>
