<svg width="25" height="25" viewBox="0 0 25 25" fill="none" xmlns="http://www.w3.org/2000/svg">
<g clip-path="url(#clip0)">
<path d="M16.1024 12.0551C16.1024 10.067 14.4905 8.45508 12.5024 8.45508C10.5142 8.45508 8.90234 10.067 8.90234 12.0551C8.90234 14.0435 10.5142 15.6552 12.5024 15.6552C14.4896 15.653 16.1002 14.0425 16.1024 12.0551ZM12.5024 14.8552C10.9561 14.8552 9.70233 13.6016 9.70233 12.0551C9.70233 10.5088 10.9561 9.25507 12.5024 9.25507C14.0487 9.25507 15.3024 10.5088 15.3024 12.0551C15.3004 13.6007 14.048 14.8531 12.5024 14.8552Z" fill="#FF554D"/>
<path d="M12.504 10.0552C11.3995 10.0552 10.5039 10.9506 10.5039 12.0551C10.5039 13.1597 11.3995 14.0551 12.504 14.0551C13.6085 14.0551 14.504 13.1597 14.504 12.0551C14.5026 10.9511 13.6079 10.0565 12.504 10.0552ZM12.504 13.2551C11.8413 13.2551 11.3039 12.7179 11.3039 12.0551C11.3039 11.3924 11.8413 10.8552 12.504 10.8552C13.1666 10.8552 13.704 11.3924 13.704 12.0551C13.704 12.7179 13.1666 13.2551 12.504 13.2551Z" fill="#FF554D"/>
<path d="M18.1636 10.026C18.261 9.98372 18.3375 9.90444 18.3763 9.80556C18.4153 9.70687 18.4133 9.59664 18.3708 9.49923C18.092 8.85964 17.7102 8.26986 17.2407 7.75368C17.0918 7.59237 16.8406 7.5812 16.678 7.72878C16.5154 7.87636 16.5023 8.1274 16.6484 8.29128C17.0591 8.74318 17.3931 9.25918 17.6371 9.81893C17.6794 9.91616 17.7587 9.9927 17.8574 10.0315C17.9561 10.0703 18.0663 10.0683 18.1636 10.026Z" fill="#FF554D"/>
<path d="M18.2338 13.8819C18.2652 13.8899 18.2974 13.894 18.3298 13.894C18.5136 13.8936 18.6738 13.7682 18.7178 13.5895C18.8414 13.0874 18.9036 12.5721 18.9035 12.055C18.9035 11.8734 18.8958 11.6939 18.8806 11.5163C18.8727 11.3706 18.7863 11.2409 18.655 11.1774C18.5237 11.1141 18.3682 11.1272 18.2494 11.2117C18.1306 11.2962 18.067 11.4387 18.0837 11.5835C18.0969 11.7379 18.1033 11.895 18.1033 12.055C18.1035 12.5075 18.0491 12.9585 17.9414 13.3979C17.8885 13.6123 18.0194 13.829 18.2338 13.8819Z" fill="#FF554D"/>
<path d="M9.53182 7.26966C9.7195 7.15302 9.77718 6.90619 9.66054 6.71833C9.5439 6.53065 9.29708 6.47297 9.10939 6.58961C8.51613 6.95838 7.98824 7.42292 7.54695 7.96436C7.40743 8.13575 7.43306 8.3877 7.60445 8.52741C7.77565 8.66694 8.02779 8.6413 8.16732 8.46992C8.55257 7.99695 9.01363 7.59138 9.53182 7.26966Z" fill="#FF554D"/>
<path d="M7.27209 15.7413C7.39953 15.9218 7.64911 15.965 7.82983 15.8376C8.01037 15.7103 8.05359 15.4606 7.92614 15.28C7.57385 14.7816 7.30597 14.2286 7.13293 13.6432C7.09411 13.5043 6.98352 13.3968 6.84344 13.3622C6.70319 13.3277 6.55524 13.3713 6.45636 13.4764C6.35748 13.5815 6.32288 13.7319 6.36572 13.8696C6.56311 14.539 6.86944 15.1713 7.27209 15.7413Z" fill="#FF554D"/>
<path d="M10.584 18.1625C10.623 18.1744 10.6633 18.1804 10.7041 18.1804C10.9015 18.1804 11.0696 18.0363 11.0994 17.8411C11.1294 17.646 11.0124 17.4581 10.824 17.3989C10.2414 17.2162 9.69279 16.939 9.20042 16.5781C9.08543 16.4885 8.93089 16.4686 8.79704 16.5261C8.66301 16.5836 8.5709 16.7094 8.55662 16.8544C8.54234 16.9994 8.60789 17.1408 8.72801 17.2233C9.29088 17.6361 9.91801 17.9534 10.584 18.1625Z" fill="#FF554D"/>
<path d="M16.2522 17.1412C16.3428 17.1414 16.4311 17.1104 16.5018 17.0535C17.0465 16.6175 17.5169 16.0959 17.8941 15.5088C18.0135 15.3228 17.9593 15.0752 17.7732 14.956C17.5874 14.8366 17.3398 14.8907 17.2204 15.0767C16.8907 15.5909 16.4789 16.0475 16.0017 16.4287C15.8689 16.5349 15.8178 16.7135 15.8742 16.8739C15.9305 17.0341 16.0821 17.1414 16.2522 17.1412Z" fill="#FF554D"/>
<path d="M6.48971 12.2215H6.50491C6.72024 12.2217 6.89694 12.0514 6.90499 11.8363C6.92678 11.2254 7.0469 10.6219 7.26058 10.0492C7.33236 9.84371 7.22671 9.61867 7.02291 9.5425C6.81912 9.46633 6.59188 9.56704 6.51132 9.76919C6.26779 10.4223 6.13083 11.1104 6.10574 11.8071C6.09768 12.0274 6.26944 12.2129 6.48971 12.2215Z" fill="#FF554D"/>
<path d="M14.4142 17.3206C13.8405 17.5294 13.2366 17.6424 12.6265 17.6552C12.4835 17.6565 12.3522 17.7341 12.2821 17.8586C12.2118 17.9831 12.2134 18.1355 12.2861 18.2585C12.3588 18.3816 12.4916 18.4566 12.6346 18.4552H12.6428C13.3408 18.4411 14.0317 18.3124 14.6877 18.0739C14.8247 18.0271 14.9256 17.9099 14.9516 17.7674C14.9778 17.6252 14.9249 17.4798 14.8134 17.3873C14.7018 17.295 14.5491 17.2701 14.4142 17.3223V17.3206Z" fill="#FF554D"/>
<path d="M11.7504 5.68867C11.5154 5.71247 11.2822 5.74927 11.0513 5.79871C10.8522 5.84302 10.7184 6.03016 10.7407 6.23267C10.7631 6.43537 10.9341 6.589 11.138 6.58918C11.1675 6.589 11.1968 6.58589 11.2256 6.57948C11.4059 6.54029 11.5883 6.51026 11.7716 6.48957C11.941 7.1006 12.4575 7.5525 13.0856 7.63948C13.7138 7.72645 14.3334 7.43165 14.6625 6.88947C14.8549 6.96858 15.0428 7.0583 15.2251 7.15827C15.3504 7.23243 15.5058 7.23298 15.6313 7.15956C15.7569 7.08595 15.8325 6.95027 15.8292 6.80488C15.8257 6.65949 15.7437 6.52729 15.6148 6.45991C15.3828 6.33265 15.1431 6.22004 14.8972 6.12263C14.8972 6.09919 14.904 6.07758 14.904 6.05396C14.9043 5.24244 14.2964 4.55945 13.4904 4.46588C12.6844 4.37213 11.936 4.89747 11.7504 5.68757V5.68867ZM13.304 5.25507C13.7352 5.25287 14.0906 5.59272 14.1076 6.02375C14.1245 6.4546 13.7969 6.82136 13.3668 6.85304C12.9367 6.88453 12.5589 6.56941 12.5128 6.14075C12.5229 6.10615 12.5282 6.07062 12.5287 6.03474C12.5253 6.01313 12.5198 5.99171 12.5124 5.97102C12.5553 5.56562 12.8962 5.25709 13.304 5.25507Z" fill="#FF554D"/>
<path d="M21.4834 14.037C22.5306 13.9482 23.3284 13.061 23.3059 12.0104C23.2831 10.9597 22.4478 10.1075 21.3979 10.0641C21.3166 9.98759 21.2064 9.94987 21.0952 9.96086C20.9843 9.97203 20.8836 10.0306 20.8191 10.1216C19.955 10.334 19.337 11.0943 19.3059 11.9834C19.2748 12.8726 19.838 13.6742 20.6851 13.9465C20.5719 14.4438 20.4133 14.9298 20.2114 15.3982C20.1542 15.5291 20.1713 15.6807 20.2562 15.7957C20.3412 15.9107 20.4809 15.9718 20.623 15.9557C20.7651 15.9398 20.8878 15.8492 20.9451 15.7181C21.1785 15.1764 21.3587 14.6134 21.4834 14.037ZM20.105 12.0549C20.105 11.3922 20.6422 10.855 21.3051 10.855C21.9677 10.855 22.505 11.3922 22.505 12.0549C22.505 12.7177 21.9677 13.2549 21.3051 13.2549C20.6422 13.2549 20.105 12.7177 20.105 12.0549Z" fill="#FF554D"/>
<path d="M20.5346 8.85721C20.6701 8.85703 20.7962 8.78836 20.8699 8.67465C20.9435 8.56095 20.9546 8.41776 20.8993 8.29398C20.6142 7.65732 20.2576 7.05509 19.8362 6.49918C19.7026 6.32304 19.4517 6.28861 19.2756 6.42228C19.0994 6.55576 19.065 6.8068 19.1986 6.98276C19.5834 7.48996 19.9089 8.03928 20.1689 8.62046C20.2334 8.76456 20.3766 8.85739 20.5346 8.85721Z" fill="#FF554D"/>
<path d="M18.2203 19.1465C18.3157 19.1463 18.408 19.1123 18.4803 19.05C19.0102 18.5966 19.487 18.0847 19.9019 17.524C19.9902 17.4094 20.0098 17.2559 19.9529 17.1228C19.8961 16.9899 19.7718 16.8978 19.628 16.8822C19.4841 16.8666 19.3429 16.9302 19.2591 17.0481C18.8802 17.5604 18.4444 18.0281 17.9603 18.4425C17.833 18.5512 17.7871 18.7279 17.8451 18.885C17.903 19.0421 18.0528 19.1465 18.2203 19.1465Z" fill="#FF554D"/>
<path d="M9.00956 19.6946C8.43077 19.4289 7.88383 19.0986 7.37956 18.7097C7.30815 18.6569 7.22099 18.6298 7.13237 18.633C6.86192 18.244 6.50871 17.9196 6.09837 17.683C6.11137 17.5755 6.08006 17.4673 6.01158 17.3835C5.6071 16.8909 5.25993 16.3542 4.97666 15.7833C4.91313 15.6555 4.78605 15.5711 4.64341 15.5623C4.50059 15.5535 4.36418 15.6214 4.28508 15.7404C4.20616 15.8596 4.19664 16.0118 4.26036 16.1398C4.45903 16.5375 4.68644 16.9204 4.94041 17.2853C4.79576 17.265 4.65 17.2547 4.50389 17.2545C3.03923 17.2514 1.75932 18.2433 1.39677 19.6624C1.03422 21.0814 1.68132 22.5657 2.968 23.2655C4.25468 23.9655 5.85246 23.7024 6.84672 22.627C7.35447 22.9035 7.88145 23.1427 8.42399 23.3426C8.63163 23.4179 8.86106 23.3104 8.93632 23.1026C9.01158 22.8947 8.90409 22.6653 8.69627 22.5902C8.22422 22.4156 7.76463 22.2092 7.32041 21.9726C7.66941 21.3294 7.78495 20.5852 7.64762 19.8665C7.9785 20.0736 8.32218 20.2595 8.67668 20.423C8.87626 20.5081 9.10716 20.4188 9.19743 20.2216C9.2877 20.0244 9.20439 19.7911 9.00956 19.6957V19.6946ZM4.50389 22.8546C3.17839 22.8546 2.10392 21.78 2.10392 20.4545C2.10392 19.1292 3.17839 18.0545 4.50389 18.0545C5.82939 18.0545 6.90403 19.1292 6.90403 20.4545C6.90257 21.7794 5.82884 22.8532 4.50389 22.8546Z" fill="#FF554D"/>
<path d="M4.74501 7.87912C4.54634 7.78335 4.30757 7.86648 4.21144 8.06497C3.90822 8.69394 3.67805 9.3555 3.52534 10.0366C3.47719 10.2522 3.61268 10.4658 3.8282 10.5142C3.85695 10.521 3.88624 10.5243 3.91572 10.5243C4.10286 10.5241 4.26491 10.3944 4.30574 10.2119C4.4449 9.58987 4.65474 8.98599 4.93141 8.41177C5.02662 8.21328 4.94331 7.97506 4.74501 7.87912Z" fill="#FF554D"/>
<path d="M3.94026 14.4883C3.97138 14.4882 4.00233 14.4847 4.03272 14.4779C4.24696 14.427 4.37989 14.2124 4.3299 13.9978C4.1836 13.3774 4.10816 12.7424 4.10468 12.105C4.1034 11.8851 3.92469 11.7075 3.7046 11.7075H3.70222C3.5962 11.7081 3.49476 11.7509 3.42005 11.8264C3.34553 11.9018 3.30396 12.0038 3.3047 12.1098C3.30891 12.8071 3.39149 13.5016 3.55097 14.1804C3.59364 14.3607 3.75477 14.4883 3.94026 14.4883Z" fill="#FF554D"/>
<path d="M12.7286 20.4519H12.7173C12.0806 20.4693 11.4441 20.4136 10.8201 20.286C10.68 20.2572 10.5352 20.3056 10.4405 20.4127C10.3457 20.5198 10.3151 20.6692 10.3605 20.8049C10.4057 20.9406 10.52 21.0417 10.6601 21.0702C11.2671 21.1931 11.8849 21.2548 12.5041 21.2546C12.5842 21.2546 12.6605 21.2546 12.7385 21.2519C12.9595 21.2491 13.1362 21.0679 13.1335 20.8468C13.1307 20.626 12.9494 20.4491 12.7286 20.4519Z" fill="#FF554D"/>
<path d="M16.3835 19.5084C15.8188 19.8019 15.2224 20.03 14.6059 20.1883C14.4104 20.2382 14.2827 20.4257 14.3078 20.6259C14.3331 20.826 14.5034 20.9762 14.7052 20.976C14.7389 20.976 14.7725 20.9718 14.8051 20.9632C15.4808 20.7894 16.1345 20.5385 16.753 20.2159C16.8838 20.1522 16.9695 20.0224 16.977 19.8772C16.9845 19.7321 16.9127 19.5943 16.7893 19.5172C16.666 19.4403 16.5106 19.4362 16.3835 19.5067V19.5084Z" fill="#FF554D"/>
<path d="M16.1173 4.01885C16.0693 4.11352 16.0611 4.22338 16.0942 4.32427C16.1274 4.42516 16.1993 4.50866 16.294 4.55645C16.8622 4.84429 17.3958 5.19585 17.8845 5.604C17.9936 5.70013 18.1463 5.72943 18.2833 5.68054C18.4202 5.63165 18.5198 5.51226 18.5435 5.36871C18.5671 5.22515 18.5109 5.08032 18.3968 4.99004C17.8616 4.54272 17.2773 4.15765 16.6549 3.84252C16.5602 3.79455 16.4504 3.78612 16.3495 3.81927C16.2486 3.85241 16.1651 3.92419 16.1173 4.01885Z" fill="#FF554D"/>
<path d="M12.2227 3.25012C12.2199 3.4704 12.3959 3.65149 12.6162 3.65497C13.2532 3.66284 13.8871 3.74341 14.5058 3.89502C14.5372 3.90234 14.5692 3.90619 14.6014 3.90619C14.8043 3.90655 14.9751 3.75513 14.9995 3.55389C15.0237 3.35266 14.8933 3.16498 14.6963 3.11737C14.0188 2.95184 13.3248 2.86395 12.6275 2.85498H12.6226C12.4036 2.85498 12.2253 3.03113 12.2227 3.25012Z" fill="#FF554D"/>
<path d="M8.38623 4.26449C8.48071 4.46408 8.71893 4.54922 8.91852 4.45492C9.49438 4.18283 10.0995 3.97738 10.7221 3.84298C10.9382 3.79611 11.0751 3.58316 11.0284 3.36709C10.9816 3.15121 10.7684 3.01407 10.5526 3.06094C9.87085 3.20871 9.20819 3.43356 8.57739 3.73129C8.48126 3.77652 8.40692 3.85818 8.37103 3.95834C8.33532 4.05832 8.34063 4.16855 8.38623 4.26449Z" fill="#FF554D"/>
<path d="M5.63758 6.95085C5.75897 6.95085 5.87396 6.89592 5.94995 6.80125C6.34875 6.3043 6.80249 5.85441 7.30237 5.45963C7.47595 5.32267 7.50561 5.0709 7.36847 4.89731C7.2315 4.72391 6.97992 4.69425 6.80633 4.83121C6.2594 5.26371 5.763 5.75663 5.3263 6.30046C5.22998 6.42039 5.21112 6.58482 5.27759 6.72361C5.34406 6.86241 5.48413 6.95067 5.63794 6.95085H5.63758Z" fill="#FF554D"/>
<path d="M16.2661 22.608C15.6596 22.8237 15.0358 22.9867 14.4013 23.0951C14.1974 23.1308 14.0543 23.3162 14.0717 23.5226C14.0891 23.729 14.2611 23.8879 14.4682 23.8892C14.4907 23.889 14.5134 23.887 14.5357 23.8831C15.2163 23.7674 15.8854 23.5925 16.5356 23.3607C16.6739 23.3155 16.7766 23.1987 16.8041 23.0559C16.8313 22.9132 16.7791 22.7667 16.6675 22.6735C16.5559 22.5803 16.4025 22.5551 16.2668 22.6074L16.2661 22.608Z" fill="#FF554D"/>
<path d="M22.6683 17.6642C22.5773 17.6097 22.4682 17.5936 22.3653 17.6196C22.2624 17.6454 22.174 17.7111 22.1196 17.8023C21.7889 18.3547 21.4113 18.8775 20.9907 19.3651C20.893 19.4726 20.8613 19.6246 20.9078 19.7623C20.9543 19.9 21.072 20.0016 21.2149 20.0276C21.3579 20.0538 21.5038 20.0001 21.5959 19.8879C22.0465 19.366 22.4515 18.8063 22.8064 18.215C22.8615 18.1238 22.878 18.0143 22.852 17.9109C22.8262 17.8074 22.7601 17.7186 22.6683 17.6642Z" fill="#FF554D"/>
<path d="M23.9147 9.91958C23.8097 9.93533 23.7154 9.99227 23.6524 10.0776C23.5895 10.1629 23.5629 10.2699 23.5787 10.3748C23.6618 10.9309 23.7035 11.4925 23.7035 12.0548C23.7035 12.1364 23.7026 12.2177 23.7008 12.2988C23.6982 12.405 23.738 12.5078 23.8112 12.5847C23.8845 12.6614 23.9853 12.7061 24.0915 12.7085H24.1007C24.3181 12.7085 24.4957 12.5349 24.5008 12.3175C24.5035 12.23 24.5035 12.1428 24.5035 12.0548C24.5037 11.4524 24.4591 10.8507 24.3699 10.2548C24.3367 10.0366 24.1329 9.88662 23.9147 9.91958Z" fill="#FF554D"/>
<path d="M12.4794 23.2551C11.8358 23.2538 11.1934 23.1976 10.5593 23.0866C10.3416 23.0485 10.1342 23.1939 10.0959 23.4116C10.0578 23.6294 10.2032 23.8368 10.4209 23.8751C11.1006 23.9937 11.7891 24.054 12.479 24.0551C12.6999 24.0551 12.8789 23.876 12.8789 23.6552C12.8789 23.4342 12.6999 23.2551 12.479 23.2551H12.4794Z" fill="#FF554D"/>
<path d="M23.9657 13.901C23.8617 13.8807 23.7536 13.9024 23.6657 13.9618C23.5777 14.0211 23.5169 14.1128 23.4966 14.217C23.3733 14.8489 23.1952 15.4687 22.9641 16.0697C22.9128 16.2032 22.9368 16.3539 23.0267 16.465C23.1168 16.5762 23.2591 16.6307 23.4002 16.6084C23.5416 16.586 23.6601 16.4901 23.7113 16.3566C23.9585 15.7121 24.1493 15.0476 24.2817 14.3701C24.302 14.2661 24.2801 14.1581 24.2209 14.0702C24.1616 13.9821 24.0699 13.9213 23.9657 13.901Z" fill="#FF554D"/>
<path d="M1.01862 13.7376C1.23761 13.7133 1.39563 13.5166 1.37238 13.2976C1.32678 12.8849 1.30389 12.47 1.30389 12.0547C1.30389 11.8236 1.31085 11.594 1.32477 11.3658C1.33777 11.145 1.16949 10.9553 0.948486 10.9421C0.727661 10.9289 0.537781 11.0974 0.52478 11.3182C0.511963 11.5627 0.503906 11.8071 0.503906 12.0547C0.503906 12.4987 0.528442 12.9426 0.577148 13.3838C0.599487 13.5864 0.770508 13.7398 0.974304 13.74C0.989136 13.74 1.00397 13.7391 1.01862 13.7376Z" fill="#FF554D"/>
<path d="M19.6118 20.7132C19.1137 21.1215 18.5818 21.4868 18.0217 21.8047C17.8963 21.8746 17.8179 22.0065 17.8164 22.15C17.815 22.2936 17.8906 22.4269 18.0145 22.4994C18.1383 22.5719 18.2918 22.5724 18.4161 22.5007C19.0163 22.1601 19.5861 21.7688 20.1193 21.3308C20.236 21.242 20.2948 21.0966 20.2726 20.9518C20.2505 20.8071 20.1508 20.6859 20.0131 20.6361C19.8753 20.5863 19.7213 20.616 19.6118 20.7132Z" fill="#FF554D"/>
<path d="M12.9692 0.864237C13.6126 0.891153 14.2527 0.972818 14.8824 1.10813C14.9103 1.11399 14.9386 1.11692 14.9672 1.11692C15.1712 1.11637 15.342 0.962198 15.3636 0.759134C15.3852 0.556253 15.2505 0.369669 15.0511 0.32609C14.3771 0.180887 13.6917 0.0935458 13.0027 0.0649813C12.8965 0.0594882 12.7926 0.0970248 12.7143 0.168985C12.6359 0.240946 12.5899 0.341471 12.5863 0.447672C12.5771 0.668497 12.7485 0.854898 12.9692 0.864237Z" fill="#FF554D"/>
<path d="M21.6159 5.27331C21.7692 5.27313 21.9089 5.18561 21.9757 5.04773C22.0426 4.90985 22.0248 4.74597 21.93 4.62567C21.5022 4.08423 21.0291 3.58014 20.5157 3.11926C20.4096 3.02112 20.2591 2.98779 20.1216 3.03174C19.9841 3.07586 19.881 3.19067 19.8519 3.33203C19.823 3.47357 19.8722 3.61969 19.9812 3.71454C20.4605 4.14465 20.9022 4.61523 21.3012 5.12079C21.3772 5.21728 21.4932 5.2735 21.6159 5.27331Z" fill="#FF554D"/>
<path d="M10.9394 0.156158C10.2549 0.245147 9.57963 0.393096 8.92099 0.59854C8.71006 0.664825 8.59287 0.889495 8.65915 1.10025C8.72544 1.31119 8.95011 1.42837 9.16086 1.36209C9.77537 1.17038 10.4051 1.03213 11.0434 0.949004C11.1886 0.934539 11.3144 0.842254 11.3719 0.708038C11.4292 0.573821 11.4089 0.419097 11.3188 0.304107C11.2289 0.1893 11.0833 0.132537 10.9394 0.156158Z" fill="#FF554D"/>
<path d="M2.08521 17.5626C2.22345 17.563 2.35218 17.4918 2.42542 17.3746C2.49866 17.2572 2.50617 17.1103 2.44519 16.9862C2.16138 16.408 1.92774 15.8065 1.74683 15.1881C1.70874 15.0488 1.59851 14.9407 1.45825 14.9056C1.31818 14.8704 1.16986 14.9136 1.07062 15.0186C0.971194 15.1235 0.936038 15.2738 0.978884 15.4119C1.17188 16.0743 1.42182 16.7191 1.72595 17.3387C1.79315 17.4756 1.9325 17.5626 2.08521 17.5626Z" fill="#FF554D"/>
<path d="M22.5211 6.18892C22.3274 6.29457 22.2558 6.537 22.3611 6.73091C22.6674 7.29744 22.9241 7.88942 23.1286 8.50007C23.1739 8.63593 23.2881 8.73719 23.4284 8.76594C23.5685 8.79469 23.7133 8.74635 23.8083 8.63923C23.9034 8.5323 23.9339 8.3827 23.8887 8.24684C23.6686 7.59205 23.3921 6.95759 23.0624 6.3506C22.9572 6.15669 22.7152 6.08455 22.5211 6.18892Z" fill="#FF554D"/>
<path d="M5.74406 3.12288C6.25803 2.73396 6.80424 2.39009 7.37699 2.09474C7.57328 1.99348 7.65036 1.75197 7.54892 1.55568C7.44748 1.35921 7.20615 1.28212 7.00968 1.38356C6.39756 1.70033 5.81346 2.06892 5.26414 2.48512C5.13871 2.5666 5.06932 2.71126 5.08397 2.86012C5.09861 3.0088 5.19511 3.13698 5.33409 3.19227C5.47306 3.24757 5.63127 3.22084 5.74406 3.12288Z" fill="#FF554D"/>
<path d="M18.9907 2.42866C19.0471 2.33857 19.0652 2.22999 19.0412 2.12635C19.0172 2.0229 18.9531 1.93317 18.8631 1.87714C18.2779 1.51112 17.6623 1.19617 17.023 0.935982C16.8901 0.87867 16.7365 0.897713 16.6217 0.985787C16.5067 1.07386 16.4483 1.21723 16.469 1.3606C16.4898 1.50379 16.5863 1.62482 16.7215 1.67664C17.3176 1.91981 17.8915 2.21424 18.4366 2.55665C18.5001 2.59675 18.5738 2.61781 18.6486 2.61744C18.7878 2.61836 18.9173 2.54676 18.9907 2.42866Z" fill="#FF554D"/>
<path d="M4.29252 3.84946C4.13102 3.69895 3.87797 3.70792 3.72745 3.86942C3.25687 4.37406 2.83042 4.91789 2.45249 5.49504C2.33109 5.67998 2.38254 5.92827 2.5673 6.04985C2.75223 6.17125 3.00071 6.11998 3.12211 5.93504C3.47495 5.39543 3.87302 4.88694 4.31211 4.41508C4.38462 4.33744 4.42325 4.23417 4.41959 4.12815C4.41593 4.02213 4.37015 3.92179 4.29252 3.84946Z" fill="#FF554D"/>
<path d="M1.47624 7.31351C1.20341 7.94761 0.986249 8.60422 0.826947 9.27585C0.776959 9.49027 0.909528 9.70487 1.12376 9.75595C1.15397 9.7631 1.1851 9.76657 1.21623 9.76676C1.40135 9.76657 1.56212 9.63932 1.60496 9.45914C1.75401 8.83256 1.95689 8.22025 2.21141 7.62864C2.26781 7.49735 2.25004 7.34592 2.16453 7.2313C2.07902 7.11668 1.93895 7.05625 1.79704 7.0731C1.65495 7.08976 1.53264 7.18095 1.47624 7.31223V7.31351Z" fill="#FF554D"/>
</g>
<defs>
<clipPath id="clip0">
<rect width="24" height="24" fill="white" transform="translate(0.503906 0.0644531)"/>
</clipPath>
</defs>
</svg>
