<svg width="512" height="512" viewBox="0 0 512 512" fill="none" xmlns="http://www.w3.org/2000/svg">
<g clip-path="url(#clip0)">
<path d="M3.91388 300.154V300.427C3.91388 300.521 3.99981 300.623 4.01544 300.724C9.18316 329.817 19.3819 357.78 34.1547 383.369C34.2484 383.564 34.2484 383.775 34.3617 383.974C34.471 384.169 34.7445 384.451 34.9241 384.705C39.6153 392.786 44.7479 400.602 50.2906 408.121L19.4952 469.556C16.9211 474.868 17.2492 481.13 20.3662 486.141C23.4833 491.153 28.9518 494.215 34.8538 494.254C37.5178 494.246 40.1466 493.629 42.5332 492.453L103.905 461.732C194.264 528.756 317.837 528.756 408.196 461.732L469.634 492.528C471.994 493.692 474.587 494.301 477.22 494.313C483.141 494.274 488.629 491.196 491.75 486.161C494.867 481.13 495.184 474.845 492.579 469.525L461.861 408.157C467.423 400.63 472.572 392.806 477.278 384.716C477.431 384.474 477.571 384.228 477.696 383.974C477.81 383.787 477.81 383.572 477.903 383.384C492.664 357.784 502.851 329.805 508.007 300.709C508.007 300.607 508.093 300.529 508.109 300.427C508.125 300.326 508.109 300.263 508.109 300.17C513.308 270.94 513.308 241.02 508.109 211.787C508.109 211.693 508.109 211.615 508.109 211.529C508.109 211.447 508.031 211.369 508.015 211.283C502.851 182.171 492.649 154.18 477.868 128.572C477.775 128.385 477.775 128.174 477.665 127.986C477.552 127.799 477.38 127.693 477.263 127.525C472.517 119.346 467.318 111.44 461.697 103.835L492.5 42.4004C495.715 35.7991 494.379 27.8854 489.172 22.7138C483.966 17.5382 476.04 16.2492 469.462 19.5069L408.11 50.2672C317.751 -16.757 194.178 -16.757 103.819 50.2672L42.3808 19.4717C35.7835 16.2453 27.8581 17.5773 22.6825 22.788C17.5031 28.0026 16.218 35.9319 19.4874 42.5097L50.2906 103.835C44.6776 111.436 39.4825 119.338 34.7367 127.506C34.6156 127.685 34.4281 127.799 34.3187 127.986C34.2054 128.174 34.2054 128.392 34.1117 128.592C19.3507 154.188 9.16754 182.163 4.01544 211.256C4.01544 211.361 3.93341 211.428 3.91388 211.529C3.89826 211.635 3.91388 211.709 3.91388 211.803C-1.27338 241.024 -1.27338 270.933 3.91388 300.154ZM39.0099 209.049L22.3622 206.111C26.987 184.46 34.6156 163.559 45.0252 144.017L59.6105 152.438C62.251 153.989 65.5204 154.005 68.1765 152.477C70.8287 150.954 72.4654 148.122 72.4576 145.06C72.4497 141.997 70.8053 139.173 68.1413 137.662L53.6381 129.263C65.4032 110.522 79.6955 93.4878 96.1127 78.6487L106.897 91.5152C109.991 94.8666 115.174 95.1948 118.662 92.2613C122.154 89.3239 122.717 84.164 119.948 80.5431L109.178 67.7429C126.607 54.1029 145.849 42.955 166.348 34.6156L172.109 50.4547C173.148 53.3217 175.644 55.4115 178.644 55.9427C181.648 56.47 184.706 55.3607 186.667 53.0249C188.628 50.689 189.19 47.4822 188.147 44.619L182.382 28.7565C203.44 21.913 225.349 18.046 247.481 17.2687V34.1234C247.481 38.8341 251.301 42.6543 256.011 42.6543C260.726 42.6543 264.546 38.8341 264.546 34.1234V17.2687C286.67 18.0382 308.583 21.8896 329.641 28.7213L323.875 44.5838C322.262 49.0133 324.547 53.9115 328.977 55.5247C333.406 57.134 338.304 54.849 339.918 50.4195L345.675 34.5843C366.174 42.9199 385.416 54.0717 402.848 67.7078L392.079 80.5079C389.048 84.1211 389.521 89.5036 393.13 92.5347C396.743 95.5658 402.13 95.0932 405.161 91.4801L415.945 78.6135C432.363 93.4527 446.659 110.483 458.42 129.232L443.917 137.626C441.253 139.142 439.608 141.962 439.601 145.024C439.593 148.087 441.229 150.919 443.882 152.442C446.538 153.969 449.807 153.954 452.448 152.407L467.033 143.985C477.443 163.524 485.071 184.425 489.696 206.076L473.056 209.014C468.697 209.775 465.646 213.748 466.025 218.154C466.408 222.564 470.099 225.95 474.525 225.95C475.025 225.95 475.525 225.907 476.017 225.821L492.629 222.896C495.746 244.817 495.746 267.07 492.629 288.994L476.017 286.065C473.013 285.537 469.958 286.651 467.998 288.986C466.037 291.322 465.474 294.525 466.517 297.392C467.56 300.255 470.052 302.345 473.056 302.876L489.696 305.81C485.071 327.465 477.443 348.366 467.033 367.905L452.448 359.483C449.807 357.936 446.538 357.921 443.882 359.444C441.229 360.971 439.593 363.799 439.601 366.862C439.608 369.924 441.253 372.748 443.917 374.264L458.42 382.658C446.659 401.403 432.363 418.437 415.945 433.277L405.161 420.41C403.2 418.07 400.141 416.957 397.138 417.488C394.134 418.016 391.642 420.109 390.595 422.972C389.552 425.839 390.118 429.046 392.079 431.382L402.848 444.182C385.416 457.818 366.174 468.966 345.675 477.306L339.918 461.471C338.875 458.604 336.383 456.51 333.379 455.983C330.375 455.451 327.317 456.565 325.356 458.9C323.399 461.236 322.833 464.439 323.875 467.306L329.641 483.169C308.587 490.02 286.674 493.899 264.546 494.688V477.833C264.546 473.122 260.726 469.302 256.011 469.302C251.301 469.302 247.481 473.122 247.481 477.833V494.688C225.353 493.922 203.44 490.067 182.382 483.235L188.147 467.373C189.19 464.509 188.628 461.303 186.667 458.967C184.706 456.631 181.648 455.522 178.644 456.049C175.644 456.58 173.148 458.67 172.109 461.537L166.348 477.376C145.849 469.037 126.607 457.889 109.178 444.249L119.948 431.449C122.975 427.839 122.502 422.453 118.893 419.422C115.28 416.391 109.893 416.863 106.866 420.476L96.0775 433.343C79.6603 418.492 65.3641 401.45 53.603 382.693L68.1062 374.295C70.7701 372.783 72.4185 369.959 72.4224 366.897C72.4302 363.835 70.7975 361.003 68.1413 359.479C65.4852 357.956 62.2158 357.968 59.5753 359.518L44.994 367.94C34.5804 348.398 26.9519 327.5 22.3271 305.845L39.0099 302.912C43.6542 302.091 46.7517 297.662 45.9314 293.021C45.1112 288.377 40.6817 285.28 36.0413 286.1L19.4288 289.026C16.3117 267.105 16.3117 244.852 19.4288 222.931L36.0413 225.857C36.5334 225.943 37.0334 225.986 37.5334 225.986C41.9629 225.986 45.6541 222.603 46.0408 218.193C46.4236 213.783 43.373 209.81 39.0099 209.049ZM34.7445 477.134L62.0479 422.754C70.4186 432.476 79.5041 441.561 89.2263 449.932L34.7445 477.134ZM477.126 477.204L422.746 449.94C432.468 441.569 441.554 432.488 449.924 422.761L477.126 477.204ZM477.204 34.8226L449.94 89.2107C441.577 79.4924 432.511 70.403 422.804 62.0244L477.204 34.8226ZM34.8538 34.7523L89.2341 62.0596C79.5158 70.4147 70.4303 79.4846 62.0596 89.195L34.8538 34.7523Z" fill="#FFCF65"/>
<path d="M256.011 443.702C359.689 443.702 443.736 359.655 443.736 255.98C443.736 152.302 359.689 68.2549 256.011 68.2549C152.332 68.2549 68.2852 152.302 68.2852 255.98C68.4023 359.608 152.383 443.585 256.011 443.702ZM256.011 85.3205C350.264 85.3205 426.671 161.727 426.671 255.98C426.671 350.23 350.264 426.637 256.011 426.637C161.757 426.637 85.3508 350.23 85.3508 255.98C85.4601 161.77 161.804 85.4299 256.011 85.3205Z" fill="#FFCF65"/>
<path d="M153.617 153.582C163.042 153.582 170.682 161.223 170.682 170.648V332.773C170.682 337.488 174.503 341.308 179.213 341.308C183.928 341.308 187.748 337.488 187.748 332.773V170.648C187.748 161.223 195.388 153.582 204.814 153.582C214.239 153.582 221.879 161.223 221.879 170.648V332.773C221.879 337.488 225.699 341.308 230.41 341.308C235.125 341.308 238.945 337.488 238.945 332.773V170.648C238.945 161.223 246.585 153.582 256.01 153.582C265.436 153.582 273.076 161.223 273.076 170.648V332.773C273.076 337.488 276.896 341.308 281.611 341.308C286.322 341.308 290.142 337.488 290.142 332.773V170.648C290.142 161.223 297.782 153.582 307.207 153.582C316.633 153.582 324.273 161.223 324.273 170.648V332.773C324.273 333.047 324.351 333.304 324.351 333.578C309.094 351.432 290.349 365.986 269.264 376.334C265.045 378.443 263.334 383.568 265.44 387.786C267.545 392.005 272.674 393.716 276.892 391.61C296.919 381.736 315.043 368.4 330.425 352.221C336.78 361.409 347.237 366.897 358.404 366.908C363.119 366.908 366.939 363.084 366.939 358.374C366.939 353.663 363.119 349.839 358.404 349.839C351.131 349.808 344.678 345.171 342.331 338.289C369.575 300.954 384.43 256.015 384.805 209.798C384.965 201.756 381.864 193.991 376.204 188.268C367.119 178.905 353.014 176.507 341.338 182.339V170.648C341.405 156.414 332.589 143.649 319.257 138.665C305.926 133.681 290.903 137.528 281.611 148.309C275.213 140.825 265.858 136.517 256.01 136.517C246.163 136.517 236.812 140.825 230.41 148.309C224.012 140.825 214.661 136.517 204.814 136.517C194.966 136.517 185.611 140.825 179.213 148.309C172.796 140.852 163.456 136.548 153.617 136.517C148.902 136.517 145.082 140.337 145.082 145.051C145.082 149.762 148.902 153.582 153.617 153.582ZM354.541 196.248C358.111 196.237 361.533 197.67 364.029 200.225C366.47 202.682 367.81 206.025 367.74 209.49C367.501 244.562 358.42 279.002 341.338 309.634V209.447C341.35 202.162 347.252 196.256 354.541 196.248Z" fill="#FFCF65"/>
</g>
<defs>
<clipPath id="clip0">
<rect width="512" height="512" fill="white"/>
</clipPath>
</defs>
</svg>
