<svg width="994" height="992" viewBox="0 0 994 992" fill="none" xmlns="http://www.w3.org/2000/svg">
<path d="M478 19.6865C478 8.64083 469.041 -0.359862 458.006 0.130894C405.739 2.45542 354.223 13.88 305.792 33.9407C257.362 54.0015 212.856 82.3499 174.254 117.665C166.104 125.121 166.134 137.82 173.944 145.631L443.858 415.544C456.457 428.144 478 419.22 478 401.402L478 19.6865Z" fill="#FFCF65"/>
<path d="M149.635 170.722C141.781 162.955 129.081 162.997 121.671 171.188C86.5727 209.987 58.4736 254.65 38.684 303.192C18.8943 351.735 7.75799 403.313 5.72576 455.593C5.29671 466.63 14.3474 475.539 25.3929 475.477L407.103 473.343C424.92 473.243 433.723 451.651 421.054 439.122L149.635 170.722Z" fill="#FFCF65"/>
<path d="M833.151 820.933C840.778 828.923 853.474 829.247 861.116 821.272C897.317 783.498 926.689 739.662 947.867 691.709C969.045 643.756 981.66 592.52 985.196 540.32C985.942 529.3 977.151 520.134 966.109 519.878L584.495 511.031C566.682 510.618 557.262 531.948 569.566 544.836L833.151 820.933Z" fill="#FFCF65"/>
<path d="M25.4543 510.578C14.4086 510.589 5.41697 519.557 5.91891 530.591C8.29638 582.857 19.7731 634.36 39.8829 682.771C59.9927 731.181 88.3862 775.658 123.74 814.224C131.204 822.367 143.904 822.324 151.706 814.506L421.347 544.319C433.933 531.707 424.988 510.173 407.17 510.191L25.4543 510.578Z" fill="#FFCF65"/>
<path d="M814.552 145.34C822.362 137.53 822.392 124.83 814.242 117.374C775.64 82.0595 731.135 53.711 682.704 33.6503C634.273 13.5896 582.757 2.16499 530.49 -0.15953C519.455 -0.650286 510.496 8.35041 510.496 19.3961L510.496 401.112C510.496 418.93 532.039 427.853 544.638 415.254L814.552 145.34Z" fill="#60C6FF"/>
<path d="M510.996 970.687C510.996 981.733 519.955 990.733 530.99 990.243C583.257 987.918 634.773 976.494 683.204 956.433C731.635 936.372 776.14 908.024 814.742 872.709C822.892 865.253 822.863 852.553 815.052 844.743L545.138 574.829C532.539 562.23 510.996 571.153 510.996 588.971L510.996 970.687Z" fill="#6FCF97"/>
<path d="M965.996 476.687C977.042 476.687 986.042 467.727 985.552 456.693C983.227 404.425 971.803 352.91 951.742 304.479C931.681 256.048 903.333 211.543 868.018 172.94C860.562 164.791 847.862 164.82 840.052 172.631L570.138 442.544C557.539 455.144 566.462 476.687 584.28 476.687L965.996 476.687Z" fill="#FF856A"/>
<path d="M174.44 846.033C166.63 853.844 166.6 866.543 174.75 873.999C213.352 909.314 257.858 937.662 306.289 957.723C354.719 977.784 406.235 989.209 458.502 991.533C469.537 992.024 478.496 983.023 478.496 971.977L478.496 590.262C478.496 572.444 456.953 563.52 444.354 576.12L174.44 846.033Z" fill="#B592FF"/>
</svg>
