<?xml version="1.0" encoding="UTF-8" standalone="no"?>
<svg
   xmlns:dc="http://purl.org/dc/elements/1.1/"
   xmlns:cc="http://creativecommons.org/ns#"
   xmlns:rdf="http://www.w3.org/1999/02/22-rdf-syntax-ns#"
   xmlns:svg="http://www.w3.org/2000/svg"
   xmlns="http://www.w3.org/2000/svg"
   xmlns:sodipodi="http://sodipodi.sourceforge.net/DTD/sodipodi-0.dtd"
   xmlns:inkscape="http://www.inkscape.org/namespaces/inkscape"
   width="256"
   height="88.24128"
   viewBox="0 0 256 88.24128"
   fill="none"
   version="1.1"
   id="svg29"
   sodipodi:docname="tooltip.svg"
   inkscape:version="1.0.2 (e86c870879, 2021-01-15, custom)">
  <metadata
     id="metadata33">
    <rdf:RDF>
      <cc:Work
         rdf:about="">
        <dc:format>image/svg+xml</dc:format>
        <dc:type
           rdf:resource="http://purl.org/dc/dcmitype/StillImage" />
        <dc:title></dc:title>
      </cc:Work>
    </rdf:RDF>
  </metadata>
  <sodipodi:namedview
     pagecolor="#ffffff"
     bordercolor="#666666"
     borderopacity="1"
     objecttolerance="10"
     gridtolerance="10"
     guidetolerance="10"
     inkscape:pageopacity="0"
     inkscape:pageshadow="2"
     inkscape:window-width="2880"
     inkscape:window-height="1526"
     id="namedview31"
     showgrid="false"
     inkscape:zoom="5.3005952"
     inkscape:cx="128"
     inkscape:cy="48.5"
     inkscape:window-x="-11"
     inkscape:window-y="1618"
     inkscape:window-maximized="1"
     inkscape:current-layer="g6" />
  <g
     filter="url(#filter0_bd)"
     id="g6"
     transform="translate(-40,-36)">
    <path
       d="M 40,56 C 40,44.9543 48.9543,36 60,36 h 216 c 11.046,0 20,8.9543 20,20 v 30 c 0,11.0457 -8.954,20 -20,20 h -80.367 c -5.215,0 -10.223,2.036 -13.958,5.675 l -12.314,11.999 c -0.762,0.743 -1.974,0.758 -2.755,0.034 L 153.252,111.331 C 149.555,107.904 144.699,106 139.657,106 H 60 C 48.9543,106 40,97.0457 40,86 Z"
       fill="#ffffff"
       id="path2" />
    <path
       d="M 40.5,56 C 40.5,45.2304 49.2304,36.5 60,36.5 h 216 c 10.77,0 19.5,8.7304 19.5,19.5 v 30 c 0,10.7696 -8.73,19.5 -19.5,19.5 h -80.367 c -5.345,0 -10.479,2.087 -14.307,5.817 l -12.314,11.999 c -0.572,0.557 -1.48,0.568 -2.066,0.025 l -13.354,-12.376 c -3.79,-3.513 -8.767,-5.465 -13.935,-5.465 H 60 C 49.2305,105.5 40.5,96.7696 40.5,86 Z"
       stroke="#f4f3f7"
       id="path4" />
  </g>
  <defs
     id="defs27">
    <filter
       id="filter0_bd"
       x="0"
       y="0"
       width="336"
       height="168.241"
       filterUnits="userSpaceOnUse"
       color-interpolation-filters="sRGB">
      <feFlood
         flood-opacity="0"
         result="BackgroundImageFix"
         id="feFlood8" />
      <feGaussianBlur
         in="BackgroundImage"
         stdDeviation="2"
         id="feGaussianBlur10" />
      <feComposite
         in2="SourceAlpha"
         operator="in"
         result="effect1_backgroundBlur"
         id="feComposite12" />
      <feColorMatrix
         in="SourceAlpha"
         type="matrix"
         values="0 0 0 0 0 0 0 0 0 0 0 0 0 0 0 0 0 0 127 0"
         result="hardAlpha"
         id="feColorMatrix14" />
      <feOffset
         dy="4"
         id="feOffset16" />
      <feGaussianBlur
         stdDeviation="20"
         id="feGaussianBlur18" />
      <feColorMatrix
         type="matrix"
         values="0 0 0 0 0.682547 0 0 0 0 0.654531 0 0 0 0 0.7375 0 0 0 0.2 0"
         id="feColorMatrix20" />
      <feBlend
         mode="normal"
         in2="effect1_backgroundBlur"
         result="effect2_dropShadow"
         id="feBlend22" />
      <feBlend
         mode="normal"
         in="SourceGraphic"
         in2="effect2_dropShadow"
         result="shape"
         id="feBlend24" />
    </filter>
  </defs>
</svg>
