<svg width="51" height="50" viewBox="0 0 51 50" fill="none" xmlns="http://www.w3.org/2000/svg">
<path d="M0.5 0H50.5V30C50.5 41.0457 41.5457 50 30.5 50H20.5C9.4543 50 0.5 41.0457 0.5 30V0Z" fill="#FF915A"/>
<path d="M44.3714 10.2388C44.4094 10.0491 44.1577 9.92355 44.0524 10.0529C44.0082 10.1073 44.0171 10.1893 43.9674 10.2388C41.4539 13.3315 36.0677 11.5387 32.8809 10.7767C32.0488 10.6018 31.174 10.4695 30.2981 10.4215C30.2577 10.4193 30.2132 10.3744 30.1734 10.3674C30.1105 10.3563 30.0448 10.4157 29.9809 10.4135C28.4135 10.3587 26.8481 10.6003 25.3688 11.1174C24.6279 11.3764 23.7873 11.3262 23.0063 11.4042C21.7583 11.5377 20.6873 13.0415 20.4527 14.1597C20.4494 14.1754 20.4478 14.1912 20.4481 14.2072C20.4487 14.2418 20.452 14.2878 20.4682 14.3249C20.479 14.3499 20.4959 14.3592 20.4767 14.3785C20.4682 14.3869 20.4417 14.4086 20.4302 14.4121C20.2926 14.4547 20.2144 14.5791 20.2628 14.7181C20.2859 14.7846 20.3396 14.8342 20.383 14.8896C20.4161 14.9318 20.4466 14.9781 20.4746 15.028C21.0749 16.0972 19.6279 16.3085 18.8187 15.3872C18.3662 14.8722 18.063 14.1481 18.3367 13.5196C18.4153 13.339 18.5269 13.1587 18.6974 12.9729C18.7872 12.8833 18.7423 12.704 18.6076 12.6592C17.2067 12.2066 16.184 11.3762 15.1229 10.4456C14.9339 10.2799 14.5182 10.0747 14.6578 10.2837C14.8423 10.6522 15.0182 11.0316 15.2048 11.3991C15.3454 11.6761 15.5113 11.9435 15.6452 12.211C16.0941 13.0177 16.4532 13.8693 16.4083 14.8106C16.4083 14.9899 16.6327 15.0795 16.7674 14.9451C17.0815 14.6761 17.3509 14.5865 17.7548 14.6313C17.7828 14.6313 17.8088 14.6456 17.8238 14.6691C18.0383 15.0047 18.258 15.3352 18.481 15.6642C19.1858 16.7041 18.6048 18.0571 17.6302 17.2644C17.5322 17.1847 17.4519 17.0979 17.3957 17.0068C17.314 16.8436 17.1206 16.8661 17.0189 16.973C17.0071 16.9854 16.9895 17.0091 16.9774 17.0212C16.9696 17.029 16.9406 17.0452 16.932 17.0383C16.9041 17.0159 16.8762 17.007 16.8483 16.9901C16.8231 16.9748 16.7963 16.9613 16.7669 16.9606C15.6696 16.935 14.0903 17.4876 13.5378 18.5107C13.4684 18.6392 13.3975 18.7786 13.3408 18.9132C13.0959 19.4952 12.9841 20.145 12.6194 20.6605C11.6595 22.0171 10.9768 23.5403 10.596 25.1556C10.5825 25.213 10.5248 25.2632 10.5121 25.3208C10.5028 25.3626 10.523 25.4136 10.5144 25.4555C10.3419 26.287 10.213 27.1599 10.1693 28.0328C10.0802 31.2798 10.389 36.8661 6.84066 38.5281C6.78706 38.5532 6.72751 38.5658 6.66832 38.5658C6.28225 38.5658 6.86424 38.9925 7.24718 38.9435C7.30775 38.9358 7.36785 38.9265 7.42747 38.9157C9.08676 38.6149 10.4843 37.4239 12.0884 36.9035C14.5906 36.0918 17.0928 35.1967 19.5951 34.3526C21.3007 33.7699 22.9614 33.1424 24.7119 32.6494C25.6811 32.3985 26.6503 32.1189 27.5966 31.7418C27.93 31.609 28.3334 31.8472 28.3925 32.2012C28.4822 32.6046 28.8413 33.0079 29.1106 33.3217C29.7114 34.0931 30.2712 34.8645 30.6723 35.7534C30.7088 35.8343 30.7265 35.9222 30.7265 36.011C30.7265 36.1632 30.9913 36.0999 31.1137 36.0093C31.441 35.7669 31.5485 35.1407 31.6242 34.8008C31.8326 33.8988 32.8916 33.2562 33.8154 33.3174C34.2452 33.3459 34.6646 33.3202 35.0354 33.2321C35.4099 33.1573 34.8962 32.6348 34.6515 32.3416C33.9201 31.4648 33.2621 30.5145 32.3423 29.8257C31.9234 29.4671 31.6755 28.8176 32.0029 28.3739C32.5562 27.6241 33.0435 26.8083 33.5093 25.971C34.407 24.4023 35.4842 22.968 36.4717 21.4441C37.78 19.4996 39.1502 17.5344 40.4705 15.5627C41.6949 13.734 43.8759 12.383 44.3714 10.2388ZM17.7449 13.7908C17.6784 13.9913 17.4351 14.1409 17.2263 14.1729C17.004 14.207 16.7443 14.0856 16.7041 13.8643C16.6325 13.47 16.5093 13.0981 16.3185 12.7488C16.2183 12.4821 16.5426 12.189 16.795 12.3212C17.0637 12.4618 17.3377 12.5877 17.6056 12.6989C17.9016 12.8219 18.0147 13.1885 17.8744 13.4767C17.8248 13.5786 17.7801 13.6845 17.7449 13.7908ZM35.6226 11.8722C35.9975 11.9469 36.337 12.232 36.337 12.6144C36.337 12.9956 35.9916 13.2043 35.6136 13.154C35.2591 13.1068 34.9093 13.0577 34.5417 12.9729C33.8359 12.8617 33.1302 12.7504 32.4244 12.6645C32.1687 12.6334 31.9741 12.4525 31.9319 12.1984C31.8521 11.7177 32.3026 11.0907 32.7765 11.204C33.726 11.431 34.6684 11.682 35.6226 11.8722ZM30.9291 10.9059C30.9436 10.9093 30.9584 10.9112 30.9732 10.9112C31.0421 10.9112 31.1049 10.9501 31.1365 11.0112C31.2535 11.2375 31.3662 11.4382 31.4446 11.6731C31.5067 11.8902 31.5474 12.1074 31.5962 12.3245C31.6291 12.4706 31.5222 12.6053 31.3738 12.5852C31.2619 12.57 31.1653 12.4856 31.1411 12.3752C31.0523 11.9692 30.8674 11.6247 30.6668 11.2729C30.5684 11.1002 30.7296 10.8609 30.9235 10.9047C30.9254 10.9051 30.9273 10.9055 30.9291 10.9059ZM29.6026 10.8621C29.9585 10.8495 30.2719 11.0799 30.4245 11.4016C30.4363 11.4267 30.4482 11.4518 30.4601 11.4768C30.7277 12.0415 30.2595 12.5789 29.6358 12.6171C29.1255 12.6484 28.6466 12.3161 28.3424 11.9051C28.2669 11.803 28.1909 11.7095 28.1232 11.6283C27.9595 11.4104 28.0482 11.0489 28.3167 11.0031C28.7454 10.93 29.174 10.8773 29.6026 10.8621ZM27.0893 11.2142C27.1393 11.1997 27.2076 11.1975 27.2494 11.2285C27.4886 11.4058 27.6937 11.6515 27.8987 11.8972C28.0482 12.0838 28.1666 12.3636 28.3057 12.6073C28.3408 12.6689 28.3033 12.7679 28.2345 12.7852C28.1974 12.7945 28.1601 12.7691 28.1461 12.7336C28.0457 12.4793 27.8439 12.1978 27.7192 12.0317C27.5287 11.7654 27.306 11.5637 27.0783 11.3718C27.013 11.3167 27.0073 11.2381 27.0893 11.2142ZM26.3452 11.4042C26.5575 11.3495 26.7835 11.4086 26.9404 11.5616C27.1351 11.7515 27.3251 11.948 27.4499 12.1661C27.5789 12.338 27.708 12.5098 27.7975 12.6816C27.8052 12.6964 27.8189 12.7134 27.8284 12.7271C27.8687 12.7859 27.8053 12.8504 27.7363 12.8685C27.4154 12.9527 27.0957 13.054 26.7867 13.1818C26.4922 13.3035 26.1461 13.2244 25.9465 12.976C25.937 12.9643 25.9275 12.9525 25.918 12.9408C25.5509 12.4891 25.7816 11.5495 26.3452 11.4042ZM23.904 11.942C24.8374 12.3473 25.5506 13.0457 26.0769 13.9047C26.1526 14.0282 26.0467 14.1922 25.9058 14.2262C25.8067 14.2502 25.7161 14.1974 25.6692 14.1068C25.4012 13.5892 24.8485 13.1222 24.4426 12.8385C24.2415 12.6878 24.0341 12.5559 23.8205 12.4358C23.4261 12.2141 23.4993 11.74 23.904 11.942ZM22.2422 12.1529C22.3549 12.0692 22.4992 12.0664 22.6257 12.1271C23.141 12.374 23.6523 12.6559 24.1284 12.9729C24.4875 13.2419 24.8466 13.5108 25.1159 13.8245C25.1957 13.9308 25.2597 14.0371 25.3267 14.1433C25.4001 14.2598 25.3559 14.4191 25.2421 14.4967C25.1227 14.578 24.9538 14.5544 24.8635 14.4416C24.5161 14.0076 23.9717 13.6433 23.5898 13.3763C23.2285 13.1658 22.8267 12.9352 22.4117 12.7791C22.1273 12.6721 21.9983 12.334 22.2422 12.1529ZM21.4325 13.0509C21.5022 12.9484 21.6446 12.9087 21.7613 12.9502C22.9206 13.3629 23.861 13.8347 24.6499 14.7695C24.7119 14.843 24.7074 14.9513 24.647 15.0262C24.5692 15.1226 24.4258 15.1094 24.3489 15.0122C24.0023 14.5741 23.4362 14.238 23.0063 14.0038C22.574 13.8046 22.1418 13.63 21.6912 13.5346C21.4651 13.4867 21.3026 13.2422 21.4325 13.0509ZM21.0002 13.9089C21.0414 13.8036 21.1514 13.7437 21.2632 13.7606C21.9046 13.8573 22.4779 14.0353 23.0512 14.3624C23.4827 14.6366 23.7771 14.9793 24.1441 15.3007C24.2337 15.3792 24.2432 15.5225 24.1762 15.621C24.082 15.7594 23.873 15.7658 23.7561 15.6461C23.3229 15.2025 22.6903 14.8621 22.2433 14.6761C22.1054 14.6073 21.6765 14.4328 21.241 14.3352C21.0567 14.2939 20.9314 14.0848 21.0002 13.9089ZM21.1212 16.2449C21.2061 15.8209 21.2107 15.2765 20.9829 14.8395C20.9657 14.8065 20.9868 14.7658 21.024 14.7658C21.0275 14.7658 21.0331 14.7662 21.0365 14.7669C21.4384 14.8566 21.7959 14.9906 22.1535 15.1692C22.5297 15.357 22.906 15.5667 23.221 15.8442C23.4806 16.0727 23.584 16.4473 23.5 16.7827C23.4103 17.1413 23.2756 17.455 23.0512 17.7688C22.8658 18.0156 22.6616 18.2341 22.4471 18.4372C22.0408 18.8221 21.3948 18.7267 21.0705 18.2707C20.7303 17.7924 20.8892 17.0614 21.0599 16.4999C21.0848 16.4181 21.1051 16.3329 21.1212 16.2449ZM17.1264 17.6343C17.1264 17.6343 17.167 17.5841 17.1919 17.6059C17.549 17.9188 18.0533 18.0404 18.5179 18.0825C18.5941 18.0889 18.6686 18.0916 18.7412 18.0908C19.3582 18.0836 20.1478 18.1428 20.5121 18.6408C20.8298 19.0753 20.7345 19.6914 20.2674 19.9589C20.0267 20.0967 19.7756 20.2198 19.5053 20.3236C19.1462 20.458 18.7872 20.5029 18.4281 20.5029C18.0862 20.5029 17.7543 20.3069 17.6048 19.9994C17.424 19.6275 17.3094 19.2029 17.2162 18.7997C17.1713 18.4411 17.1264 18.0377 17.1264 17.6343ZM16.1047 17.6188C16.1225 17.4923 16.2391 17.3889 16.3662 17.3771C16.5607 17.3591 16.6928 17.5431 16.6863 17.7383C16.6717 18.1784 16.7328 18.6617 16.7674 18.7997C16.842 19.2471 17.0099 19.9737 17.3226 20.4892C17.405 20.625 17.3479 20.8136 17.1977 20.8654C17.0854 20.9041 16.951 20.8612 16.8973 20.7551C16.6856 20.3364 16.4291 19.9378 16.2736 19.472C16.0711 18.8652 16.0148 18.2585 16.1047 17.6188ZM15.4425 17.5716C15.6431 17.5129 15.8224 17.6839 15.8038 17.892C15.7607 18.3739 15.8111 18.8557 15.9145 19.3375C16.0292 19.7953 16.2088 20.4155 16.5088 20.8387C16.5788 20.9374 16.5307 21.102 16.4253 21.1615C16.3558 21.2006 16.284 21.1726 16.2389 21.1068C15.5446 20.0951 15.3134 19.0773 15.2153 17.8884C15.2033 17.7431 15.3026 17.6125 15.4425 17.5716ZM14.3031 18.1224C14.5442 17.9488 14.8701 18.1451 14.9047 18.4402C14.9557 18.8745 15.0633 19.3142 15.1515 19.6961C15.2687 20.1641 15.4878 20.8017 15.8384 21.2547C15.9181 21.3578 15.9019 21.5104 15.8014 21.5933C15.6917 21.6839 15.5089 21.6851 15.4163 21.5771C15.343 21.4916 15.2697 21.4073 15.1964 21.3096C14.9271 20.9511 14.7475 20.5477 14.6129 20.1443C14.4161 19.5941 14.2884 19.044 14.1691 18.4938C14.1383 18.3517 14.1851 18.2073 14.3031 18.1224ZM13.6703 19.6961C13.5911 19.2611 14.0593 19.3129 14.1693 19.7411C14.231 19.9817 14.3033 20.2199 14.3885 20.458C14.5496 20.9407 14.8553 21.5677 15.2731 21.9505C15.3519 22.0226 15.3712 22.1454 15.3208 22.2396C15.2523 22.3677 15.0759 22.4054 14.9757 22.3002C14.2832 21.5726 13.7924 20.6712 13.6703 19.6961ZM12.4897 21.8943C12.806 21.35 13.7392 21.3914 14.1042 21.9044C14.3074 22.1898 14.2999 22.5771 14.0871 22.8554C13.8928 23.1094 13.7218 23.3684 13.5661 23.6401C13.5278 23.707 13.4202 23.7433 13.3629 23.6916C13.3589 23.688 13.3539 23.6835 13.3496 23.6802C13.2193 23.5813 13.1127 23.4591 13.0123 23.3485C12.9438 23.273 12.8773 23.1954 12.8183 23.1123C12.6977 22.9427 12.5789 22.7715 12.4688 22.5915C12.3421 22.3842 12.3553 22.125 12.4776 21.9151C12.4816 21.9082 12.4857 21.9012 12.4897 21.8943ZM12.1447 22.6749C12.1498 22.5526 12.3101 22.5566 12.3661 22.6654C12.4795 22.8858 12.615 23.1062 12.7726 23.3266C12.8952 23.5306 13.0921 23.7717 13.3296 23.9486C13.3696 23.9784 13.3822 24.0357 13.3657 24.0828C13.3418 24.1508 13.2588 24.1597 13.2086 24.108C13.0281 23.9222 12.7868 23.7365 12.638 23.5507C12.4182 23.2873 12.2414 23.0239 12.1499 22.7185C12.1461 22.7057 12.1442 22.6883 12.1447 22.6749ZM11.5878 23.6814C11.6943 23.4428 12.0771 23.4315 12.234 23.6403C12.2914 23.7091 12.3546 23.7895 12.423 23.8742C12.7675 24.3011 12.9632 24.9247 12.7891 25.4449C12.5939 26.028 11.9788 26.3091 11.5171 25.9029C11.4829 25.8729 11.4488 25.8428 11.4144 25.8129C11.1383 25.5722 10.996 25.1934 11.1172 24.8477C11.2549 24.4546 11.417 24.0641 11.5878 23.6814ZM10.8074 26.249C10.8204 26.2129 10.8478 26.1755 10.8558 26.1379C10.8567 26.1338 10.8575 26.1296 10.8584 26.1255C10.8973 25.9349 11.1045 25.8628 11.2419 26.0005C11.5589 26.3181 11.8535 26.6288 12.263 26.8411C12.3465 26.8844 12.3897 26.9808 12.3668 27.0721C12.3341 27.2024 12.1818 27.2912 12.0607 27.233C11.8624 27.1376 11.6561 27.0355 11.471 26.9123C11.2674 26.7497 11.0639 26.5871 10.8604 26.3911C10.8199 26.3521 10.7883 26.3019 10.8074 26.249ZM10.6499 28.0214C10.6773 27.5212 11.368 27.2818 11.8193 27.4994C12.0697 27.6201 12.2022 27.8725 12.1598 28.1473C12.0526 28.8412 11.9564 29.5351 11.9198 30.229C11.8919 30.5909 11.8468 30.9527 11.795 31.3038C11.7415 31.6671 11.4233 31.9315 11.067 31.8426C10.69 31.7485 10.5066 31.3195 10.5294 30.9316C10.5854 29.9775 10.5965 28.9978 10.6499 28.0214ZM11.067 34.8008C10.6905 35.8661 9.85928 35.0949 10.1263 33.9969C10.2775 33.3751 10.3788 32.7627 10.4386 32.2012C10.4386 32.0387 10.6164 31.9707 10.765 32.0362C10.8598 32.0779 10.9578 32.1132 11.0572 32.1409C11.3709 32.2282 11.6487 32.5171 11.5898 32.8374C11.4671 33.505 11.306 34.1529 11.067 34.8008ZM28.4395 29.9837C28.3109 30.654 27.9205 31.2683 27.2808 31.5064C26.2552 31.888 25.2044 32.1567 24.1284 32.4253C22.3779 32.8735 20.6723 33.5906 18.9218 34.1733C17.1136 34.7752 15.2719 35.327 13.458 35.9408C12.5967 36.2323 11.4405 34.8668 11.6954 33.994C12.234 32.2012 12.3687 30.3187 12.638 28.481C12.9214 26.5404 13.4969 24.8551 14.4305 23.1619C14.5772 22.8959 14.9628 22.8691 15.1777 23.0839C15.192 23.0981 15.202 23.1112 15.2163 23.1255C15.3559 23.2648 15.6004 23.094 15.6004 22.9232C15.7328 21.7772 16.9939 21.4981 17.8894 21.1055C17.9192 21.0924 17.9546 21.0834 17.9776 21.1064C18.003 21.1315 18.0409 21.1432 18.0766 21.1422C18.0932 21.1418 18.1099 21.1376 18.1265 21.1306C18.2521 21.0774 18.3723 21.007 18.5086 21.0078C18.8632 21.0099 19.2529 20.9357 19.5502 20.8614C20.6671 20.564 22.0562 20.6171 22.7558 21.5372C23.232 22.1635 23.7087 22.7899 24.1733 23.4162C25.38 24.9977 26.6817 26.516 27.9986 28.0241C28.4599 28.5525 28.5716 29.2948 28.4395 29.9837ZM29.1105 31.6784C29.1087 31.8893 28.8742 31.9055 28.8641 31.6949C28.8571 31.5481 28.8637 31.4012 28.8775 31.2544C28.8827 31.1999 28.9141 31.1491 28.9192 31.0946C28.9258 31.024 28.8893 30.9502 28.8967 30.8797C28.9288 30.5696 28.9836 30.2596 29.0008 29.9496C29.0089 29.8032 29.2388 29.7219 29.3394 29.8287C29.3673 29.8583 29.3783 29.8938 29.375 29.9343C29.3264 30.5318 29.1998 31.0897 29.1131 31.6472C29.1114 31.6579 29.1106 31.6676 29.1105 31.6784ZM29.438 33.0255C29.4308 33.016 29.4206 33.0037 29.4122 32.9953C29.4081 32.9912 29.404 32.9871 29.4 32.9828C29.3148 32.8949 29.3098 32.7637 29.3322 32.6433C29.4158 32.1939 29.3909 31.6924 29.4697 31.2599C29.4915 31.0641 29.5239 30.8682 29.5514 30.6723C29.5836 30.4437 29.8532 30.3559 30.0041 30.5308C30.0608 30.5965 30.0875 30.6835 30.0721 30.7689C29.9992 31.1716 29.9589 31.5743 29.9185 31.9771C29.8607 32.2657 29.8029 32.573 29.7811 32.8869C29.7664 33.0975 29.5643 33.1945 29.438 33.0255ZM30.2695 33.7409C30.2534 33.8367 30.082 33.8778 30.0215 33.8017C29.9886 33.7603 29.9546 33.7207 29.9202 33.6838C29.9034 33.6656 29.9152 33.6224 29.9181 33.5978C29.9184 33.5951 29.9189 33.5893 29.9197 33.5868C30.0766 33.0537 30.2333 32.4331 30.2977 31.817C30.3231 31.5737 30.6525 31.451 30.7922 31.6519C30.8338 31.7117 30.8504 31.7935 30.8294 31.8633C30.6933 32.3138 30.4919 32.7346 30.3674 33.2321C30.3411 33.3893 30.2995 33.5619 30.2695 33.7409ZM31.1753 34.3078C31.1312 34.6604 31.0436 34.9697 30.9126 35.2783C30.9083 35.2885 30.9071 35.2892 30.9054 35.3002C30.9003 35.3327 30.8528 35.319 30.8394 35.289C30.7785 35.1517 30.7094 35.0145 30.636 34.8772C30.4805 34.5865 30.5214 34.2252 30.6009 33.9052C30.6551 33.687 30.6773 33.4528 30.7265 33.2321C30.7945 32.8925 30.8625 32.5786 30.95 32.2515C30.9856 32.1186 31.153 32.0907 31.2331 32.2026C31.3025 32.2994 31.3766 32.397 31.4606 32.4853C31.4711 32.4964 31.4895 32.5349 31.4895 32.5502C31.4895 32.5525 31.4891 32.5608 31.4882 32.5629C31.2651 33.1002 31.2649 33.771 31.1753 34.3078ZM34.0522 32.4315C34.1586 32.5462 34.0486 32.7483 33.8937 32.7273C33.6641 32.6961 33.4377 32.6584 33.1951 32.6046C32.7705 32.5198 32.3861 32.3548 31.9659 32.3372C31.921 32.3353 31.8776 32.3089 31.8537 32.2709C31.7789 32.1514 31.9367 31.9328 32.0723 31.9714C32.1881 32.0044 32.3074 32.0356 32.4321 32.0667C32.9032 32.195 33.4561 32.3641 33.9347 32.3793C33.9785 32.3807 34.0224 32.3994 34.0522 32.4315ZM33.103 31.2607C33.2691 31.4807 33.0527 31.84 32.7912 31.753C32.2409 31.6262 31.7306 31.4197 31.1849 31.2462C31.1202 31.2256 31.0621 31.1874 31.0194 31.1345C30.8141 30.8808 31.0642 30.5283 31.3866 30.5789C31.4061 30.582 31.4254 30.5849 31.4446 30.5876C31.9498 30.7137 32.4154 30.8792 32.8786 31.0472C32.9386 31.069 32.9904 31.1085 33.0281 31.16C33.053 31.194 33.078 31.2275 33.103 31.2607ZM31.8197 30.1534C31.9859 30.2535 31.8773 30.4446 31.6861 30.4112C31.6751 30.4093 31.6637 30.4064 31.6532 30.4026C31.1877 30.2339 30.6828 30.0664 30.1761 30.0123C30.1265 30.0071 30.0794 29.9797 30.0484 29.9407C29.942 29.8066 30.0693 29.6103 30.2379 29.6398C30.344 29.6584 30.4485 29.6748 30.5469 29.6912C31.0238 29.7752 31.4481 29.9293 31.8197 30.1534ZM36.5166 20.8166C35.4842 22.3405 34.3621 23.7748 33.4644 25.3884C32.9329 26.3562 32.4014 27.3023 31.7637 28.1813C31.2435 28.8982 30.297 29.259 29.47 28.9417C29.1895 28.8341 28.9687 28.6305 28.7773 28.3989C27.4709 26.8183 26.0974 25.2712 24.8017 23.6852C24.2208 22.9842 23.679 22.2311 23.1552 21.461C22.4482 20.4214 22.9526 18.9674 23.5449 17.8584C23.68 17.6223 23.8406 17.3101 23.95 16.9981C24.0115 16.8228 24.2182 16.6547 24.2182 16.469C24.2182 16.411 24.2385 16.355 24.2746 16.3097C24.8821 15.5487 25.4651 14.4574 26.5971 14.6313C26.7766 14.6761 27.001 14.4968 26.8664 14.2727C26.7271 13.9946 26.8319 13.6454 27.1343 13.5725C29.005 13.1209 30.7665 12.9998 32.7463 13.2419C34.5865 13.466 36.4717 13.8245 38.312 13.7797C39.2517 13.7406 40.223 15.1722 39.6958 15.9511C38.6062 17.5611 37.5955 19.2144 36.5166 20.8166ZM39.2545 13.3763C38.5723 13.4104 37.89 13.3927 37.2078 13.3429C36.881 13.319 36.6567 12.9748 36.6447 12.6474C36.6403 12.5259 36.6274 12.403 36.609 12.2835C36.5889 12.1535 36.6824 12.0682 36.8137 12.076C36.8252 12.0767 36.8363 12.0775 36.8477 12.0794C37.4205 12.1759 38.0554 12.2427 38.7115 12.26C39.8265 12.2895 40.368 13.3128 39.2545 13.3763Z" fill="white"/>
<path d="M44.82 11.5386C44.8911 11.3257 44.5296 11.5405 44.4012 11.7246C44.2581 11.93 44.1235 12.1268 43.9672 12.3454C43.7428 12.6592 43.4286 12.9729 43.2042 13.2866C43.1144 13.4211 43.2939 13.5108 43.3837 13.4659C44.1018 13.1074 44.5956 12.2558 44.82 11.5386Z" fill="white"/>
<path d="M15.0299 13.2389C15.0507 13.3005 15.0758 13.374 15.1388 13.3899C15.2616 13.4208 15.2394 13.2222 15.2258 13.0963C15.1372 12.2805 14.7307 11.4978 14.3168 10.774C14.2154 10.5965 13.8922 10.4145 13.9837 10.5973C14.3744 11.4644 14.7231 12.3314 15.0299 13.2389Z" fill="white"/>
<path d="M33.7336 29.736C33.6887 29.6015 33.5091 29.6463 33.554 29.7808C33.7336 30.2738 33.958 30.9013 34.4068 31.2599C34.5032 31.3562 34.5186 31.1032 34.4524 30.9841C34.373 30.8413 34.2777 30.7145 34.1824 30.5876C33.958 30.3186 33.8233 30.0497 33.7336 29.736Z" fill="white"/>
<path d="M9.18193 28.2121C9.31659 26.733 9.58589 25.2987 10.3938 24.0438C10.4642 23.9031 10.211 24.0616 10.1218 24.1911C9.35403 25.3067 8.92155 26.6621 8.98696 28.0301C8.99398 28.1768 9.18193 28.359 9.18193 28.2121Z" fill="white"/>
<path d="M9.55954 39.3141C9.512 39.2958 9.47466 39.3427 9.43257 39.3714C9.16957 39.5506 8.87824 39.6975 8.58351 39.7873C8.50397 39.8115 8.39523 39.8472 8.41811 39.9271C8.44099 40.007 8.54905 39.9918 8.62933 39.9702C8.95448 39.8829 9.27081 39.7343 9.50741 39.5006C9.56124 39.4474 9.63016 39.3413 9.55954 39.3141Z" fill="white"/>
<path d="M35.943 24.2271C35.8987 24.1819 35.865 24.2496 35.8254 24.299C35.4753 24.7359 35.1902 25.1729 34.8764 25.6098C34.8323 25.6713 34.7776 25.7667 34.8462 25.7986C34.9113 25.8288 34.9656 25.7625 35.0082 25.7047C35.3355 25.261 35.6907 24.8173 35.9428 24.3736C35.9655 24.3337 35.9752 24.2598 35.943 24.2271Z" fill="white"/>
</svg>
