<svg width="21" height="21" viewBox="0 0 21 21" fill="none" xmlns="http://www.w3.org/2000/svg">
<path d="M10.808 0.43758C14.9615 0.468267 18.6653 3.05553 20.1175 6.94137C21.5699 10.8276 20.4687 15.2056 17.3497 17.9454C14.2312 20.6848 9.74294 21.2179 6.06788 19.2855L6.02208 19.2694C6.01493 19.2653 6.01378 19.2617 6.01224 19.2569L5.32971 18.8707C5.1907 18.8138 5.03665 18.8046 4.94261 18.8284C4.2331 19.0835 3.50798 19.2929 2.77167 19.4555L2.63671 19.4718C1.82616 19.4898 1.41776 18.9638 1.41776 18.1984L1.4373 18.0345C1.62136 17.2732 1.85204 16.524 2.11458 15.8302C2.15531 15.6988 2.14175 15.5567 2.07147 15.425L1.88765 15.0667C0.262883 11.9602 0.385411 8.23108 2.21059 5.2376C4.03554 2.24451 7.29635 0.423629 10.808 0.43758ZM10.7984 1.83213L10.5175 1.83653C7.60494 1.91986 4.92338 3.46871 3.40196 5.96399C1.83168 8.53941 1.72627 11.7474 3.12662 14.4249L3.30755 14.7777C3.54818 15.228 3.59853 15.7558 3.43389 16.2826C3.17804 16.9621 2.96419 17.6567 2.79356 18.3624L2.888 17.9945L3.28273 17.8916C3.41823 17.8543 3.55406 17.815 3.6906 17.7736L4.10272 17.643L4.52133 17.4992C4.96354 17.3774 5.4337 17.4056 5.89685 17.5965C5.99408 17.6434 6.11471 17.7085 6.26677 17.7944L6.68909 18.0368C6.69625 18.0387 6.70251 18.0404 6.70729 18.0417L6.69496 18.0401L6.98269 18.1843C10.0082 19.6451 13.6126 19.2155 16.2087 17.0841L16.4288 16.8971C19.1126 14.5396 20.06 10.7732 18.8105 7.42985C17.5609 4.08611 14.3731 1.85932 10.7984 1.83213ZM6.36596 9.29707C6.99606 9.29707 7.50732 9.8075 7.50732 10.4377C7.50732 11.0679 6.99606 11.5783 6.36596 11.5783C5.73586 11.5783 5.2246 11.0679 5.2246 10.4377C5.2246 9.8075 5.73586 9.29707 6.36596 9.29707ZM10.8028 9.29707C11.4329 9.29707 11.9442 9.8075 11.9442 10.4377C11.9442 11.0679 11.4329 11.5783 10.8028 11.5783C10.1727 11.5783 9.66148 11.0679 9.66148 10.4377C9.66148 9.8075 10.1727 9.29707 10.8028 9.29707ZM15.2397 9.29707C15.8698 9.29707 16.3811 9.8075 16.3811 10.4377C16.3811 11.0679 15.8698 11.5783 15.2397 11.5783C14.6096 11.5783 14.0984 11.0679 14.0984 10.4377C14.0984 9.8075 14.6096 9.29707 15.2397 9.29707Z" fill="#87C259"/>
</svg>
