<svg width="17" height="17" viewBox="0 0 17 17" fill="none" xmlns="http://www.w3.org/2000/svg">
<g clip-path="url(#clip0)">
<path d="M8.50391 16.0645C12.9222 16.0645 16.5039 12.4827 16.5039 8.06445C16.5039 3.64617 12.9222 0.0644531 8.50391 0.0644531C4.08563 0.0644531 0.503906 3.64617 0.503906 8.06445C0.503906 12.4827 4.08563 16.0645 8.50391 16.0645Z" fill="#F0F0F0"/>
<path d="M16.0063 10.8469C16.3279 9.98027 16.5039 9.04289 16.5039 8.06433C16.5039 7.08577 16.3279 6.14839 16.0063 5.28174H1.0015C0.679938 6.14839 0.503906 7.08577 0.503906 8.06433C0.503906 9.04289 0.679938 9.98027 1.0015 10.8469L8.50391 11.5426L16.0063 10.8469Z" fill="#0052B4"/>
<path d="M8.50631 16.0646C11.946 16.0646 14.8784 13.8936 16.0087 10.8472H1.00391C2.13425 13.8936 5.06659 16.0646 8.50631 16.0646Z" fill="#D80027"/>
</g>
<defs>
<clipPath id="clip0">
<rect width="16" height="16" fill="white" transform="translate(0.503906 0.0644531)"/>
</clipPath>
</defs>
</svg>
