<svg width="25" height="25" viewBox="0 0 25 25" fill="none" xmlns="http://www.w3.org/2000/svg">
<g clip-path="url(#clip0)">
<path d="M21.4394 0.393458L21.4154 0.327359C21.3793 0.22757 21.305 0.146274 21.2088 0.101231C21.1127 0.0561884 21.0027 0.0512447 20.9031 0.0874985L18.5594 0.940195C18.3541 1.01545 18.2474 1.24139 18.3195 1.44775L13.2348 3.29889C13.135 3.33496 13.0538 3.4093 13.0087 3.50543C12.9637 3.60155 12.9587 3.7116 12.9948 3.81139L13.1281 4.17777L5.70302 6.88087C5.60323 6.91694 5.52194 6.99128 5.47689 7.08723C5.43185 7.18335 5.42691 7.2934 5.46298 7.39319L5.59664 7.75957L2.88914 8.74391L0.840071 9.07844C0.722338 9.09748 0.619253 9.16797 0.55883 9.27069C0.49859 9.3736 0.487238 9.49792 0.528069 9.60998L1.33792 11.8359C1.37838 11.9476 1.46627 12.0355 1.57796 12.0758C1.62099 12.091 1.66622 12.0989 1.71199 12.099C1.78413 12.099 1.85481 12.0796 1.9167 12.0426L3.70064 10.9807L6.40942 9.99467L6.54254 10.3611C6.57879 10.4608 6.65295 10.5423 6.74907 10.5874C6.8452 10.6322 6.95524 10.6374 7.05503 10.6011L9.2797 9.79106V11.2639C9.2797 11.9266 9.81691 12.4638 10.4797 12.4638V13.2639H9.67977C8.79613 13.2639 8.07984 13.9802 8.07984 14.8638C8.08186 14.9395 8.08955 15.0149 8.10255 15.0894C8.09614 15.1026 8.08497 15.1125 8.07984 15.1266L5.75228 21.5144C5.60543 21.9172 5.68471 22.368 5.96028 22.6965C6.23566 23.0252 6.66558 23.1819 7.08799 23.1076C7.51022 23.0332 7.86086 22.7393 8.0077 22.3363L10.1437 16.4638H10.4797V22.8635C10.4797 23.5263 11.0169 24.0635 11.6796 24.0635C12.3424 24.0635 12.8796 23.5263 12.8796 22.8635V16.4638H13.2156L15.352 22.3367C15.5249 22.8108 15.9749 23.1268 16.4796 23.1288C16.6193 23.1286 16.7577 23.1037 16.8888 23.0552C17.1885 22.9464 17.4328 22.7229 17.5679 22.4339C17.7028 22.145 17.7175 21.8141 17.6087 21.5144L15.2795 15.1266C15.2744 15.1125 15.2632 15.1026 15.2568 15.0894C15.2698 15.0149 15.2775 14.9395 15.2795 14.8638C15.2795 13.9802 14.5632 13.2639 13.6796 13.2639H12.8796V12.4638C13.5423 12.4638 14.0797 11.9266 14.0797 11.2639V8.04392L14.4828 7.89726L14.6332 8.3096C14.6907 8.46743 14.8406 8.57272 15.0087 8.57272C15.0556 8.57272 15.1019 8.56466 15.146 8.54873L20.2393 6.69484C20.3298 6.87227 20.5385 6.95411 20.7255 6.88563L23.0657 6.03404C23.1654 5.99796 23.2469 5.92363 23.2918 5.8275C23.3368 5.73155 23.3418 5.62151 23.3057 5.52172L23.2793 5.45526C24.3353 4.74703 24.7624 3.40326 24.3089 2.2153C23.8935 1.01398 22.7035 0.258331 21.4394 0.393458ZM1.92439 11.1079L1.4443 9.79033L2.72435 9.58233L3.03983 10.444L1.92439 11.1079ZM6.13734 9.24323L3.76821 10.104L3.50198 9.37158L5.87056 8.50918L5.96467 8.7668L6.13734 9.24323ZM7.25571 22.0635C7.21946 22.165 7.14384 22.2475 7.04588 22.2924C6.9514 22.3371 6.84282 22.3417 6.74504 22.3052C6.64434 22.2684 6.56231 22.1933 6.51709 22.0963C6.47186 22.0002 6.4671 21.8898 6.5039 21.79L8.59966 16.0366C8.79998 16.2219 9.04441 16.3526 9.30972 16.4162L7.25571 22.0635ZM12.0797 22.8635C12.0797 23.0845 11.9006 23.2636 11.6796 23.2636C11.4588 23.2636 11.2797 23.0845 11.2797 22.8635V16.4638H12.0797V22.8635ZM16.8555 21.7889C16.8923 21.8885 16.8875 21.9989 16.8423 22.0952C16.7967 22.1926 16.7143 22.2679 16.613 22.3043C16.5154 22.34 16.4076 22.3352 16.3135 22.2911C16.2159 22.2464 16.1403 22.1644 16.1035 22.0635L14.0496 16.4162C14.3149 16.3526 14.5594 16.2219 14.7595 16.0366L16.8555 21.7889ZM14.4796 14.8638C14.4796 15.3057 14.1214 15.6638 13.6796 15.6638H9.67977C9.23795 15.6638 8.87981 15.3057 8.87981 14.8638C8.87981 14.422 9.23795 14.0639 9.67977 14.0639H13.6796C14.1214 14.0639 14.4796 14.422 14.4796 14.8638ZM12.0797 13.2639H11.2797V12.4638H12.0797V13.2639ZM13.2797 11.2639C13.2797 11.4847 13.1004 11.6638 12.8796 11.6638H10.4797C10.2587 11.6638 10.0797 11.4847 10.0797 11.2639V9.49993L13.2797 8.33524V11.2639ZM7.15977 9.71196L7.02665 9.34631L6.48669 7.86247L6.35376 7.49719L13.404 4.93086L14.2091 7.14399L7.15977 9.71196ZM15.2488 7.66033L13.8845 3.91374L18.5938 2.19974L18.7983 2.75984L18.8822 2.99128L17.1307 3.69255C16.9254 3.77477 16.8258 4.00767 16.9078 4.21292C16.99 4.41818 17.2231 4.51797 17.4282 4.43576L19.1563 3.74419L19.9563 5.94413L15.2488 7.66033ZM20.8274 5.99723L19.2107 1.55742L20.7994 0.976632L22.4162 5.41919L20.8274 5.99723ZM22.9944 4.67012L21.7241 1.17896C22.5524 1.17951 23.2892 1.70519 23.5593 2.48812C23.8552 3.26154 23.6285 4.13749 22.9944 4.67012Z" fill="#7899F4"/>
<path d="M12.0812 10.465C12.0812 10.6859 11.9022 10.8649 11.6812 10.8649C11.4603 10.8649 11.2812 10.6859 11.2812 10.465C11.2812 10.244 11.4603 10.0649 11.6812 10.0649C11.9022 10.0649 12.0812 10.244 12.0812 10.465Z" fill="#7899F4"/>
</g>
<defs>
<clipPath id="clip0">
<rect width="24" height="24" fill="white" transform="translate(0.503906 0.0644531)"/>
</clipPath>
</defs>
</svg>
