<svg width="25" height="25" viewBox="0 0 25 25" fill="none" xmlns="http://www.w3.org/2000/svg">
<g clip-path="url(#clip0)">
<path d="M6.10301 19.2643H12.1028C12.3238 19.2643 12.5028 19.0852 12.5028 18.8642C12.5028 18.6434 12.3238 18.4644 12.1028 18.4644H6.10301C5.88219 18.4644 5.70312 18.6434 5.70312 18.8642C5.70312 19.0852 5.88219 19.2643 6.10301 19.2643Z" fill="#87C259"/>
<path d="M14.103 19.2643H15.303C15.5238 19.2643 15.7029 19.0852 15.7029 18.8642C15.7029 18.6434 15.5238 18.4644 15.303 18.4644H14.103C13.8822 18.4644 13.7031 18.6434 13.7031 18.8642C13.7031 19.0852 13.8822 19.2643 14.103 19.2643Z" fill="#87C259"/>
<path d="M17.3061 19.2643H19.7062C19.927 19.2643 20.106 19.0852 20.106 18.8642C20.106 18.6434 19.927 18.4644 19.7062 18.4644H17.3061C17.0853 18.4644 16.9062 18.6434 16.9062 18.8642C16.9062 19.0852 17.0853 19.2643 17.3061 19.2643Z" fill="#87C259"/>
<path d="M6.10301 20.8644H12.1028C12.3238 20.8644 12.5028 20.6853 12.5028 20.4643C12.5028 20.2435 12.3238 20.0645 12.1028 20.0645H6.10301C5.88219 20.0645 5.70312 20.2435 5.70312 20.4643C5.70312 20.6853 5.88219 20.8644 6.10301 20.8644Z" fill="#87C259"/>
<path d="M14.103 20.8644H15.303C15.5238 20.8644 15.7029 20.6853 15.7029 20.4643C15.7029 20.2435 15.5238 20.0645 15.303 20.0645H14.103C13.8822 20.0645 13.7031 20.2435 13.7031 20.4643C13.7031 20.6853 13.8822 20.8644 14.103 20.8644Z" fill="#87C259"/>
<path d="M17.3061 20.8644H19.7062C19.927 20.8644 20.106 20.6853 20.106 20.4643C20.106 20.2435 19.927 20.0645 19.7062 20.0645H17.3061C17.0853 20.0645 16.9062 20.2435 16.9062 20.4643C16.9062 20.6853 17.0853 20.8644 17.3061 20.8644Z" fill="#87C259"/>
<path d="M8.47561 6.7334L5.00042 7.45334C4.71094 7.51285 4.50331 7.76772 4.50331 8.06324C4.50331 8.35876 4.71094 8.61363 5.00042 8.67332L8.53639 9.40754L7.72198 12.1743C7.65771 12.3929 7.71795 12.6291 7.87907 12.7904C8.0402 12.9516 8.2764 13.012 8.4952 12.9479L11.1862 12.1595L11.8305 15.2646H4.90411C3.68249 15.265 2.51616 15.7731 1.6838 16.6672C0.851436 17.5612 0.428116 18.7611 0.515087 19.9796C0.721437 22.3111 2.6879 24.0908 5.02843 24.0641H23.7033C24.1451 24.0641 24.5032 23.706 24.5032 23.2642V22.4642C24.5032 22.0224 24.1451 21.6643 23.7033 21.6643H23.3032V17.6645H23.7033C24.1451 17.6645 24.5032 17.3064 24.5032 16.8645V16.0646C24.5032 15.6228 24.1451 15.2646 23.7033 15.2646H13.1764L13.8213 12.1611L16.5123 12.9494C16.5692 12.966 16.6282 12.9746 16.6875 12.9746C16.8842 12.9746 17.0691 12.8818 17.1868 12.7243C17.3046 12.5671 17.3412 12.3633 17.2855 12.1747L16.4711 9.40809L20.0071 8.67369C20.2965 8.614 20.5042 8.35912 20.5042 8.0636C20.5042 7.76809 20.2965 7.5134 20.0071 7.45371L16.5319 6.73377L17.2859 4.16308C17.35 3.94447 17.2897 3.70827 17.1286 3.54733C16.9675 3.38639 16.7313 3.32615 16.5128 3.39023L13.8636 4.1662L13.1136 0.561562C13.0541 0.272085 12.7993 0.0644531 12.5037 0.0644531C12.2082 0.0644531 11.9534 0.272085 11.8938 0.561562L11.1439 4.1662L8.49465 3.38987C8.27621 3.32596 8.0402 3.3862 7.87926 3.54715C7.71813 3.70809 7.65771 3.9441 7.72161 4.16272L8.47561 6.7334ZM22.5032 21.6643H4.9865C3.96006 21.6853 3.0768 20.943 2.92098 19.9283C2.84573 19.357 3.02041 18.781 3.40015 18.3474C3.77989 17.9141 4.3279 17.6652 4.90411 17.6645H22.5032V21.6643ZM23.7033 16.8645H4.90411C4.09775 16.8644 3.33057 17.2119 2.79886 17.8181C2.26714 18.4242 2.02271 19.2302 2.12781 20.0296C2.33489 21.4434 3.55761 22.4849 4.9865 22.4642H23.7033V23.2642H5.02843C3.10738 23.2927 1.48825 21.8369 1.31302 19.9235C1.24107 18.9262 1.58712 17.9441 2.26824 17.2121C2.94936 16.48 3.90422 16.0644 4.90411 16.0646H23.7033V16.8645ZM10.9839 4.95187L10.9099 5.30781C10.8788 5.44843 10.9258 5.5949 11.0329 5.6914C11.14 5.78771 11.2905 5.81902 11.4273 5.77324C11.5639 5.72765 11.6653 5.61193 11.693 5.47058L12.5037 1.55871L13.3161 5.47058C13.3438 5.61193 13.4452 5.72765 13.5818 5.77324C13.7184 5.81902 13.8691 5.78771 13.9762 5.6914C14.0833 5.5949 14.1302 5.44843 14.0993 5.30781L14.0253 4.95187L16.4251 4.24822L15.7451 6.57008L15.2595 6.46938C15.1189 6.43825 14.9724 6.48531 14.8761 6.59242C14.7798 6.69953 14.7485 6.85022 14.7941 6.98681C14.8399 7.1234 14.9554 7.22484 15.0968 7.25248L19.0099 8.06489L15.8575 8.71964H15.8491L15.098 8.87564C14.8976 8.91739 14.761 9.10378 14.7817 9.30738C14.8022 9.51117 14.9734 9.66644 15.1781 9.66717C15.205 9.66699 15.2317 9.66424 15.2581 9.65875L15.6823 9.57086L16.4235 12.0906L13.9837 11.3751L14.0985 10.822C14.1295 10.6813 14.0824 10.5349 13.9753 10.4384C13.8682 10.3421 13.7177 10.3108 13.5811 10.3565C13.4443 10.4021 13.3429 10.5178 13.3152 10.6592L13.1325 11.5392V11.5439L12.5037 14.5711L11.8757 11.547C11.8757 11.547 11.8757 11.5439 11.8757 11.5423L11.693 10.6623C11.6653 10.521 11.5639 10.4054 11.4273 10.3596C11.2905 10.3141 11.14 10.3454 11.0329 10.4417C10.9258 10.538 10.8788 10.6845 10.9099 10.8251L11.0247 11.3784L8.58473 12.0939L9.32591 9.57397L9.75033 9.66204C9.77724 9.66754 9.80471 9.67028 9.83217 9.67047C10.0371 9.66955 10.2081 9.51428 10.2288 9.31068C10.2493 9.10689 10.1127 8.9205 9.91219 8.87875L9.16112 8.72276H9.1527L5.99757 8.06489L9.90944 7.25248C10.0508 7.22484 10.1665 7.1234 10.2121 6.98681C10.2579 6.85022 10.2266 6.69953 10.1303 6.59242C10.0338 6.48531 9.88728 6.43825 9.74667 6.46938L9.26109 6.57008L8.58107 4.24822L10.9839 4.95187Z" fill="#87C259"/>
<path d="M0.720693 3.42063L2.3206 4.24713L3.14691 5.84703C3.21558 5.98014 3.35272 6.06382 3.50249 6.06382C3.65226 6.06382 3.78959 5.98014 3.85806 5.84703L4.68457 4.24713L6.28447 3.42063C6.41758 3.35215 6.50126 3.21482 6.50126 3.06505C6.50126 2.91528 6.41758 2.77814 6.28447 2.70948L4.68457 1.88316L3.85806 0.283255C3.78263 0.159115 3.64787 0.0834961 3.50249 0.0834961C3.35729 0.0834961 3.22253 0.159115 3.14691 0.283255L2.3206 1.88316L0.720693 2.70948C0.587582 2.77814 0.503906 2.91528 0.503906 3.06505C0.503906 3.21482 0.587582 3.35215 0.720693 3.42063ZM2.80068 2.53553C2.87447 2.49763 2.93471 2.43739 2.97261 2.36361L3.50377 1.33753L4.03329 2.36361C4.07119 2.43739 4.13143 2.49763 4.2054 2.53553L5.23129 3.06505L4.2054 3.59475C4.13143 3.63265 4.07119 3.69271 4.03329 3.76668L3.50377 4.79257L2.97425 3.76668C2.93635 3.69271 2.87611 3.63265 2.80214 3.59475L1.77625 3.06505L2.80068 2.53553Z" fill="#87C259"/>
<path d="M18.7207 3.42063L20.3206 4.24713L21.1469 5.84703C21.2156 5.98014 21.3527 6.06382 21.5025 6.06382C21.6523 6.06382 21.7896 5.98014 21.8581 5.84703L22.6846 4.24713L24.2845 3.42063C24.4176 3.35215 24.5012 3.21482 24.5012 3.06505C24.5012 2.91528 24.4176 2.77814 24.2845 2.70948L22.6846 1.88316L21.8581 0.283255C21.7826 0.159115 21.6479 0.0834961 21.5025 0.0834961C21.3573 0.0834961 21.2225 0.159115 21.1469 0.283255L20.3206 1.88316L18.7207 2.70948C18.5876 2.77814 18.5039 2.91528 18.5039 3.06505C18.5039 3.21482 18.5876 3.35215 18.7207 3.42063ZM20.8007 2.53553C20.8745 2.49763 20.9347 2.43739 20.9726 2.36361L21.5038 1.33753L22.0333 2.36361C22.0712 2.43739 22.1314 2.49763 22.2054 2.53553L23.2313 3.06505L22.2054 3.59475C22.1314 3.63265 22.0712 3.69271 22.0333 3.76668L21.5038 4.79257L20.9742 3.76668C20.9363 3.69271 20.8761 3.63265 20.8021 3.59475L19.7762 3.06505L20.8007 2.53553Z" fill="#87C259"/>
</g>
<defs>
<clipPath id="clip0">
<rect width="24" height="24" fill="white" transform="translate(0.503906 0.0644531)"/>
</clipPath>
</defs>
</svg>
