<svg width="25" height="25" viewBox="0 0 25 25" fill="none" xmlns="http://www.w3.org/2000/svg">
<g clip-path="url(#clip0)">
<path d="M12.0933 14.0162V15.2511C12.0933 15.4719 12.2723 15.6508 12.4931 15.6508C12.7137 15.6508 12.8926 15.4719 12.8926 15.2511V14.0162C13.0411 13.9911 13.1865 13.952 13.3275 13.8995L13.9455 14.9689C14.0163 15.0937 14.1486 15.1707 14.292 15.1711C14.4354 15.1715 14.568 15.0949 14.6395 14.9706C14.7109 14.8462 14.7103 14.6931 14.6378 14.5694L14.021 13.5009C14.1372 13.4044 14.2442 13.2974 14.3407 13.1812L15.4092 13.798C15.5329 13.8705 15.686 13.8711 15.8104 13.7997C15.9346 13.7282 16.0113 13.5956 16.0109 13.4522C16.0105 13.3088 15.9335 13.1765 15.8087 13.1057L14.7393 12.4877C14.7914 12.3471 14.8303 12.2016 14.8552 12.0538H16.0902C16.3109 12.0538 16.4899 11.8748 16.4899 11.654C16.4899 11.4332 16.3109 11.2543 16.0902 11.2543H14.8552C14.8299 11.106 14.7909 10.9604 14.7384 10.8194L15.808 10.2017C15.9975 10.0904 16.0619 9.84713 15.9519 9.65684C15.8422 9.46674 15.5993 9.4007 15.4082 9.50933L14.34 10.126C14.2434 10.0099 14.1365 9.90274 14.0202 9.8062L14.6369 8.73795C14.7094 8.61425 14.7101 8.46116 14.6387 8.33672C14.5673 8.21228 14.4347 8.13583 14.2912 8.1362C14.1478 8.13639 14.0156 8.21358 13.9447 8.33821L13.3268 9.40777C13.186 9.35569 13.0407 9.31681 12.8926 9.29189V8.05678C12.8926 7.83617 12.7137 7.65723 12.4931 7.65723C12.2723 7.65723 12.0933 7.83617 12.0933 8.05678V9.29189C11.9451 9.317 11.7995 9.35606 11.6585 9.40851L11.0405 8.33895C10.9697 8.21433 10.8374 8.13713 10.694 8.13695C10.5506 8.13658 10.418 8.21321 10.3465 8.33747C10.2751 8.46191 10.2758 8.61499 10.3484 8.73869L10.965 9.80713C10.8488 9.90367 10.7418 10.0106 10.6453 10.1269L9.577 9.51008C9.38597 9.40145 9.14304 9.46748 9.03329 9.65777C8.92336 9.84806 8.98772 10.0912 9.17726 10.2024L10.2468 10.8203C10.1947 10.961 10.1559 11.1064 10.1309 11.2543H8.89583C8.67504 11.2543 8.49609 11.4332 8.49609 11.654C8.49609 11.8748 8.67504 12.0538 8.89583 12.0538H10.1309C10.1561 12.202 10.1951 12.3477 10.2476 12.4887L9.17801 13.1064C9.05338 13.1775 8.97619 13.3097 8.97581 13.4531C8.97563 13.5965 9.05208 13.7292 9.17652 13.8006C9.30096 13.872 9.45405 13.8713 9.57774 13.7987L10.646 13.1821C10.7425 13.2982 10.8497 13.4053 10.9658 13.5019L10.3491 14.5701C10.2766 14.6938 10.2758 14.8469 10.3473 14.9713C10.4187 15.0958 10.5513 15.1722 10.6947 15.1719C10.8382 15.1717 10.9704 15.0945 11.0415 14.9699L11.6592 13.9003C11.8 13.9524 11.9453 13.9913 12.0933 14.0162ZM12.4931 10.0553C13.3761 10.0553 14.0918 10.771 14.0918 11.654C14.0918 12.537 13.3761 13.2528 12.4931 13.2528C11.6101 13.2528 10.8943 12.537 10.8943 11.654C10.8943 10.771 11.6101 10.0553 12.4931 10.0553Z" fill="#FF915A"/>
<path d="M3.33744 12.4134C3.70927 16.8347 7.18189 20.3618 11.5968 20.8023C12.3476 21.3198 13.1249 21.7977 13.9255 22.234C16.1513 23.4295 18.2097 24.0326 19.9102 24.0326C21.1328 24.096 22.3298 23.6665 23.2333 22.8402C25.38 20.7143 24.7691 16.2694 21.6849 11.4973C21.5947 6.48512 17.5092 2.46749 12.4962 2.46116C12.4374 2.46116 12.3794 2.46451 12.3212 2.46563C7.79777 -0.241004 3.75261 -0.69617 1.74705 1.28967C0.103465 2.91689 0.0891421 5.90216 1.70706 9.48044C2.17394 10.4987 2.71914 11.4793 3.33744 12.4134ZM4.43564 13.9722C5.30951 15.1203 6.26356 16.2049 7.29108 17.2179C8.17928 18.0955 9.1164 18.9221 10.098 19.6937C7.36214 18.8708 5.23009 16.7164 4.43564 13.9722ZM5.70144 11.654C5.70144 7.9014 8.74363 4.85939 12.4962 4.85939C16.2488 4.85939 19.2908 7.9014 19.2908 11.654C19.2908 15.4065 16.2488 18.4485 12.4962 18.4485C8.74531 18.4445 5.70572 15.4049 5.70144 11.654ZM22.6709 22.2727C21.1293 23.7952 18.003 23.5166 14.3048 21.5302C13.905 21.3151 13.5018 21.0785 13.0933 20.8252C17.4515 20.5356 21.0062 17.2235 21.6025 12.8965C23.9219 16.9058 24.3728 20.5877 22.6709 22.2727ZM20.8895 11.654C20.8841 16.2873 17.1295 20.0421 12.4962 20.0473C12.2823 20.0473 12.0725 20.0309 11.8626 20.0153C11.3933 19.6872 10.9278 19.3323 10.4637 18.9638C13.7988 19.9044 17.349 18.4807 19.1102 15.4966C20.8715 12.5124 20.402 8.71631 17.9666 6.25131C15.5313 3.7863 11.7412 3.27068 8.73582 4.99555C5.73064 6.72042 4.26395 10.2529 5.16387 13.5993C4.79854 13.1229 4.44922 12.6432 4.12835 12.1603C4.11831 11.9908 4.10287 11.8242 4.10287 11.654C4.10287 7.01841 7.86064 3.26064 12.4962 3.26064C17.1318 3.26064 20.8895 7.01841 20.8895 11.654ZM2.30936 1.85812C3.88021 0.30289 7.18952 0.614643 10.9263 2.59788C6.80801 3.3183 3.69197 6.72265 3.33781 10.8882C2.99964 10.3039 2.69514 9.72225 2.43659 9.1512C0.963203 5.89454 0.916887 3.23627 2.30936 1.85812Z" fill="#FF915A"/>
<path d="M12.4974 6.85772C12.718 6.85772 12.8969 6.67878 12.8969 6.45817V6.05843C12.8969 5.83763 12.718 5.65869 12.4974 5.65869C12.2766 5.65869 12.0977 5.83763 12.0977 6.05843V6.45817C12.0977 6.67878 12.2766 6.85772 12.4974 6.85772Z" fill="#FF915A"/>
<path d="M9.5529 7.35398C9.62377 7.47861 9.75603 7.5558 9.89944 7.55617C10.0429 7.55636 10.1755 7.47991 10.2469 7.35547C10.3183 7.23121 10.3178 7.07813 10.2452 6.95424L10.0453 6.6077C9.93423 6.41816 9.69093 6.35398 9.50063 6.46373C9.31034 6.57366 9.2445 6.81641 9.35313 7.00744L9.5529 7.35398Z" fill="#FF915A"/>
<path d="M8.19309 8.70978L7.84729 8.50982C7.65625 8.40119 7.41351 8.46722 7.30357 8.65751C7.19383 8.84781 7.258 9.09092 7.44755 9.20216L7.79334 9.40194C7.91704 9.47448 8.07013 9.47523 8.19457 9.4038C8.31883 9.33237 8.39547 9.19974 8.39509 9.05633C8.39491 8.91291 8.31771 8.78065 8.19309 8.70978Z" fill="#FF915A"/>
<path d="M7.69903 11.6536C7.69903 11.4328 7.52009 11.2539 7.29929 11.2539H6.89974C6.67894 11.2539 6.5 11.4328 6.5 11.6536C6.5 11.8744 6.67894 12.0534 6.89974 12.0534H7.29929C7.52009 12.0534 7.69903 11.8744 7.69903 11.6536Z" fill="#FF915A"/>
<path d="M7.79391 13.9055L7.44811 14.1053C7.32348 14.1762 7.24628 14.3084 7.2461 14.4518C7.24572 14.5954 7.32217 14.7279 7.44662 14.7993C7.57106 14.8707 7.72415 14.8702 7.84785 14.7976L8.19365 14.5977C8.31828 14.5268 8.39547 14.3945 8.39566 14.2511C8.39603 14.1077 8.31939 13.9751 8.19514 13.9037C8.07069 13.8322 7.9176 13.833 7.79391 13.9055Z" fill="#FF915A"/>
<path d="M10.0975 15.8076C9.90649 15.6971 9.66207 15.7626 9.55158 15.9538L9.3518 16.3003C9.27925 16.424 9.27851 16.5771 9.34994 16.7016C9.42137 16.8258 9.55399 16.9025 9.69741 16.9021C9.84082 16.9019 9.97308 16.8247 10.0439 16.7001L10.2439 16.3535C10.3542 16.1623 10.2887 15.9179 10.0975 15.8076Z" fill="#FF915A"/>
<path d="M12.8969 17.2495V16.8497C12.8969 16.6291 12.718 16.4502 12.4974 16.4502C12.2766 16.4502 12.0977 16.6291 12.0977 16.8497V17.2495C12.0977 17.4703 12.2766 17.6492 12.4974 17.6492C12.718 17.6492 12.8969 17.4703 12.8969 17.2495Z" fill="#FF915A"/>
<path d="M15.4385 15.9532C15.3676 15.8285 15.2354 15.7513 15.0919 15.751C14.9485 15.7508 14.8159 15.8272 14.7445 15.9517C14.673 16.0759 14.6738 16.229 14.7463 16.3529L14.9461 16.6994C15.0572 16.889 15.3005 16.9532 15.4907 16.8434C15.681 16.7335 15.7469 16.4907 15.6384 16.2997L15.4385 15.9532Z" fill="#FF915A"/>
<path d="M16.7953 14.598L17.1409 14.7979C17.2648 14.8705 17.4179 14.871 17.5421 14.7996C17.6666 14.7282 17.7432 14.5957 17.7428 14.4521C17.7425 14.3087 17.6653 14.1765 17.5406 14.1056L17.195 13.9058C17.004 13.7972 16.7611 13.8632 16.6513 14.0533C16.5414 14.2436 16.6057 14.4869 16.7953 14.598Z" fill="#FF915A"/>
<path d="M17.293 11.6536C17.293 11.8744 17.4719 12.0534 17.6927 12.0534H18.0924C18.3131 12.0534 18.4922 11.8744 18.4922 11.6536C18.4922 11.4328 18.3131 11.2539 18.0924 11.2539H17.6927C17.4719 11.2539 17.293 11.4328 17.293 11.6536Z" fill="#FF915A"/>
<path d="M16.9934 9.45549C17.0637 9.45568 17.1325 9.43708 17.1934 9.40192L17.539 9.20215C17.7285 9.09091 17.7929 8.8478 17.683 8.65751C17.5732 8.46722 17.3303 8.40119 17.1394 8.50982L16.7936 8.70978C16.637 8.80018 16.5605 8.98452 16.6074 9.15918C16.6543 9.33403 16.8126 9.45549 16.9934 9.45549Z" fill="#FF915A"/>
<path d="M14.8913 7.49976C15.0825 7.61025 15.327 7.54478 15.4373 7.35356L15.6372 7.00702C15.7096 6.88332 15.7103 6.73024 15.6389 6.60579C15.5675 6.48154 15.4348 6.4049 15.2914 6.40527C15.148 6.40546 15.0158 6.48266 14.9449 6.60728L14.7451 6.95382C14.6346 7.14504 14.7001 7.38946 14.8913 7.49976Z" fill="#FF915A"/>
</g>
<defs>
<clipPath id="clip0">
<rect width="24" height="24" fill="white" transform="translate(0.503906 0.0644531)"/>
</clipPath>
</defs>
</svg>
