<svg width="25" height="25" viewBox="0 0 25 25" fill="none" xmlns="http://www.w3.org/2000/svg">
<g clip-path="url(#clip0)">
<path d="M24.2844 7.90099C23.9341 4.04508 21.2049 1.24753 17.7893 1.24753C15.5138 1.24753 13.4303 2.47206 12.2579 4.43464C11.0961 2.44668 9.098 1.24707 6.85895 1.24707C3.44383 1.24707 0.714132 4.04462 0.364266 7.90053C0.336572 8.07085 0.223027 8.96721 0.568277 10.429C1.06584 12.5374 2.21514 14.4552 3.89108 15.9738L12.2523 23.5614L20.7571 15.9742C22.4331 14.4552 23.5824 12.5379 24.0799 10.429C24.4252 8.96767 24.3116 8.07131 24.2844 7.90099ZM23.1813 10.2176C22.7271 12.1432 21.6743 13.8976 20.1396 15.2879L12.2579 22.3198L4.51143 15.2897C2.97395 13.8967 1.92159 12.1428 1.46694 10.2171C1.14016 8.83382 1.27447 8.05239 1.27493 8.04731L1.28186 8.00069C1.58187 4.6225 3.92709 2.1702 6.85895 2.1702C9.0223 2.1702 10.9267 3.49951 11.8305 5.63886L12.2556 6.64646L12.6807 5.63886C13.5701 3.53228 15.5751 2.17066 17.7897 2.17066C20.7211 2.17066 23.0668 4.62296 23.3728 8.045C23.3737 8.05239 23.5081 8.83428 23.1813 10.2176Z" fill="#FF554D"/>
</g>
<defs>
<clipPath id="clip0">
<rect width="24" height="24" fill="white" transform="translate(0.324219 0.404297)"/>
</clipPath>
</defs>
</svg>
