<svg width="25" height="25" viewBox="0 0 25 25" fill="none" xmlns="http://www.w3.org/2000/svg">
<g clip-path="url(#clip0)">
<path d="M12.3216 3.60889C7.46246 3.60889 3.52344 7.54791 3.52344 12.4068C3.52344 17.266 7.46246 21.205 12.3216 21.205C17.1807 21.205 21.1197 17.266 21.1197 12.4068C21.1142 7.55011 17.1783 3.61438 12.3216 3.60889ZM12.3216 20.4052C7.9042 20.4052 4.32325 16.8242 4.32325 12.4068C4.32325 7.98965 7.9042 4.4087 12.3216 4.4087C16.739 4.4087 20.3199 7.98965 20.3199 12.4068C20.3148 16.822 16.7368 20.4 12.3216 20.4052Z" fill="#FF554D"/>
<path d="M24.1367 10.3234C24.1367 10.3186 24.133 10.3153 24.1319 10.3106C23.8906 8.94691 23.4132 7.63579 22.7214 6.43616C22.717 6.42701 22.717 6.41712 22.7117 6.40779C22.7066 6.39863 22.6978 6.39424 22.6921 6.38582C22.4697 6.00285 22.2264 5.63232 21.9631 5.27607L23.4064 2.39663C23.5576 2.08744 23.495 1.71618 23.2508 1.47343C23.0066 1.23069 22.635 1.17064 22.3267 1.32368L19.452 2.76496C15.2174 -0.376081 9.42588 -0.376081 5.19121 2.76496L2.31176 1.32167C2.00257 1.17046 1.63113 1.23307 1.38856 1.47728C1.14582 1.72149 1.08559 2.09311 1.23882 2.40158L2.68009 5.27607C2.41684 5.63214 2.17355 6.00248 1.95112 6.38545C1.94545 6.39387 1.93666 6.399 1.93154 6.40779C1.92623 6.41657 1.92623 6.42701 1.92183 6.43616C1.23003 7.63579 0.752593 8.94691 0.511312 10.3106C0.511312 10.3153 0.507468 10.3186 0.506552 10.3234C0.50582 10.3281 0.506552 10.3318 0.506552 10.3362C0.263441 11.7057 0.263441 13.1074 0.506552 14.477V14.4896C0.506552 14.4942 0.51058 14.4989 0.511312 14.5037C0.753508 15.867 1.23149 17.1777 1.92385 18.3768C1.92824 18.386 1.92824 18.396 1.93355 18.4052C1.93868 18.4145 1.95149 18.4277 1.95991 18.4396C2.17977 18.8182 2.42032 19.1845 2.68009 19.5369L1.2368 22.4163C1.11616 22.6653 1.13154 22.9586 1.27763 23.1935C1.42371 23.4283 1.68 23.5719 1.95662 23.5737C2.08147 23.5733 2.20467 23.5446 2.31652 23.4893L5.19285 22.0497C9.42753 25.1909 15.219 25.1909 19.4537 22.0497L22.3331 23.493C22.4435 23.5475 22.5651 23.5761 22.6881 23.5764C22.9658 23.5748 23.223 23.4305 23.3691 23.1946C23.5154 22.9586 23.53 22.664 23.4081 22.4147L21.9683 19.5385C22.2288 19.1861 22.4701 18.8198 22.6906 18.4412C22.6989 18.4292 22.7093 18.4196 22.717 18.4068C22.7245 18.394 22.7221 18.3876 22.7265 18.3785C23.4183 17.1792 23.8956 15.8684 24.137 14.5053C24.137 14.5004 24.1411 14.4965 24.1418 14.4912C24.1427 14.4861 24.1418 14.4828 24.1418 14.4784C24.3849 13.1089 24.3849 11.7074 24.1418 10.3378C24.1358 10.3318 24.1374 10.327 24.1367 10.3234ZM22.4918 14.606L23.2721 14.7437C23.0553 15.7584 22.6978 16.738 22.2099 17.6539L21.5263 17.259C21.4026 17.1865 21.2494 17.1858 21.1251 17.2574C21.0006 17.3288 20.9239 17.4615 20.9242 17.605C20.9246 17.7485 21.0017 17.8809 21.1265 17.9517L21.8064 18.3453C21.2549 19.2237 20.585 20.022 19.8156 20.7175L19.3102 20.1145C19.2183 20.005 19.0749 19.9528 18.9341 19.9775C18.7934 20.0024 18.6766 20.1004 18.6277 20.2347C18.5786 20.3691 18.6052 20.5192 18.6971 20.6287L19.2018 21.2286C18.3849 21.8679 17.4832 22.3903 16.5222 22.781L16.2524 22.0389C16.1768 21.8313 15.9472 21.7242 15.7396 21.7998C15.532 21.8752 15.4249 22.1048 15.5006 22.3124L15.7709 23.0558C14.7844 23.3763 13.7581 23.5576 12.7216 23.5942V22.8043C12.7216 22.5835 12.5424 22.4044 12.3216 22.4044C12.1008 22.4044 11.9216 22.5835 11.9216 22.8043V23.5942C10.8847 23.5581 9.85773 23.3776 8.87083 23.0574L9.14103 22.314C9.18991 22.1796 9.16355 22.0295 9.07165 21.92C8.97975 21.8106 8.83641 21.7584 8.69563 21.7833C8.55486 21.8082 8.43806 21.9061 8.38918 22.0405L8.11934 22.7827C7.15861 22.3918 6.25683 21.8693 5.43999 21.2303L5.94452 20.6304C6.08658 20.461 6.06443 20.2087 5.89528 20.0667C5.72594 19.9246 5.47349 19.9468 5.33162 20.1161L4.82599 20.7191C4.05656 20.0231 3.38654 19.2242 2.83533 18.3453L3.51506 17.9517C3.63991 17.8809 3.71698 17.7485 3.71734 17.605C3.71771 17.4615 3.64119 17.3288 3.5167 17.2574C3.39222 17.1858 3.23899 17.1865 3.11524 17.259L2.43185 17.6539C1.9438 16.738 1.58627 15.7584 1.36952 14.7437L2.1514 14.606C2.36906 14.5676 2.51423 14.3602 2.47579 14.1425C2.43735 13.925 2.22975 13.7798 2.01227 13.8183L1.23369 13.9554C1.0876 12.928 1.0876 11.8851 1.23369 10.8577L2.01227 10.9949C2.03533 10.9989 2.05877 11.0007 2.0822 11.0009C2.2898 11.0009 2.46279 10.8424 2.48073 10.6357C2.49886 10.429 2.3557 10.2428 2.1514 10.207L1.37117 10.0695C1.58792 9.05455 1.94545 8.07515 2.43332 7.15927L3.11689 7.55396C3.24064 7.62664 3.39387 7.62719 3.51817 7.55579C3.64265 7.48421 3.71936 7.35167 3.71899 7.20815C3.71862 7.06463 3.64155 6.93227 3.5167 6.86142L2.8368 6.46783C3.38837 5.5893 4.05821 4.79113 4.82764 4.09548L5.33308 4.69869C5.47807 4.85576 5.721 4.87113 5.88448 4.73347C6.04814 4.59599 6.0745 4.35397 5.94452 4.18427L5.43999 3.58436C6.25683 2.94528 7.15861 2.42281 8.11934 2.03197L8.38918 2.7743C8.43806 2.90849 8.55486 3.00661 8.69563 3.03132C8.83641 3.05622 8.97975 3.00405 9.07165 2.89457C9.16355 2.7851 9.18991 2.63498 9.14103 2.50061L8.87083 1.75718C9.85773 1.43664 10.8846 1.2554 11.9216 1.21897V2.00872C11.9216 2.22968 12.1008 2.40872 12.3216 2.40872C12.5424 2.40872 12.7216 2.22968 12.7216 2.00872V1.21897C13.7585 1.25485 14.7855 1.43554 15.7724 1.75572L15.5022 2.49915C15.4266 2.70675 15.5337 2.93631 15.7413 3.01173C15.9489 3.08734 16.1784 2.98025 16.2541 2.77265L16.5239 2.03032C17.4846 2.42116 18.3864 2.94363 19.2032 3.5829L18.6987 4.18281C18.5567 4.35196 18.5788 4.60441 18.748 4.74647C18.9173 4.88834 19.1697 4.86637 19.3116 4.69704L19.8172 4.09402C20.5867 4.78949 21.2565 5.58765 21.8079 6.46619L21.1282 6.85978C21.0033 6.93062 20.9263 7.06298 20.9259 7.2065C20.9255 7.35003 21.0022 7.48275 21.1265 7.55415C21.251 7.62572 21.4042 7.62499 21.528 7.55231L22.2116 7.15762C22.6994 8.0735 23.057 9.05309 23.2737 10.0678L22.4935 10.2055C22.289 10.2412 22.146 10.4274 22.164 10.634C22.1821 10.8407 22.3551 10.9993 22.5627 10.9993C22.5861 10.9993 22.6095 10.9972 22.6326 10.9932L23.4112 10.8561C23.5573 11.8835 23.5573 12.9264 23.4112 13.9538L22.6326 13.8166C22.4149 13.7782 22.2075 13.9234 22.1691 14.141C22.1306 14.3585 22.2758 14.5661 22.4935 14.6044L22.4918 14.606ZM22.6917 2.04167L21.4141 4.59031C21.0211 4.13448 20.5947 3.70867 20.1383 3.31654L22.6917 2.04167ZM1.95662 2.03837L4.50526 3.31819C4.04979 3.70976 3.62398 4.13484 3.23167 4.58976L1.95662 2.03837ZM1.9535 22.7715L3.23313 20.2228C3.62544 20.6785 4.05125 21.1043 4.50691 21.4966L1.9535 22.7715ZM22.6866 22.7746L20.138 21.497C20.5936 21.1047 21.0194 20.6789 21.4116 20.2232L22.6866 22.7746Z" fill="#FF554D"/>
<path d="M16.2227 7.2201L15.1296 7.49323C14.6924 7.6082 14.3612 7.96591 14.2801 8.41058C14.091 9.34257 13.2716 10.0122 12.3206 10.0122C11.3696 10.0122 10.5504 9.34257 10.3611 8.41058C10.28 7.96554 9.94862 7.60783 9.51127 7.49287L8.41782 7.21973C8.27887 7.18385 8.13132 7.22523 8.03119 7.32811C7.93105 7.43099 7.89389 7.57964 7.93361 7.71767C7.97334 7.85552 8.08391 7.9617 8.2234 7.99557L9.31722 8.26907C9.45434 8.31172 9.55521 8.4287 9.57718 8.57058C9.72766 9.28783 10.1544 9.91684 10.7653 10.3214C9.01205 11.061 8.02276 12.9338 8.40006 14.799C8.77736 16.6643 10.4169 18.0052 12.3199 18.0052C14.2228 18.0052 15.8622 16.6643 16.2395 14.799C16.6168 12.9338 15.6277 11.061 13.8743 10.3214C14.4854 9.91666 14.9121 9.28746 15.0624 8.57021C15.0847 8.42833 15.1856 8.31154 15.3227 8.26907L16.4162 7.99557C16.6289 7.94065 16.7576 7.72426 16.7041 7.51118C16.6507 7.2979 16.4363 7.16811 16.2227 7.2201ZM15.5199 14.0065C15.5199 15.7735 14.0876 17.206 12.3206 17.206C10.5537 17.206 9.12134 15.7735 9.12134 14.0065C9.12134 12.2398 10.5537 10.8073 12.3206 10.8073C14.0866 10.8093 15.5179 12.2405 15.5199 14.0065Z" fill="#FF554D"/>
</g>
<defs>
<clipPath id="clip0">
<rect width="24" height="24" fill="white" transform="translate(0.324219 0.404297)"/>
</clipPath>
</defs>
</svg>
