<svg width="25" height="24" viewBox="0 0 25 24" fill="none" xmlns="http://www.w3.org/2000/svg">
<path fill-rule="evenodd" clip-rule="evenodd" d="M11.8484 2C17.2184 2 21.5864 6.368 21.5864 11.738C21.5864 14.2715 20.6141 16.5823 19.023 18.3165L22.1538 21.4407C22.4468 21.7337 22.4478 22.2077 22.1548 22.5007C22.0088 22.6487 21.8158 22.7217 21.6238 22.7217C21.4328 22.7217 21.2408 22.6487 21.0938 22.5027L17.9252 19.343C16.2584 20.6778 14.1451 21.477 11.8484 21.477C6.47838 21.477 2.10938 17.108 2.10938 11.738C2.10938 6.368 6.47838 2 11.8484 2ZM11.8484 3.5C7.30538 3.5 3.60938 7.195 3.60938 11.738C3.60938 16.281 7.30538 19.977 11.8484 19.977C16.3904 19.977 20.0864 16.281 20.0864 11.738C20.0864 7.195 16.3904 3.5 11.8484 3.5Z" fill="#FF554D"/>
</svg>
