<svg width="25" height="25" viewBox="0 0 25 25" fill="none" xmlns="http://www.w3.org/2000/svg">
<g clip-path="url(#clip0)">
<path d="M12.918 1.1582C6.49572 1.1582 1.29297 6.3617 1.29297 12.7832C1.29297 19.2047 6.49647 24.4082 12.918 24.4082C19.3402 24.4082 24.543 19.2047 24.543 12.7832C24.543 6.3617 19.3395 1.1582 12.918 1.1582ZM18.6277 9.12245L16.7197 18.1135C16.5787 18.751 16.1992 18.9055 15.6697 18.6055L12.7635 16.4635L11.3617 17.8135C11.2072 17.968 11.076 18.0992 10.776 18.0992L10.9822 15.1412L16.368 10.2752C16.6027 10.069 16.3162 9.95195 16.0065 10.1582L9.35022 14.3485L6.48147 13.453C5.85822 13.2565 5.84397 12.8297 6.61272 12.5297L17.8207 8.20745C18.3412 8.01995 18.7957 8.3342 18.627 9.1217L18.6277 9.12245Z" fill="white"/>
</g>
<defs>
<clipPath id="clip0">
<rect width="24" height="24" fill="white" transform="translate(0.917969 0.783203)"/>
</clipPath>
</defs>
</svg>
