<svg width="512" height="512" viewBox="0 0 512 512" fill="none" xmlns="http://www.w3.org/2000/svg">
<g clip-path="url(#clip0)">
<path d="M3.93437 300.172V300.426C3.93437 300.512 4.0203 300.606 4.03593 300.707C9.19973 329.807 19.3945 357.786 34.1672 383.383C34.261 383.57 34.261 383.785 34.3703 383.973C34.5383 384.219 34.7219 384.457 34.9172 384.68C39.6122 392.769 44.7487 400.593 50.3031 408.12L19.4961 469.558C16.9298 474.866 17.2579 481.124 20.3749 486.135C23.492 491.143 28.9565 494.209 34.8586 494.252C37.5225 494.244 40.1474 493.627 42.5379 492.451L103.886 461.734C194.249 528.754 317.829 528.754 408.187 461.734L469.625 492.53C471.985 493.694 474.578 494.303 477.211 494.311C483.133 494.276 488.621 491.198 491.742 486.163C494.859 481.128 495.175 474.843 492.57 469.523L461.852 408.155C467.415 400.628 472.563 392.804 477.27 384.715C477.43 384.476 477.574 384.227 477.707 383.973C477.816 383.785 477.816 383.57 477.91 383.383C492.671 357.783 502.858 329.807 508.014 300.707C508.014 300.606 508.1 300.528 508.116 300.426C508.135 300.325 508.116 300.266 508.116 300.172C513.319 270.939 513.319 241.019 508.116 211.786C508.116 211.692 508.116 211.614 508.116 211.532C508.116 211.446 508.042 211.368 508.022 211.282C502.858 182.17 492.659 154.18 477.875 128.575C477.781 128.388 477.781 128.173 477.672 127.986C477.563 127.798 477.391 127.704 477.27 127.525C472.524 119.349 467.329 111.44 461.708 103.838L492.511 42.4002C495.726 35.799 494.386 27.8892 489.179 22.7137C483.972 17.5382 476.051 16.2492 469.473 19.5068L408.121 50.267C317.758 -16.757 194.182 -16.757 103.82 50.267L42.4441 19.4639C35.8429 16.2414 27.9253 17.5772 22.7459 22.7879C17.5704 27.9947 16.2814 35.92 19.539 42.5017L50.3031 103.838C44.6823 111.44 39.4833 119.349 34.7375 127.525C34.6164 127.697 34.4406 127.798 34.3352 127.986C34.2336 128.173 34.2258 128.388 34.132 128.575C19.3633 154.184 9.17239 182.174 4.0203 211.282C4.0203 211.368 3.94218 211.438 3.92656 211.532C3.90703 211.626 3.92656 211.692 3.92656 211.786C-1.27239 241.019 -1.27239 270.939 3.92656 300.172H3.93437ZM39.0107 209.048L22.3748 206.111C26.9957 184.459 34.6242 163.558 45.0377 144.02L59.619 152.441C62.2595 153.988 65.5289 154.004 68.185 152.477C70.8411 150.953 72.4738 148.121 72.466 145.059C72.4621 141.997 70.8138 139.176 68.1538 137.661L53.6467 129.267C65.4117 110.522 79.7039 93.4913 96.125 78.6561L106.91 91.5149C109.999 94.8663 115.183 95.1944 118.675 92.2609C122.163 89.3236 122.729 84.1637 119.956 80.5428L109.187 67.7426C126.616 54.1066 145.857 42.9548 166.356 34.6193L172.125 50.4545C173.352 53.8254 176.554 56.0675 180.136 56.0714C181.132 56.0714 182.125 55.8956 183.058 55.5479C185.187 54.7785 186.921 53.1965 187.882 51.1458C188.843 49.0951 188.948 46.7476 188.175 44.6188L182.382 28.7212C203.444 21.8934 225.361 18.0381 247.488 17.2726V34.1233C247.488 38.834 251.308 42.658 256.023 42.658C260.734 42.658 264.554 38.834 264.554 34.1233V17.2726C286.682 18.0381 308.599 21.8934 329.66 28.7212L323.883 44.5837C323.113 46.7125 323.219 49.06 324.18 51.1107C325.141 53.1614 326.875 54.7433 329.004 55.5167C329.937 55.8643 330.926 56.0401 331.922 56.0362C335.507 56.0323 338.706 53.7902 339.933 50.4193L345.702 34.5842C366.201 42.9236 385.442 54.0715 402.871 67.7075L392.102 80.5076C389.075 84.1207 389.544 89.5032 393.157 92.5343C396.77 95.5654 402.156 95.0928 405.183 91.4797L415.972 78.621C432.389 93.4562 446.685 110.487 458.446 129.232L443.943 137.626C441.279 139.141 439.631 141.965 439.627 145.028C439.619 148.09 441.252 150.918 443.908 152.445C446.564 153.969 449.834 153.953 452.474 152.406L467.055 143.985C477.469 163.523 485.097 184.424 489.722 206.079L473.082 209.013C468.723 209.778 465.669 213.747 466.051 218.157C466.434 222.563 470.125 225.949 474.547 225.953C475.051 225.949 475.547 225.906 476.043 225.824L492.656 222.895C495.773 244.82 495.773 267.072 492.656 288.993L476.043 286.067C473.039 285.536 469.981 286.649 468.024 288.985C466.063 291.321 465.501 294.524 466.544 297.391C467.587 300.254 470.079 302.348 473.082 302.875L489.722 305.813C485.097 327.464 477.469 348.365 467.055 367.903L452.474 359.482C449.834 357.935 446.564 357.919 443.908 359.447C441.252 360.97 439.619 363.802 439.627 366.864C439.631 369.926 441.279 372.747 443.943 374.262L458.446 382.656C446.685 401.401 432.389 418.432 415.972 433.267L405.183 420.408C403.227 418.072 400.168 416.959 397.164 417.487C394.161 418.018 391.665 420.107 390.622 422.975C389.579 425.838 390.145 429.045 392.102 431.38L402.871 444.18C385.442 457.816 366.201 468.968 345.702 477.304L339.933 461.469C338.261 457.133 333.421 454.934 329.055 456.524C324.688 458.113 322.395 462.906 323.899 467.304L329.676 483.167C308.614 490.022 286.693 493.901 264.554 494.686V477.835C264.554 473.12 260.734 469.3 256.023 469.3C251.308 469.3 247.488 473.12 247.488 477.835V494.686C225.361 493.92 203.444 490.065 182.382 483.237L188.159 467.375C189.663 462.976 187.374 458.18 183.003 456.59C178.636 455 173.801 457.199 172.125 461.535L166.356 477.374C145.857 469.035 126.616 457.887 109.187 444.247L119.956 431.451C122.987 427.838 122.514 422.451 118.901 419.424C115.288 416.393 109.906 416.865 106.874 420.475L96.0898 433.333C79.6688 418.49 65.3726 401.448 53.6115 382.691L68.1186 374.297C70.7786 372.782 72.427 369.958 72.4348 366.895C72.4387 363.833 70.806 361.005 68.1498 359.478C65.4976 357.954 62.2283 357.97 59.5839 359.517L45.0026 367.938C34.5891 348.4 26.9605 327.499 22.3397 305.844L38.9795 302.91C41.9793 302.379 44.4753 300.289 45.5182 297.426C46.5611 294.559 45.9947 291.356 44.0378 289.02C42.077 286.685 39.0185 285.571 36.0187 286.099L19.4023 289.028C16.2853 267.104 16.2853 244.851 19.4023 222.93L36.0187 225.856C36.5108 225.942 37.0108 225.985 37.5108 225.985C41.9442 226 45.6471 222.621 46.0416 218.208C46.4322 213.79 43.3777 209.814 39.0107 209.048ZM34.7883 477.136L62.0525 422.744C70.4271 432.466 79.5086 441.556 89.2269 449.93L34.7883 477.136ZM477.176 477.202L422.796 449.942C432.518 441.571 441.603 432.486 449.974 422.764L477.176 477.202ZM477.254 34.8224L449.99 89.2103C441.615 79.492 432.534 70.4027 422.815 62.0242L477.254 34.8224ZM34.8664 34.756L89.2464 62.0593C79.5243 70.4183 70.4388 79.4881 62.0681 89.1947L34.8664 34.756Z" fill="#FFCF65"/>
<path d="M256.024 443.704C359.698 443.704 443.745 359.657 443.745 255.979C443.745 152.3 359.698 68.2539 256.024 68.2539C152.345 68.2539 68.2988 152.3 68.2988 255.979C68.416 359.606 152.392 443.586 256.024 443.704ZM256.024 85.3194C350.273 85.3194 426.679 161.726 426.679 255.979C426.679 350.232 350.273 426.638 256.024 426.638C161.771 426.638 85.3644 350.232 85.3644 255.979C85.4737 161.773 161.814 85.4288 256.024 85.3194Z" fill="#FFCF65"/>
<path d="M170.691 162.116C189.542 162.116 204.822 177.397 204.822 196.247V290.11C204.822 294.82 208.642 298.645 213.357 298.645C218.067 298.645 221.888 294.82 221.888 290.11V196.247C221.888 177.397 237.172 162.116 256.023 162.116C274.869 162.116 290.154 177.397 290.154 196.247V324.241C290.154 343.091 274.869 358.372 256.023 358.372C251.308 358.372 247.488 362.192 247.488 366.907C247.488 371.617 251.308 375.437 256.023 375.437C281.271 375.406 302.727 356.974 306.563 332.014C314.012 337.99 323.265 341.263 332.816 341.306C356.381 341.306 375.481 322.206 375.481 298.645C375.481 275.079 356.381 255.979 332.816 255.979C323.554 256.01 314.559 259.084 307.219 264.732V196.247C307.192 173.674 292.388 153.781 270.772 147.277C249.16 140.774 225.833 149.195 213.357 168.003C203.885 153.683 187.862 145.062 170.691 145.051C165.98 145.051 162.16 148.871 162.16 153.582C162.16 158.296 165.98 162.116 170.691 162.116ZM332.816 273.044C346.955 273.044 358.416 284.505 358.416 298.645C358.416 312.781 346.955 324.241 332.816 324.241C318.68 324.241 307.219 312.781 307.219 298.645C307.219 284.505 318.68 273.044 332.816 273.044Z" fill="#FFCF65"/>
</g>
<defs>
<clipPath id="clip0">
<rect width="512" height="512" fill="white"/>
</clipPath>
</defs>
</svg>
