<svg width="513" height="512" viewBox="0 0 513 512" fill="none" xmlns="http://www.w3.org/2000/svg">
<g clip-path="url(#clip0)">
<path d="M255.946 443.749C359.607 443.749 443.639 359.716 443.639 256.055C443.639 152.398 359.607 68.3652 255.946 68.3652C152.285 68.3652 68.252 152.398 68.252 256.055C68.3691 359.665 152.335 443.632 255.946 443.749ZM255.946 85.4279C350.183 85.4279 426.577 161.822 426.577 256.055C426.577 350.292 350.183 426.686 255.946 426.686C161.708 426.686 85.3147 350.292 85.3147 256.055C85.424 161.864 161.755 85.5334 255.946 85.4279Z" fill="#FFCF65"/>
<path d="M3.89173 300.494C3.89173 300.608 3.97765 300.694 3.99328 300.795C9.16012 329.879 19.3571 357.841 34.1274 383.422C34.2211 383.617 34.2211 383.832 34.3344 384.027C34.4437 384.226 34.7171 384.507 34.8967 384.761C39.5871 392.838 44.7188 400.652 50.2606 408.17L19.4704 469.598C16.8967 474.91 17.2248 481.166 20.3413 486.177C23.4578 491.187 28.9254 494.249 34.8264 494.288C37.4899 494.281 40.1183 493.667 42.5045 492.488L103.866 461.776C194.206 528.789 317.757 528.789 408.097 461.776L469.525 492.566C471.88 493.73 474.473 494.339 477.098 494.347C483.022 494.312 488.509 491.234 491.626 486.2C494.746 481.166 495.059 474.882 492.458 469.563L461.742 408.205C467.299 400.688 472.446 392.873 477.152 384.796C477.328 384.539 477.551 384.336 477.715 384.062C477.875 383.789 477.824 383.652 477.918 383.457C492.676 357.873 502.858 329.91 508.009 300.83C508.009 300.725 508.095 300.643 508.111 300.53C508.13 300.42 508.111 300.35 508.111 300.256C513.297 271.04 513.297 241.14 508.111 211.924C508.111 211.83 508.111 211.744 508.111 211.65C508.083 211.561 508.048 211.471 508.009 211.385C502.862 182.29 492.68 154.319 477.918 128.723C477.824 128.528 477.824 128.313 477.715 128.118C477.602 127.922 477.414 127.821 477.297 127.649C472.548 119.479 467.358 111.574 461.742 103.975L492.532 42.5465C495.758 35.9502 494.426 28.0262 489.216 22.8515C484.006 17.6729 476.074 16.3881 469.498 19.6569L408.062 50.369C317.722 -16.6399 194.171 -16.6399 103.831 50.369L42.4029 19.5788C35.8067 16.3529 27.8826 17.6886 22.708 22.8984C17.5294 28.1082 16.2445 36.0362 19.5133 42.6168L50.2606 103.939C44.6485 111.535 39.4543 119.436 34.7093 127.606C34.5882 127.786 34.4007 127.895 34.2914 128.083C34.1781 128.27 34.1781 128.493 34.0844 128.688C19.3259 154.28 9.1406 182.251 3.99328 211.342C3.99328 211.443 3.91126 211.514 3.89173 211.615C3.87611 211.717 3.89173 211.795 3.89173 211.889C-1.29464 241.105 -1.29464 271.009 3.89173 300.225C3.91126 300.319 3.87611 300.42 3.89173 300.494ZM38.9818 209.131L22.337 206.198C26.9609 184.547 34.5882 163.653 44.9961 144.114L59.5789 152.534C62.2189 154.085 65.4877 154.096 68.1395 152.573C70.7952 151.046 72.4316 148.219 72.4237 145.157C72.4159 142.095 70.7718 139.272 68.1083 137.76L53.6036 129.364C65.3706 110.622 79.6605 93.594 96.0749 78.7534L106.858 91.6218C109.951 94.9726 115.133 95.3006 118.621 92.3638C122.112 89.4308 122.675 84.2679 119.902 80.6476L109.138 67.8496C126.564 54.2158 145.802 43.0698 166.298 34.7318L172.054 50.5682C173.097 53.4308 175.589 55.5241 178.592 56.0513C181.595 56.5825 184.653 55.4694 186.614 53.134C188.574 50.7986 189.137 47.5961 188.094 44.7296L182.33 28.8697C203.384 22.0314 225.289 18.165 247.413 17.3879V34.2358C247.413 38.9496 251.237 42.7691 255.946 42.7691C260.656 42.7691 264.48 38.9496 264.48 34.2358V17.3879C286.6 18.1533 308.509 22.0079 329.563 28.8385L323.799 44.6983C322.186 49.1271 324.471 54.0244 328.899 55.6335C333.328 57.2464 338.225 54.9617 339.838 50.533L345.595 34.6966C366.091 43.0346 385.329 54.1807 402.754 67.8183L391.991 80.6163C388.961 84.2249 389.433 89.6105 393.042 92.6411C396.654 95.6677 402.04 95.1991 405.066 91.5866L415.853 78.7222C432.268 93.5588 446.557 110.586 458.321 129.328L443.82 137.725C441.156 139.236 439.512 142.06 439.504 145.122C439.496 148.184 441.133 151.015 443.785 152.538C446.44 154.065 449.709 154.05 452.349 152.499L466.932 144.079C477.34 163.618 484.967 184.516 489.591 206.163L472.946 209.1C468.584 209.862 465.534 213.834 465.917 218.243C466.303 222.652 469.994 226.034 474.422 226.034C474.922 226.034 475.422 225.991 475.914 225.905L492.524 222.98C495.641 244.897 495.641 267.146 492.524 289.063L475.914 286.138C471.271 285.318 466.846 288.415 466.026 293.059C465.206 297.698 468.303 302.127 472.946 302.943L489.591 305.88C484.967 327.528 477.34 348.425 466.932 367.964L452.349 359.544C449.709 357.994 446.44 357.978 443.785 359.505C441.133 361.028 439.496 363.86 439.504 366.921C439.512 369.983 441.156 372.807 443.82 374.318L458.321 382.715C446.557 401.457 432.268 418.484 415.853 433.321L405.066 420.457C403.11 418.121 400.052 417.008 397.049 417.535C394.045 418.067 391.55 420.156 390.507 423.023C389.464 425.889 390.031 429.092 391.991 431.431L402.754 444.225C385.329 457.863 366.091 469.009 345.595 477.347L339.838 461.51C338.796 458.648 336.304 456.554 333.301 456.023C330.298 455.496 327.24 456.609 325.279 458.944C323.319 461.276 322.756 464.482 323.799 467.345L329.563 483.205C308.513 490.059 286.604 493.937 264.48 494.726V477.874C264.48 473.164 260.656 469.345 255.946 469.345C251.237 469.345 247.413 473.164 247.413 477.874V494.726C225.293 493.956 203.384 490.106 182.33 483.275L188.094 467.415C189.137 464.549 188.574 461.346 186.614 459.011C184.653 456.675 181.595 455.562 178.592 456.093C175.589 456.625 173.097 458.714 172.054 461.581L166.298 477.413C145.802 469.075 126.564 457.929 109.138 444.295L119.902 431.497C122.932 427.885 122.46 422.503 118.851 419.473C115.239 416.442 109.853 416.914 106.826 420.527L96.0397 433.391C79.6253 418.543 65.3315 401.5 53.5724 382.75L68.0731 374.353C70.7366 372.842 72.3808 370.018 72.3886 366.957C72.3964 363.895 70.7639 361.063 68.1083 359.54C65.4526 358.013 62.1838 358.029 59.5437 359.575L44.9649 367.999C34.5531 348.461 26.9258 327.563 22.3018 305.915L38.9818 302.978C43.6253 302.158 46.7223 297.733 45.9022 293.09C45.082 288.45 40.6533 285.353 36.0137 286.173L19.404 289.098C16.2875 267.181 16.2875 244.932 19.404 223.015L36.0137 225.94C36.5058 226.026 37.0056 226.065 37.5055 226.069C41.9343 226.069 45.6249 222.687 46.0076 218.278C46.3942 213.869 43.3402 209.897 38.9818 209.131ZM34.7171 477.175L62.0158 422.804C70.3851 432.524 79.4691 441.608 89.1896 449.978L34.7171 477.175ZM477.023 477.241L422.652 449.985C432.373 441.616 441.457 432.532 449.826 422.812L477.023 477.241ZM477.09 34.9387L449.834 89.3098C441.477 79.5892 432.408 70.5052 422.703 62.136L477.09 34.9387ZM34.8264 34.8684L89.1974 62.1711C79.4808 70.5248 70.3968 79.5931 62.0276 89.298L34.8264 34.8684Z" fill="#FFCF65"/>
<path d="M204.758 375.497C233.029 375.497 255.946 352.576 255.946 324.309C255.946 296.038 233.029 273.117 204.758 273.117C204.332 273.117 203.903 273.168 203.497 273.179C199.568 266.626 196.096 259.815 193.104 252.789C185.868 234.942 185.868 214.977 193.104 197.13C196.479 188.67 201.493 180.969 207.863 174.459C220.372 161.227 237.782 153.74 255.993 153.76C274.2 153.783 291.595 161.309 304.072 174.572C310.423 181.067 315.421 188.752 318.788 197.188C322.389 206.018 324.224 215.465 324.197 225.002C323.338 240.062 319.163 254.742 311.965 268.001L307.775 276.53C301.803 288.746 295.602 301.376 289.993 315.213C287.674 320.564 285.733 326.07 284.186 331.694C284.186 331.823 283.936 332.702 283.905 332.838C283.76 333.401 283.612 333.975 283.51 334.545C280.734 344.254 282.686 354.705 288.779 362.758C294.875 370.811 304.4 375.528 314.496 375.497C319.44 375.552 324.302 374.275 328.583 371.803C337.487 365.406 343.935 356.158 346.868 345.593C347.848 342.707 347.215 339.517 345.204 337.224C343.197 334.928 340.115 333.881 337.128 334.475C334.136 335.068 331.687 337.212 330.707 340.098C329.008 346.757 325.236 352.701 319.932 357.067C314.5 359.563 308.091 358.387 303.893 354.135C299.558 349.624 298.203 343.024 300.413 337.173C300.558 336.611 300.71 336.045 300.737 335.849C302.178 330.765 303.963 325.781 306.088 320.939C311.204 308.351 316.972 296.553 323.096 284.056L327.313 275.421C335.683 259.874 340.447 242.639 341.26 225.002C341.314 213.259 339.045 201.625 334.589 190.764C330.426 180.325 324.252 170.811 316.417 162.754C300.722 146.141 278.883 136.717 256.024 136.693C233.17 136.674 211.311 146.059 195.584 162.645C187.723 170.702 181.521 180.227 177.338 190.678C172.863 201.566 170.582 213.231 170.633 225.002C170.609 236.719 172.866 248.333 177.287 259.186C179.81 265.208 182.681 271.078 185.887 276.768C163.115 285.864 149.989 309.832 154.593 333.916C159.198 358.005 180.236 375.442 204.758 375.497ZM204.758 290.18C223.605 290.18 238.883 305.461 238.883 324.309C238.883 343.153 223.605 358.434 204.758 358.434C185.911 358.434 170.633 343.153 170.633 324.309C170.633 305.461 185.911 290.18 204.758 290.18Z" fill="#FFCF65"/>
</g>
<defs>
<clipPath id="clip0">
<rect width="512" height="512" fill="white" transform="translate(0.00195312)"/>
</clipPath>
</defs>
</svg>
