<svg width="512" height="512" viewBox="0 0 512 512" fill="none" xmlns="http://www.w3.org/2000/svg">
<g clip-path="url(#clip0)">
<path d="M256.022 68.2539C152.343 68.2539 68.2969 152.3 68.2969 255.979C68.2969 359.657 152.343 443.704 256.022 443.704C359.696 443.704 443.743 359.657 443.743 255.979C443.625 152.351 359.649 68.3711 256.022 68.2539ZM256.022 426.638C161.769 426.638 85.3624 350.232 85.3624 255.979C85.3624 161.726 161.769 85.3194 256.022 85.3194C350.271 85.3194 426.677 161.726 426.677 255.979C426.572 350.185 350.228 426.529 256.022 426.638Z" fill="#FFCF65"/>
<path d="M508.116 211.532C508.116 211.438 508.042 211.368 508.022 211.282C502.858 182.17 492.659 154.18 477.875 128.575C477.781 128.388 477.781 128.173 477.672 127.986C477.563 127.798 477.391 127.704 477.27 127.525C472.524 119.349 467.329 111.44 461.708 103.838L492.511 42.4002C495.726 35.799 494.386 27.8892 489.179 22.7137C483.972 17.5382 476.051 16.2492 469.473 19.5068L408.121 50.267C317.758 -16.757 194.182 -16.757 103.82 50.267L42.4441 19.4639C35.8429 16.2414 27.9253 17.5772 22.7459 22.7879C17.5704 27.9947 16.2814 35.92 19.539 42.5017L50.3031 103.838C44.6823 111.44 39.4833 119.349 34.7375 127.525C34.6164 127.697 34.4406 127.798 34.3352 127.986C34.2336 128.173 34.2258 128.388 34.132 128.575C19.3633 154.184 9.17239 182.174 4.0203 211.282C4.0203 211.368 3.94218 211.438 3.92656 211.532C3.90703 211.626 3.92656 211.692 3.92656 211.786C-1.27239 241.019 -1.27239 270.939 3.92656 300.172V300.426C3.92656 300.512 4.01249 300.606 4.02812 300.707C9.19192 329.807 19.3906 357.786 34.1672 383.383C34.261 383.57 34.261 383.785 34.3703 383.973C34.5383 384.219 34.7219 384.457 34.9172 384.68C39.6122 392.769 44.7487 400.593 50.3031 408.12L19.4961 469.558C16.9298 474.866 17.2579 481.124 20.3749 486.135C23.492 491.143 28.9565 494.209 34.8586 494.252C37.5225 494.244 40.1474 493.627 42.5379 492.451L103.886 461.734C194.249 528.754 317.829 528.754 408.187 461.734L469.625 492.53C471.985 493.694 474.578 494.303 477.211 494.311C483.133 494.276 488.621 491.198 491.742 486.163C494.859 481.128 495.175 474.843 492.57 469.523L461.852 408.155C467.415 400.628 472.563 392.804 477.27 384.715C477.43 384.476 477.574 384.227 477.707 383.973C477.816 383.785 477.816 383.57 477.91 383.383C492.671 357.783 502.858 329.807 508.014 300.707C508.014 300.606 508.1 300.528 508.116 300.426C508.135 300.325 508.116 300.266 508.116 300.172C513.319 270.939 513.319 241.019 508.116 211.786C508.1 211.692 508.135 211.606 508.116 211.532ZM473.032 302.91L489.667 305.844C485.047 327.499 477.418 348.4 467.005 367.938L452.423 359.517C449.783 357.97 446.513 357.954 443.857 359.478C441.201 361.005 439.568 363.833 439.576 366.895C439.58 369.958 441.228 372.782 443.889 374.297L458.396 382.691C446.631 401.437 432.338 418.467 415.921 433.302L405.133 420.443C403.172 418.104 400.117 416.99 397.114 417.522C394.11 418.049 391.614 420.143 390.571 423.006C389.528 425.873 390.094 429.08 392.051 431.415L402.82 444.216C385.391 457.852 366.15 469 345.651 477.339L339.882 461.504C338.206 457.164 333.371 454.969 329.004 456.559C324.637 458.148 322.344 462.941 323.848 467.339L329.625 483.202C308.575 490.041 286.674 493.904 264.554 494.686V477.835C264.554 473.12 260.734 469.3 256.023 469.3C251.308 469.3 247.488 473.12 247.488 477.835V494.686C225.361 493.92 203.444 490.065 182.382 483.237L188.159 467.375C189.663 462.976 187.374 458.18 183.003 456.59C178.636 455 173.801 457.199 172.125 461.535L166.356 477.374C145.857 469.035 126.616 457.887 109.187 444.247L119.956 431.451C122.987 427.838 122.514 422.451 118.901 419.424C115.288 416.393 109.906 416.865 106.874 420.475L96.0898 433.333C79.6688 418.49 65.3726 401.448 53.6115 382.691L68.1186 374.297C70.7786 372.782 72.427 369.958 72.4348 366.895C72.4387 363.833 70.806 361.005 68.1498 359.478C65.4976 357.954 62.2283 357.97 59.5839 359.517L45.0026 367.938C34.5891 348.4 26.9605 327.499 22.3397 305.844L38.9795 302.91C41.9793 302.379 44.4753 300.289 45.5182 297.426C46.5611 294.559 45.9947 291.356 44.0378 289.02C42.077 286.685 39.0185 285.571 36.0187 286.099L19.4023 289.028C16.2853 267.104 16.2853 244.851 19.4023 222.93L36.0187 225.856C36.5108 225.942 37.0108 225.985 37.5108 225.985C41.9442 226 45.6471 222.621 46.0416 218.208C46.4322 213.79 43.3777 209.814 39.0107 209.048L22.3748 206.111C26.9957 184.459 34.6242 163.558 45.0377 144.02L59.619 152.441C62.2595 153.988 65.5289 154.004 68.185 152.477C70.8411 150.953 72.4738 148.121 72.466 145.059C72.4621 141.997 70.8138 139.176 68.1538 137.661L53.6467 129.267C65.4117 110.522 79.7039 93.4913 96.125 78.6561L106.91 91.5149C109.999 94.8663 115.183 95.1944 118.675 92.2609C122.163 89.3236 122.729 84.1637 119.956 80.5428L109.187 67.7426C126.616 54.1066 145.857 42.9548 166.356 34.6193L172.125 50.4545C173.352 53.8254 176.554 56.0675 180.136 56.0714C181.132 56.0714 182.125 55.8956 183.058 55.5479C185.187 54.7785 186.921 53.1965 187.882 51.1458C188.843 49.0951 188.948 46.7476 188.175 44.6188L182.382 28.7212C203.444 21.8934 225.361 18.0381 247.488 17.2726V34.1233C247.488 38.834 251.308 42.658 256.023 42.658C260.734 42.658 264.554 38.834 264.554 34.1233V17.2726C286.682 18.0381 308.599 21.8934 329.66 28.7212L323.883 44.5837C323.113 46.7125 323.219 49.06 324.18 51.1107C325.141 53.1614 326.875 54.7433 329.004 55.5167C329.937 55.8643 330.926 56.0401 331.922 56.0362C335.507 56.0323 338.706 53.7902 339.933 50.4193L345.702 34.5842C366.201 42.9236 385.442 54.0715 402.871 67.7075L392.102 80.5076C389.075 84.1207 389.544 89.5032 393.157 92.5343C396.77 95.5654 402.156 95.0928 405.183 91.4797L415.972 78.621C432.389 93.4562 446.685 110.487 458.446 129.232L443.943 137.626C441.279 139.141 439.631 141.965 439.627 145.028C439.619 148.09 441.252 150.918 443.908 152.445C446.564 153.969 449.834 153.953 452.474 152.406L467.055 143.985C477.469 163.523 485.097 184.424 489.722 206.079L473.082 209.013C468.723 209.778 465.669 213.747 466.051 218.157C466.434 222.563 470.125 225.949 474.547 225.953C475.051 225.949 475.547 225.906 476.043 225.824L492.656 222.895C495.773 244.82 495.773 267.072 492.656 288.993L476.043 286.067C473.039 285.536 469.981 286.649 468.024 288.985C466.063 291.321 465.501 294.524 466.544 297.391C467.587 300.254 470.079 302.348 473.082 302.875L473.032 302.91ZM477.254 34.8224L449.99 89.2103C441.615 79.492 432.534 70.4027 422.815 62.0242L477.254 34.8224ZM34.8664 34.756L89.2464 62.0593C79.5243 70.4183 70.4388 79.4881 62.0681 89.1947L34.8664 34.756ZM34.7883 477.136L62.0525 422.744C70.4271 432.466 79.5086 441.556 89.2269 449.93L34.7883 477.136ZM477.176 477.202L422.796 449.942C432.518 441.571 441.603 432.486 449.974 422.764L477.176 477.202Z" fill="#FFCF65"/>
<path d="M363.431 146.758C363.221 146.598 362.998 146.449 362.767 146.312C362.283 146.012 361.768 145.766 361.232 145.578C360.518 145.328 359.772 145.176 359.014 145.129C358.85 145.129 358.713 145.035 358.553 145.035H358.483L358.416 145.051L286.185 144.871C281.471 144.871 277.651 148.691 277.651 153.406C277.651 158.117 281.471 161.937 286.185 161.937L337.894 162.066L243.914 255.979L207.709 219.774C204.361 216.539 199.038 216.586 195.745 219.879C192.456 223.168 192.409 228.492 195.643 231.839L231.848 268.045L147.552 352.341C145.193 354.446 144.193 357.688 144.954 360.755C145.716 363.825 148.114 366.223 151.184 366.985C154.255 367.746 157.493 366.747 159.598 364.387L243.895 280.091L280.092 316.296C283.439 319.53 288.763 319.483 292.052 316.194C295.345 312.902 295.392 307.582 292.158 304.23L256.023 268.025L350.061 173.995V225.789C350.061 230.5 353.881 234.324 358.596 234.324C363.307 234.324 367.127 230.5 367.127 225.789V153.582C367.091 150.84 365.709 148.289 363.431 146.758Z" fill="#FFCF65"/>
</g>
<defs>
<clipPath id="clip0">
<rect width="512" height="512" fill="white"/>
</clipPath>
</defs>
</svg>
