<svg width="512" height="512" viewBox="0 0 512 512" fill="none" xmlns="http://www.w3.org/2000/svg">
<g clip-path="url(#clip0)">
<path d="M255.944 68.3652C152.283 68.3652 68.25 152.398 68.25 256.055C68.25 359.716 152.283 443.749 255.944 443.749C359.605 443.749 443.637 359.716 443.637 256.055C443.52 152.445 359.554 68.4824 255.944 68.3652ZM255.944 426.686C161.706 426.686 85.3127 350.292 85.3127 256.055C85.3127 161.822 161.706 85.4279 255.944 85.4279C350.181 85.4279 426.575 161.822 426.575 256.055C426.465 350.246 350.134 426.577 255.944 426.686Z" fill="#FFCF65"/>
<path d="M507.999 211.615C507.999 211.514 507.921 211.443 507.898 211.342C502.75 182.251 492.565 154.28 477.807 128.688C477.713 128.493 477.713 128.282 477.6 128.083C477.49 127.887 477.303 127.794 477.182 127.614C472.437 119.444 467.246 111.539 461.63 103.939L492.421 42.5113C495.646 35.9151 494.311 27.9949 489.101 22.8164C483.891 17.6378 475.963 16.3568 469.386 19.6217L408.06 50.369C317.72 -16.6399 194.169 -16.6399 103.829 50.369L42.401 19.5788C35.8047 16.3529 27.8807 17.6886 22.706 22.8984C17.5274 28.1082 16.2426 36.0362 19.5114 42.6168L50.2586 103.939C44.6427 111.535 39.4524 119.436 34.7073 127.606C34.5862 127.786 34.3988 127.895 34.2894 128.083C34.1762 128.27 34.1762 128.493 34.0825 128.688C19.3239 154.28 9.13864 182.251 3.99132 211.342C3.99132 211.443 3.90931 211.514 3.88978 211.615C3.87416 211.717 3.88978 211.795 3.88978 211.889C-1.29659 241.105 -1.29659 271.009 3.88978 300.225V300.494C3.88978 300.592 3.9757 300.694 3.99132 300.795C9.15817 329.879 19.3552 357.841 34.1254 383.422C34.2191 383.617 34.2191 383.832 34.3324 384.027C34.4417 384.226 34.7151 384.507 34.8948 384.761C39.5852 392.838 44.7169 400.652 50.2586 408.17L19.4684 469.598C16.8948 474.91 17.2228 481.166 20.3393 486.177C23.4559 491.187 28.9234 494.249 34.8245 494.288C37.488 494.281 40.1163 493.667 42.5025 492.488L103.864 461.776C194.204 528.789 317.755 528.789 408.095 461.776L469.523 492.566C471.878 493.73 474.471 494.339 477.096 494.347C483.02 494.312 488.507 491.234 491.624 486.2C494.744 481.166 495.057 474.882 492.456 469.563L461.74 408.205C467.297 400.688 472.444 392.873 477.15 384.796C477.326 384.539 477.549 384.336 477.713 384.062C477.873 383.789 477.822 383.652 477.916 383.457C492.674 357.873 502.856 329.91 508.007 300.83C508.007 300.725 508.093 300.643 508.109 300.53C508.128 300.42 508.109 300.35 508.109 300.256C513.295 271.04 513.295 241.14 508.109 211.924C507.98 211.795 508.015 211.693 507.999 211.615ZM472.909 302.978L489.554 305.915C484.93 327.563 477.303 348.461 466.895 367.999L452.312 359.575C449.672 358.029 446.403 358.013 443.751 359.54C441.096 361.063 439.459 363.895 439.467 366.957C439.475 370.018 441.119 372.842 443.783 374.353L458.287 382.75C446.52 401.488 432.23 418.52 415.816 433.356L405.033 420.492C403.073 418.156 400.015 417.043 397.012 417.571C394.008 418.102 391.517 420.191 390.474 423.058C389.427 425.924 389.994 429.127 391.954 431.462L402.721 444.26C385.295 457.898 366.057 469.044 345.558 477.378L339.801 461.545C338.188 457.117 333.291 454.832 328.862 456.445C324.434 458.054 322.149 462.951 323.762 467.38L329.53 483.24C308.484 490.078 286.59 493.945 264.478 494.726V477.874C264.478 473.164 260.654 469.345 255.944 469.345C251.235 469.345 247.411 473.164 247.411 477.874V494.726C225.291 493.956 203.382 490.106 182.328 483.275L188.092 467.415C189.135 464.549 188.572 461.346 186.612 459.011C184.651 456.675 181.593 455.562 178.59 456.093C175.587 456.625 173.095 458.714 172.053 461.581L166.296 477.413C145.8 469.075 126.562 457.929 109.136 444.295L119.9 431.497C122.93 427.885 122.458 422.503 118.849 419.473C115.237 416.442 109.851 416.914 106.824 420.527L96.0378 433.391C79.6234 418.543 65.3296 401.5 53.5704 382.75L68.0712 374.353C70.7347 372.842 72.3788 370.018 72.3866 366.957C72.3945 363.895 70.762 361.063 68.1063 359.54C65.4506 358.013 62.1818 358.029 59.5418 359.575L44.9629 367.999C34.5511 348.461 26.9238 327.563 22.2999 305.915L38.9798 302.978C43.6234 302.158 46.7203 297.733 45.9002 293.09C45.0801 288.45 40.6513 285.353 36.0117 286.173L19.402 289.098C16.2855 267.181 16.2855 244.932 19.402 223.015L36.0117 225.94C36.5038 226.026 37.0037 226.065 37.5036 226.069C41.9323 226.069 45.6229 222.687 46.0056 218.278C46.3923 213.869 43.3383 209.897 38.9798 209.131L22.335 206.198C26.959 184.547 34.5863 163.653 44.9941 144.114L59.5769 152.534C62.217 154.085 65.4858 154.096 68.1376 152.573C70.7932 151.046 72.4296 148.219 72.4218 145.157C72.414 142.095 70.7698 139.272 68.1063 137.76L53.6017 129.364C65.3686 110.622 79.6585 93.594 96.0729 78.7534L106.856 91.6218C109.949 94.9726 115.131 95.3006 118.619 92.3638C122.11 89.4308 122.673 84.2679 119.9 80.6476L109.136 67.8496C126.562 54.2158 145.8 43.0698 166.296 34.7318L172.053 50.5682C173.095 53.4308 175.587 55.5241 178.59 56.0513C181.593 56.5825 184.651 55.4694 186.612 53.134C188.572 50.7986 189.135 47.5961 188.092 44.7296L182.328 28.8697C203.382 22.0314 225.287 18.165 247.411 17.3879V34.2358C247.411 38.9496 251.235 42.7691 255.944 42.7691C260.654 42.7691 264.478 38.9496 264.478 34.2358V17.3879C286.598 18.1533 308.507 22.0079 329.561 28.8385L323.797 44.6983C322.184 49.1271 324.469 54.0244 328.897 55.6335C333.326 57.2464 338.224 54.9617 339.836 50.533L345.593 34.6966C366.089 43.0346 385.327 54.1807 402.753 67.8183L391.989 80.6163C388.959 84.2249 389.431 89.6105 393.04 92.6411C396.652 95.6677 402.038 95.1991 405.064 91.5866L415.851 78.7222C432.266 93.5588 446.555 110.586 458.319 129.328L443.818 137.725C441.154 139.236 439.51 142.06 439.502 145.122C439.495 148.184 441.131 151.015 443.783 152.538C446.438 154.065 449.707 154.05 452.347 152.499L466.93 144.079C477.338 163.618 484.965 184.516 489.589 206.163L472.944 209.1C468.582 209.862 465.532 213.834 465.915 218.243C466.301 222.652 469.992 226.034 474.421 226.034C474.92 226.034 475.42 225.991 475.912 225.905L492.522 222.98C495.639 244.897 495.639 267.146 492.522 289.063L475.912 286.138C471.269 285.318 466.844 288.415 466.024 293.059C465.204 297.698 468.301 302.127 472.944 302.943L472.909 302.978ZM477.174 34.9387L449.918 89.3098C441.533 79.5853 432.437 70.5013 422.701 62.136L477.174 34.9387ZM34.8245 34.8684L89.1955 62.1711C79.4789 70.5248 70.3949 79.5931 62.0256 89.298L34.8245 34.8684ZM34.7581 477.175L62.0569 422.804C70.4261 432.524 79.5101 441.608 89.2306 449.978L34.7581 477.175ZM477.064 477.241L422.693 449.985C432.414 441.616 441.498 432.532 449.863 422.812L477.064 477.241Z" fill="#FFCF65"/>
<path d="M339.19 145.403L315.871 151.23C306.545 153.682 299.48 161.313 297.75 170.8C293.715 190.682 276.235 204.968 255.946 204.968C235.658 204.968 218.181 190.682 214.143 170.8C212.413 161.306 205.344 153.674 196.014 151.222L172.687 145.395C169.723 144.63 166.575 145.512 164.439 147.707C162.302 149.902 161.51 153.073 162.357 156.018C163.205 158.958 165.563 161.224 168.539 161.946L191.874 167.781C194.799 168.691 196.951 171.186 197.42 174.213C200.63 189.514 209.734 202.933 222.766 211.564C185.364 227.342 164.259 267.294 172.308 307.087C180.357 346.879 215.334 375.486 255.931 375.486C296.527 375.486 331.5 346.879 339.549 307.087C347.598 267.294 326.497 227.342 289.091 211.564C302.128 202.929 311.231 189.507 314.437 174.205C314.914 171.178 317.066 168.687 319.991 167.781L343.318 161.946C347.856 160.775 350.601 156.158 349.461 151.612C348.321 147.063 343.728 144.286 339.17 145.395L339.19 145.403ZM324.197 290.18C324.197 327.875 293.641 358.435 255.946 358.435C218.251 358.435 187.695 327.875 187.695 290.18C187.695 252.489 218.251 221.929 255.946 221.929C293.622 221.972 324.154 252.505 324.197 290.18Z" fill="#FFCF65"/>
</g>
<defs>
<clipPath id="clip0">
<rect width="512" height="512" fill="white"/>
</clipPath>
</defs>
</svg>
