<svg width="250" height="52" viewBox="0 0 250 52" fill="none" xmlns="http://www.w3.org/2000/svg">
<path d="M10.9631 25.0645H28.8251V23.5045H14.3691L26.1211 9.98445H12.5751V8.42445H27.3171L28.8251 6.86445H11.0151V11.5445H22.6891L10.9631 25.0645ZM81.1916 25.0645H87.6916C92.5016 25.0645 95.4136 20.4885 95.4136 15.9385C95.4136 11.3885 92.5276 6.86445 87.7436 6.86445H81.1916V21.9445H86.5216C90.2656 21.9445 92.2936 18.9285 92.2936 15.9905C92.2936 12.9485 90.1616 9.98445 86.4696 9.98445H84.3116V11.5705H86.4956C89.3556 11.5705 90.7336 13.7285 90.7336 15.9125C90.7336 18.1485 89.2776 20.3845 86.4956 20.3845H82.7516V8.42445H87.1716C91.3576 8.42445 93.8536 12.3505 93.8536 16.1985C93.8536 19.8905 91.5136 23.5045 87.1716 23.5045H81.1916V25.0645ZM121.343 8.42445V23.5045H119.783V9.98445H118.223V25.0645H122.903V6.86445H118.223V8.42445H121.343ZM154.802 17.2905L156.96 13.5465L156.18 12.1685L152.332 18.8505H158.156L161.744 25.0645H166.71L156.128 6.89045L145.624 25.0645H147.184L156.154 9.54245L164.214 23.5045H162.628L159.04 17.2905H154.802ZM187.845 15.9905C187.845 11.7005 191.303 8.21645 195.593 8.21645C197.699 8.21645 199.571 9.07445 201.001 10.4525L200.143 11.1025C199.077 10.0625 197.621 9.43845 196.035 9.43845C195.879 9.43845 195.749 9.43845 195.619 9.46445V11.0245C195.749 10.9985 195.879 10.9985 196.035 10.9985C197.673 10.9985 199.129 11.9345 199.857 13.2865L203.133 10.8165C201.495 8.39845 198.739 6.81245 195.619 6.81245C190.601 6.81245 186.519 10.8945 186.519 15.9125V16.0425C186.519 21.0605 190.601 25.1425 195.619 25.1425C198.739 25.1425 201.495 23.5565 203.133 21.1385L199.857 18.6685C199.129 20.0205 197.673 20.9565 196.035 20.9565C195.879 20.9565 195.749 20.9565 195.619 20.9305V22.4905C195.749 22.5165 195.879 22.5165 196.035 22.5165C197.621 22.5165 199.077 21.8925 200.143 20.8525L201.001 21.5025C199.571 22.8805 197.699 23.7385 195.593 23.7385C191.303 23.7385 187.845 20.2545 187.845 15.9905ZM230.958 12.6105C232.206 12.6105 233.428 12.6885 234.78 13.1305C236.522 13.8585 237.796 16.5105 237.796 18.4865C237.796 20.9825 235.82 23.5045 233.038 23.5045H227.474V21.9445H232.31C232.544 21.9445 232.804 21.9445 233.038 21.8925C235.092 21.5545 236.236 19.7345 236.236 17.5505C236.236 15.3665 234.624 14.2225 232.518 13.9105L232.31 15.4185C233.87 15.4185 234.676 15.9905 234.676 17.5505C234.676 19.0845 233.922 20.3845 232.414 20.3845H225.914V25.0645H233.038C236.73 25.0645 239.044 22.2305 239.356 18.5125C239.356 16.6405 238.524 14.5605 237.224 13.1565C235.56 11.3625 233.246 11.0245 230.698 11.0245C228.15 11.0245 228.306 9.02245 227.916 6.86445H226.33C226.694 9.51645 227.11 12.2725 230.958 12.6105Z" fill="#5182CC"/>
<path d="M17.1539 41.3245C16.4959 40.6105 15.5719 40.2745 14.6059 40.2745C12.5339 40.2745 11.1339 41.7305 11.1339 43.7745C11.1339 45.8185 12.5619 47.2325 14.6059 47.2325C15.5719 47.2325 16.4679 46.9385 17.1259 46.2105L16.2299 45.3145C15.8099 45.8045 15.3199 46.0565 14.6199 46.0565C13.3179 46.0565 12.4779 45.0485 12.4779 43.8025C12.4779 42.5565 13.1779 41.4505 14.5499 41.4505C15.2499 41.4505 15.7399 41.7025 16.2019 42.1925L17.1539 41.3245ZM31.2318 43.7465C31.2318 42.4025 32.0718 41.4365 33.4158 41.4365C34.7598 41.4365 35.5998 42.4025 35.5998 43.7465C35.5998 45.0905 34.7598 46.0565 33.4158 46.0565C32.0718 46.0565 31.2318 45.0905 31.2318 43.7465ZM29.8878 43.7465C29.8878 45.6785 31.4418 47.2325 33.4158 47.2325C35.3898 47.2325 36.9438 45.6785 36.9438 43.7465C36.9438 41.8145 35.3898 40.2605 33.4158 40.2605C31.4418 40.2605 29.8878 41.8145 29.8878 43.7465ZM50.5223 47.0645H51.7823V43.6205C51.7823 42.1225 52.5943 41.4365 53.5043 41.4365C54.7223 41.4365 54.9043 42.3325 54.9043 43.5925V47.0645H56.1643V43.4385C56.1643 42.2625 56.6403 41.4365 57.8583 41.4365C59.0763 41.4365 59.2863 42.3605 59.2863 43.3685V47.0645H60.5463V43.2005C60.5463 41.7165 60.0703 40.2605 58.0263 40.2605C57.2283 40.2605 56.3603 40.6805 55.9263 41.4925C55.5063 40.6805 54.8343 40.2605 53.8543 40.2605C52.6643 40.2605 51.8523 41.0725 51.7263 41.4645H51.6983V40.4285H50.5223V47.0645ZM74.4442 51.0125H75.7042V46.1125H75.7322C76.1802 46.7985 77.0902 47.2325 78.0422 47.2325C80.0862 47.2325 81.4162 45.7345 81.4162 43.7465C81.4162 41.7865 80.1002 40.2605 78.0422 40.2605C77.1462 40.2605 76.2222 40.6665 75.7322 41.3805H75.7042V40.4285H74.4442V51.0125ZM77.8882 41.4365C79.2322 41.4365 80.0722 42.4025 80.0722 43.7465C80.0722 45.0905 79.2322 46.0565 77.8882 46.0565C76.5442 46.0565 75.7042 45.0905 75.7042 43.7465C75.7042 42.4025 76.5442 41.4365 77.8882 41.4365ZM95.7868 42.0245C96.2488 41.6745 96.7108 41.2685 97.6768 41.2685C98.7548 41.2685 99.2588 41.9825 99.2588 42.6685V42.9485H98.3348C96.3188 42.9485 94.6808 43.5365 94.6808 45.2445C94.6808 46.5325 95.7448 47.2325 96.9768 47.2325C97.9848 47.2325 98.7408 46.9105 99.3008 46.0565H99.3288C99.3288 46.3925 99.3428 46.7285 99.3708 47.0645H100.491C100.449 46.7145 100.435 46.3225 100.435 45.8605V42.4725C100.435 41.3245 99.6228 40.2605 97.6628 40.2605C96.7388 40.2605 95.7308 40.5825 95.0308 41.2405L95.7868 42.0245ZM99.2588 43.8725V44.2925C99.2588 45.1885 98.7688 46.2245 97.3688 46.2245C96.5008 46.2245 95.9408 45.9025 95.9408 45.1465C95.9408 44.0825 97.3968 43.8725 98.5868 43.8725H99.2588ZM117.819 40.4285H116.013V38.5665H114.753V40.4285H113.297V41.5205H114.753V44.9785C114.753 46.0425 114.781 47.2325 116.727 47.2325C116.979 47.2325 117.567 47.1765 117.861 47.0085V45.8605C117.609 46.0145 117.259 46.0565 116.965 46.0565C116.013 46.0565 116.013 45.2725 116.013 44.5305V41.5205H117.819V40.4285ZM131.542 47.0645H132.802V40.4285H131.542V47.0645ZM131.248 38.0485C131.248 38.5525 131.668 38.9725 132.172 38.9725C132.676 38.9725 133.096 38.5525 133.096 38.0485C133.096 37.5445 132.676 37.1245 132.172 37.1245C131.668 37.1245 131.248 37.5445 131.248 38.0485ZM146.807 47.0645H148.067V46.1125H148.095C148.585 46.8265 149.509 47.2325 150.405 47.2325C152.463 47.2325 153.779 45.7065 153.779 43.7465C153.779 41.7585 152.449 40.2605 150.405 40.2605C149.453 40.2605 148.543 40.6945 148.095 41.3805H148.067V36.4805H146.807V47.0645ZM150.251 46.0565C148.907 46.0565 148.067 45.0905 148.067 43.7465C148.067 42.4025 148.907 41.4365 150.251 41.4365C151.595 41.4365 152.435 42.4025 152.435 43.7465C152.435 45.0905 151.595 46.0565 150.251 46.0565ZM167.464 47.0645H168.724V40.4285H167.464V47.0645ZM167.17 38.0485C167.17 38.5525 167.59 38.9725 168.094 38.9725C168.598 38.9725 169.018 38.5525 169.018 38.0485C169.018 37.5445 168.598 37.1245 168.094 37.1245C167.59 37.1245 167.17 37.5445 167.17 38.0485ZM182.827 47.0645H184.087V36.4805H182.827V47.0645ZM198.191 47.0645H199.451V40.4285H198.191V47.0645ZM197.897 38.0485C197.897 38.5525 198.317 38.9725 198.821 38.9725C199.325 38.9725 199.745 38.5525 199.745 38.0485C199.745 37.5445 199.325 37.1245 198.821 37.1245C198.317 37.1245 197.897 37.5445 197.897 38.0485ZM217.012 40.4285H215.206V38.5665H213.946V40.4285H212.49V41.5205H213.946V44.9785C213.946 46.0425 213.974 47.2325 215.92 47.2325C216.172 47.2325 216.76 47.1765 217.054 47.0085V45.8605C216.802 46.0145 216.452 46.0565 216.158 46.0565C215.206 46.0565 215.206 45.2725 215.206 44.5305V41.5205H217.012V40.4285ZM232.598 47.1065L232.192 48.1565C231.94 48.8145 231.702 49.2485 230.904 49.2485C230.652 49.2485 230.386 49.1925 230.148 49.0945L229.994 50.2425C230.344 50.3825 230.736 50.4245 231.114 50.4245C232.5 50.4245 232.934 49.6405 233.382 48.4925L236.532 40.4285H235.174L233.298 45.6085H233.27L231.296 40.4285H229.84L232.598 47.1065Z" fill="#53557E"/>
<g clip-path="url(#clip0)">
<path d="M37.0041 14.6474C37.0608 14.646 37.1171 14.6353 37.1705 14.6153C37.3181 14.5748 38.4611 14.3054 40.015 15.5613L40.3544 15.8378C41.5046 16.776 42.4226 17.5109 43.8891 17.6013C43.4576 17.762 43.0097 17.8739 42.5535 17.9348C41.8616 18.0149 41.1905 18.2218 40.5735 18.5448C39.4886 19.2211 38.6037 20.1749 38.0105 21.3074C37.9001 21.5338 37.9752 21.8071 38.186 21.9451C38.3966 22.0831 38.6772 22.0426 38.8406 21.851C38.8479 21.8414 39.6955 20.9169 41.771 21.2463L42.2056 21.3163C43.6661 21.556 44.8245 21.7443 46.1266 21.1035C45.838 21.447 45.5139 21.759 45.1596 22.0343C44.6025 22.4502 44.126 22.9645 43.754 23.5518C43.1498 24.6793 42.8593 25.9484 42.9124 27.2263C42.9298 27.4749 43.1285 27.6719 43.377 27.6875H43.4121C43.649 27.6857 43.8529 27.5193 43.9021 27.2874C43.9131 27.2375 44.185 26.0439 46.1415 25.2929L46.5521 25.1364C47.9325 24.6129 49.0275 24.1959 49.8391 22.9865C49.7608 23.4278 49.6361 23.8597 49.4671 24.2749C49.1904 24.915 49.0334 25.6005 49.0041 26.2975C49.0469 27.5547 49.4191 28.7788 50.0831 29.8475C50.0899 29.8605 50.1005 29.8708 50.1085 29.8834L50.116 29.8948C50.2364 30.0791 50.4635 30.1622 50.6743 30.0992C50.8848 30.0363 51.0293 29.8424 51.029 29.6225C51.0277 29.5655 51.0169 29.5094 50.9974 29.4558C50.9569 29.3148 50.6811 28.1725 51.943 26.612L52.219 26.2723C53.1544 25.1258 53.896 24.2158 53.9901 22.7565C54.1464 23.1822 54.2558 23.6235 54.3165 24.073C54.3966 24.7647 54.6035 25.436 54.9264 26.0528C55.6025 27.1379 56.5561 28.0228 57.6886 28.6158C57.7563 28.649 57.8307 28.6662 57.906 28.666C58.1148 28.6669 58.3024 28.538 58.3761 28.3428C58.4501 28.1475 58.3947 27.9269 58.2374 27.7893C58.1994 27.7555 57.302 26.9214 57.6275 24.8548L57.698 24.4209C57.9376 22.9604 58.1264 21.8018 57.4851 20.499C57.8287 20.7874 58.1406 21.1115 58.416 21.4658C58.8316 22.024 59.3459 22.5013 59.9335 22.8739C60.9762 23.4376 62.1442 23.7299 63.3296 23.7239C63.4914 23.7239 63.591 23.718 63.6079 23.7168C63.856 23.6981 64.0524 23.4999 64.0691 23.252C64.0845 23.0018 63.9142 22.7782 63.669 22.7269C63.6191 22.7169 62.4255 22.4438 61.675 20.4878L61.518 20.0774C60.9941 18.6968 60.5775 17.6018 59.3681 16.7909C59.8094 16.8687 60.2411 16.9932 60.656 17.1623C61.2964 17.4384 61.9822 17.5942 62.6791 17.6224C63.9396 17.5791 65.1668 17.2056 66.2375 16.5389C66.2563 16.5267 66.2744 16.5137 66.2916 16.4993C66.2955 16.4963 66.3005 16.4933 66.3046 16.4899C66.3229 16.478 66.3405 16.4649 66.3575 16.451C66.5527 16.2557 66.5527 15.9392 66.3575 15.744C66.2252 15.6133 66.0304 15.568 65.8539 15.6268C65.8505 15.6268 65.8471 15.6268 65.8436 15.6268C65.7171 15.6634 64.5635 15.9518 62.9936 14.6824L62.6539 14.4059C61.5075 13.4705 60.5981 12.7298 59.1376 12.6353C59.5636 12.4792 60.0053 12.3696 60.4551 12.3089C61.147 12.2288 61.8181 12.0219 62.4351 11.6989C63.52 11.0226 64.4049 10.0691 64.9979 8.93633C65.1085 8.70996 65.0334 8.43668 64.8226 8.29866C64.6118 8.16064 64.3314 8.20116 64.168 8.39296C64.1604 8.40234 63.312 9.32497 61.2376 8.99744L60.803 8.9274C59.3425 8.6873 58.1841 8.49893 56.8825 9.1398C57.1708 8.79625 57.4947 8.48428 57.849 8.2094C58.407 7.79375 58.8843 7.27945 59.2571 6.69191C59.8611 5.56443 60.1518 4.29551 60.0985 3.01743C60.0813 2.76887 59.8826 2.5718 59.6341 2.55646C59.3848 2.54365 59.1628 2.71279 59.109 2.95632C59.0985 3.00645 58.8261 4.19984 56.8696 4.9508L56.459 5.10736C55.0786 5.63081 53.9834 6.04783 53.1721 7.25747C53.2503 6.81596 53.3748 6.38406 53.544 5.96887C53.8196 5.32869 53.9754 4.64364 54.004 3.94738C53.9612 2.68739 53.5879 1.46058 52.9214 0.390324C52.9086 0.37064 52.8946 0.351414 52.8795 0.333332L52.8715 0.322346C52.8599 0.303807 52.8468 0.285954 52.8326 0.269474C52.6374 0.0742378 52.3208 0.0742378 52.1256 0.269474C51.9949 0.401539 51.9496 0.596089 52.0084 0.772328V0.784459C52.0455 0.910344 52.3359 2.05979 51.064 3.63427L50.7889 3.97233C49.8535 5.1188 49.1119 6.02884 49.0181 7.48842C48.8617 7.0627 48.7523 6.62118 48.6915 6.17189C48.6114 5.47998 48.4047 4.80889 48.0815 4.19183C47.4056 3.1067 46.4521 2.22184 45.3196 1.62881C45.0957 1.5194 44.8256 1.59264 44.6876 1.79978C44.5489 2.00829 44.5842 2.28707 44.7705 2.45438C44.8085 2.48826 45.7059 3.3223 45.3805 5.38888L45.31 5.82284C45.0705 7.28334 44.8815 8.44194 45.523 9.74497C45.1795 9.45635 44.8673 9.13225 44.592 8.77794C44.1763 8.22061 43.662 7.74431 43.0745 7.37237C41.9472 6.7679 40.6781 6.47744 39.4 6.53146C39.1517 6.54863 38.9544 6.7473 38.939 6.99586C38.9235 7.2458 39.0938 7.46942 39.3391 7.52092C39.389 7.53145 40.5826 7.80382 41.3331 9.75984L41.4899 10.1705C42.0141 11.5508 42.4306 12.6458 43.64 13.457C43.1988 13.3792 42.7668 13.2546 42.3521 13.0853C41.7117 12.8086 41.026 12.6515 40.329 12.6225C39.0706 12.6653 37.8454 13.0377 36.7761 13.7023C36.5706 13.8076 36.4637 14.0402 36.5179 14.2647C36.5722 14.4892 36.7731 14.6474 37.0041 14.6474ZM48.3355 10.6344L48.5711 11.0423C48.6596 11.1984 48.8251 11.295 49.0046 11.2952C49.184 11.2956 49.35 11.2 49.4392 11.0443C49.5287 10.8887 49.5278 10.6971 49.4369 10.5424L49.2016 10.1343C49.77 9.86971 50.3797 9.70514 51.0041 9.64792V10.1224C51.0041 10.3984 51.2279 10.6223 51.504 10.6223C51.7802 10.6223 52.0041 10.3984 52.0041 10.1224V9.64792C52.6275 9.70537 53.2364 9.86994 53.804 10.1343L53.5685 10.5424C53.4778 10.6971 53.4769 10.8887 53.5664 11.0443C53.6557 11.2 53.8216 11.2956 54.0011 11.2952C54.1805 11.295 54.3458 11.1984 54.4346 11.0423L54.6701 10.6344C55.1812 10.9965 55.6273 11.4428 55.9896 11.9539L55.5815 12.1894C55.4256 12.278 55.329 12.4435 55.3286 12.6229C55.3283 12.8024 55.424 12.9683 55.5797 13.0576C55.7353 13.1471 55.9266 13.1462 56.0816 13.0553L56.4895 12.8198C56.755 13.3881 56.9205 13.9978 56.9786 14.6224H56.5041C56.2279 14.6224 56.004 14.8463 56.004 15.1223C56.004 15.3986 56.2279 15.6224 56.5041 15.6224H56.9786C56.9209 16.2459 56.7563 16.8547 56.492 17.4224L56.0841 17.1868C55.8452 17.0511 55.5412 17.1335 55.4039 17.3715C55.2666 17.6096 55.3469 17.914 55.584 18.0529L55.9921 18.2885C55.6298 18.7995 55.1837 19.2456 54.6726 19.608L54.4371 19.1999C54.3483 19.044 54.1828 18.9474 54.0036 18.9469C53.8241 18.9467 53.6582 19.0424 53.5687 19.198C53.4794 19.3537 53.4804 19.545 53.571 19.7L53.8065 20.1078C53.2389 20.3722 52.6301 20.5368 52.0066 20.5944V20.1225C52.0066 19.8462 51.7827 19.6224 51.5065 19.6224C51.2304 19.6224 51.0066 19.8462 51.0066 20.1225V20.597C50.3822 20.5395 49.7725 20.3749 49.2039 20.1104L49.4394 19.7025C49.5754 19.4635 49.493 19.1596 49.255 19.0222C49.0169 18.8849 48.7125 18.9653 48.5736 19.2024L48.3381 19.6105C47.827 19.2482 47.3807 18.8021 47.0186 18.291L47.4264 18.0554C47.5825 17.9666 47.6791 17.8012 47.6793 17.6217C47.6798 17.4425 47.5841 17.2766 47.4285 17.1871C47.2728 17.0978 47.0813 17.0987 46.9266 17.1894L46.5185 17.4249C46.2541 16.8573 46.0895 16.2484 46.0321 15.6249H46.504C46.7801 15.6249 47.0039 15.4011 47.0039 15.1248C47.0039 14.8488 46.7801 14.625 46.504 14.625H46.0296C46.0868 14.0006 46.2513 13.3908 46.5159 12.8223L46.924 13.0578C47.0788 13.1487 47.2703 13.1494 47.426 13.0601C47.5816 12.9708 47.6773 12.8049 47.6768 12.6254C47.6766 12.446 47.58 12.2805 47.4241 12.1919L47.016 11.9564C47.3779 11.4444 47.8242 10.9974 48.3355 10.6344ZM42.3675 20.3298L41.9271 20.2584C41.2908 20.149 40.6408 20.1474 40.004 20.2539C40.3212 19.9261 40.681 19.6423 41.074 19.4104C41.5902 19.1495 42.1491 18.9836 42.724 18.9204C43.7728 18.8341 44.7613 18.3953 45.5285 17.6753C45.6274 17.9032 45.7393 18.125 45.8641 18.3399C45.8691 18.3505 45.8691 18.3619 45.8751 18.3724C45.8877 18.391 45.9016 18.4088 45.9165 18.4258C46.1454 18.8119 46.4134 19.1731 46.7164 19.5038C45.1985 20.789 44.1749 20.6258 42.3675 20.3298ZM46.1946 24.2023L45.7801 24.3609C45.1745 24.5836 44.6105 24.9066 44.112 25.3165C44.2223 24.8741 44.3924 24.4488 44.6176 24.0524C44.9344 23.5688 45.3349 23.1453 45.8005 22.8025C46.6665 22.2005 47.3026 21.3221 47.604 20.3113C47.8016 20.4603 48.0073 20.5981 48.2204 20.724C48.2321 20.732 48.2394 20.7444 48.252 20.7514C48.2646 20.7583 48.2815 20.7629 48.296 20.77C48.6921 20.9968 49.1112 21.1813 49.5461 21.32C48.8734 23.1815 47.9041 23.5539 46.1946 24.2023ZM51.4445 25.6404L51.1654 25.9835C50.7539 26.479 50.4278 27.0398 50.2 27.6424C50.0744 27.205 50.0084 26.7525 50.0041 26.2975C50.0364 25.7196 50.1719 25.1524 50.404 24.6223C50.8521 23.6711 50.9656 22.5962 50.726 21.5725C51.4531 21.6661 52.1908 21.6306 52.9056 21.4674C53.254 23.4168 52.6001 24.2224 51.444 25.6404H51.4445ZM56.7115 24.26L56.6401 24.6994C56.5309 25.3357 56.5293 25.9858 56.6355 26.6225C56.3075 26.3064 56.0237 25.9473 55.7921 25.555C55.5311 25.0386 55.3652 24.4799 55.302 23.905C55.2157 22.8565 54.777 21.8679 54.0571 21.101C54.2808 21.0037 54.4987 20.894 54.7101 20.7723C54.7246 20.7654 54.7401 20.7624 54.7541 20.754C54.768 20.7455 54.774 20.7343 54.7854 20.7265C55.1796 20.4942 55.5483 20.2211 55.8854 19.9119C57.1706 21.4289 57.0074 22.4539 56.711 24.26H56.7115ZM60.5846 20.4319L60.743 20.8464C60.9664 21.4527 61.2898 22.0172 61.7 22.5164C61.2573 22.4054 60.8316 22.2346 60.4345 22.0094C59.9506 21.6924 59.5274 21.2916 59.1846 20.8258C58.5833 19.9591 57.7053 19.3223 56.6945 19.0204C56.8385 18.8298 56.9722 18.6311 57.0946 18.4258C57.1095 18.4088 57.1232 18.391 57.1361 18.3724C57.142 18.3619 57.142 18.3505 57.147 18.3399C57.3771 17.9401 57.5638 17.5169 57.7041 17.0774C59.5624 17.7533 59.9355 18.7224 60.5839 20.4319H60.5846ZM62.3651 15.4613C62.8615 15.8735 63.4237 16.1992 64.0279 16.4253C63.5889 16.5519 63.1348 16.6181 62.678 16.6224C62.1007 16.5899 61.5338 16.4544 61.0039 16.2223C60.0527 15.774 58.9779 15.6607 57.9541 15.901C58.0484 15.1738 58.0129 14.4357 57.8495 13.7209C59.7996 13.3709 60.6061 14.0253 62.0225 15.1814L62.3651 15.4613ZM60.6405 9.9148L61.0811 9.98644C61.7174 10.0952 62.3674 10.0968 63.0041 9.99079C62.6869 10.3188 62.3269 10.6026 61.9341 10.8344C61.4178 11.0954 60.8591 11.2613 60.2841 11.3245C59.2354 11.4105 58.2468 11.8493 57.4796 12.5694C57.3807 12.3416 57.2686 12.1196 57.1441 11.9049C57.139 11.8944 57.139 11.883 57.1331 11.8724C57.1271 11.8619 57.1129 11.8523 57.1045 11.8404C56.8726 11.4462 56.5998 11.0775 56.2906 10.7404C57.8101 9.45589 58.8334 9.61839 60.6405 9.9148ZM56.8136 6.04234L57.2281 5.88395C57.8337 5.66102 58.3974 5.33807 58.8959 4.92837C58.7858 5.3708 58.6158 5.79606 58.3906 6.19226C58.0736 6.67611 57.673 7.09932 57.2075 7.44241C56.3414 8.04437 55.7055 8.92259 55.4041 9.93334C55.2064 9.78433 55.0006 9.64678 54.7875 9.52089C54.7761 9.51288 54.7685 9.50029 54.7561 9.49342C54.7436 9.48633 54.7346 9.48747 54.7241 9.48244C54.3236 9.25104 53.8994 9.06336 53.4591 8.92236C54.1345 7.06338 55.104 6.69076 56.8136 6.04234ZM51.5639 4.60427L51.8429 4.26141C52.2545 3.76565 52.5809 3.20512 52.8086 2.60247C52.934 3.03986 52.9999 3.49236 53.0041 3.94738C52.9718 4.52508 52.8363 5.09248 52.604 5.62234C52.1558 6.57358 52.0425 7.64841 52.2819 8.67242C51.555 8.57858 50.8171 8.61429 50.1025 8.77748C49.7539 6.82786 50.4081 6.02243 51.5639 4.60427ZM46.2971 5.98489L46.3685 5.54544C46.4773 4.90983 46.4786 4.26072 46.3724 3.62489C46.7006 3.94097 46.9845 4.30009 47.2161 4.69239C47.477 5.20852 47.643 5.76745 47.7061 6.3424C47.7922 7.39091 48.2309 8.37923 48.951 9.14644C48.723 9.24555 48.501 9.3577 48.2861 9.48244C48.2756 9.48747 48.2641 9.48747 48.2541 9.49342C48.244 9.49938 48.2339 9.51288 48.2225 9.52089C47.8283 9.75321 47.4596 10.026 47.1225 10.3355C45.8375 8.81593 46.0005 7.79077 46.2971 5.98489ZM42.424 9.81294L42.2656 9.39844C42.0422 8.79213 41.7188 8.22748 41.3084 7.72829C41.7513 7.83952 42.177 8.01004 42.5741 8.23549C43.0578 8.55226 43.4812 8.95303 43.8241 9.41881C44.4251 10.2858 45.3033 10.9223 46.3141 11.2245C46.1653 11.4215 46.0277 11.6271 45.9021 11.8399C45.8936 11.8518 45.881 11.8594 45.8735 11.8724C45.8661 11.8855 45.8675 11.8944 45.8625 11.9049C45.632 12.3046 45.4448 12.7278 45.304 13.1674C43.4455 12.4913 43.0726 11.5225 42.424 9.81294ZM42.004 14.0223C42.9552 14.4707 44.0303 14.5838 45.0541 14.3434C44.9598 15.0706 44.995 15.809 45.1584 16.524C43.2086 16.874 42.4016 16.2194 40.9855 15.0633L40.6419 14.7838C40.1464 14.3723 39.5854 14.0461 38.9825 13.8188C39.4204 13.693 39.8733 13.6268 40.329 13.6225C40.9067 13.6547 41.4741 13.7902 42.004 14.0223Z" fill="#FF554D"/>
<path d="M49.004 13.6221C49.0139 13.6221 50.004 13.65 50.004 14.1219V15.622C50.004 16.1743 50.4517 16.622 51.004 16.622H52.004C52.5563 16.622 53.004 16.1743 53.004 15.622V14.1219C53.004 13.652 53.9865 13.6221 54.0039 13.6221C54.28 13.6221 54.5038 13.3982 54.5038 13.1219C54.5038 12.8459 54.28 12.6221 54.0039 12.6221C53.312 12.6221 52.004 12.9354 52.004 14.1219V15.622H51.004V14.1219C51.004 12.9354 49.6959 12.6221 49.004 12.6221C48.7278 12.6221 48.5039 12.8459 48.5039 13.1219C48.5039 13.3982 48.7278 13.6221 49.004 13.6221Z" fill="#FF554D"/>
<path d="M52.004 17.6221H51.004C50.7278 17.6221 50.5039 17.8459 50.5039 18.1219C50.5039 18.3982 50.7278 18.622 51.004 18.622H52.004C52.28 18.622 52.5039 18.3982 52.5039 18.1219C52.5039 17.8459 52.28 17.6221 52.004 17.6221Z" fill="#FF554D"/>
</g>
<defs>
<clipPath id="clip0">
<rect width="30" height="30" fill="white" transform="translate(36.5039 0.0644531)"/>
</clipPath>
</defs>
</svg>
